<?xml version="1.0" encoding="utf-8"?>
<!-- Generator: Adobe Illustrator 25.2.1, SVG Export Plug-In . SVG Version: 6.00 Build 0)  -->
<svg version="1.1" id="Ebene_1" xmlns="http://www.w3.org/2000/svg" xmlns:xlink="http://www.w3.org/1999/xlink" x="0px" y="0px"
	 viewBox="0 0 1000 1000" style="enable-background:new 0 0 1000 1000;" xml:space="preserve">
<style type="text/css">
	.st0{fill-rule:evenodd;clip-rule:evenodd;}
</style>
<g>
	<g>
		<path class="st0" d="M665.4,15.2c-9.1-2.8-20.1-2.2-31.3-2.1c-5.7,3.5-18.5,3.4-25,6.3c-23.7,10.2-42.4,30-52.1,54.2
			c-16.7,41.5,6.2,89.8,30.2,107.3c7.7,5.6,15.6,8.6,25,12.5c9.1,3.8,25.7,9.5,40.6,6.3c36.1-7.9,61.8-24.9,75-55.2
			C754.8,82.7,711.5,29.2,665.4,15.2z M318.5,414.3c7.7,5.6,15.6,8.6,25,12.5c9.1,3.8,25.7,9.5,40.6,6.3c36.1-7.9,61.8-24.9,75-55.2
			c26.7-61.6-16.4-115.4-62.5-129.2c-9.1-2.7-20-2.2-31.3-2.1c-5.7,3.5-18.5,3.4-25,6.3c-23.7,10.2-42.4,30-52.1,54.2
			C271.6,348.5,294.5,396.8,318.5,414.3z M665.4,248.6c-9.1-2.7-20-2.2-31.3-2.1c-5.7,3.5-18.5,3.4-25,6.3
			c-23.7,10.2-42.4,30-52.1,54.2c-16.7,41.5,6.2,89.8,30.2,107.3c7.7,5.6,15.6,8.6,25,12.5c9.1,3.8,25.7,9.5,40.6,6.3
			c36.1-7.9,61.8-24.9,75-55.2C754.7,316.2,711.5,262.4,665.4,248.6z M807.1,669.5c7.7,5.6,15.6,8.6,25,12.5
			c9.1,3.8,25.7,9.5,40.6,6.3c36.1-7.9,61.8-24.9,75-55.2c26.7-61.6-16.4-115.4-62.5-129.2c-9.1-2.7-20-2.2-31.3-2.1
			c-5.7,3.5-18.5,3.4-25,6.3c-23.7,10.2-42.4,30-52.1,54.2C760.2,603.7,783.1,652,807.1,669.5z M158.1,504.9
			c-9.1-2.7-20-2.2-31.3-2.1c-5.7,3.5-18.5,3.4-25,6.3c-23.7,10.2-42.4,30-52.1,54.2c-16.7,41.5,6.2,89.8,30.2,107.3
			c7.7,5.6,15.6,8.6,25,12.5c9.1,3.8,25.7,9.5,40.6,6.3c36.1-7.9,61.8-24.9,75-55.2C247.3,572.5,204.1,518.7,158.1,504.9z
			 M424.8,706c-14.9-6-33.4-8.4-52.1-9.4c-3.4,2.1-9.7-0.1-14.6,1c-10.4,2.4-20.8,4.9-31.3,7.3c-38.3,15.4-68.5,42.6-84.4,80.2
			c-3.1,11.5-6.3,22.9-9.4,34.4c-4.9,19.3-0.2,42.6,4.2,58.3c12.9,46.4,36.3,73.6,75,93.8c15.9,8.3,33.9,13.4,57.3,14.6
			c2.4,0.3,4.9,0.7,7.3,1c17.1-3.1,33.4-3.5,47.9-9.4c36.5-14.7,66-43.2,81.3-79.2C542.6,812.4,486.9,731.2,424.8,706z M464.4,883.1
			c-11.3,26.3-35.3,47-63.6,56.3c-6.7,2.2-16.1,1.8-22.9,3.1c-14.9,2.8-33.7-5.5-42.7-9.4c-38.5-16.8-76.3-70.2-53.1-127.1
			c10.8-26.7,30.9-47.2,57.3-58.3c5.9-2.5,12.5-3.8,18.8-5.2c4.9-1.1,11.1,1,14.6-1c10.3,0.6,22.6,1,31.3,4.2
			C450.4,762.5,491.5,820,464.4,883.1z M885.3,750.8c-9.1-2.7-20-2.2-31.3-2.1c-5.7,3.5-18.5,3.4-25,6.3
			c-23.7,10.2-42.4,30-52.1,54.2c-16.7,41.5,6.2,89.8,30.2,107.3c7.7,5.6,15.6,8.6,25,12.5c9.1,3.8,25.7,9.5,40.6,6.3
			c36.1-7.9,61.8-24.9,75-55.2C974.5,818.4,931.4,764.6,885.3,750.8z"/>
	</g>
</g>
</svg>
