<?xml version="1.0" encoding="utf-8"?>
<!-- Svg Vector Icons : http://www.onlinewebfonts.com/icon -->
<!DOCTYPE svg PUBLIC "-//W3C//DTD SVG 1.1//EN" "http://www.w3.org/Graphics/SVG/1.1/DTD/svg11.dtd">
<svg version="1.1" xmlns="http://www.w3.org/2000/svg" xmlns:xlink="http://www.w3.org/1999/xlink" x="0px" y="0px" viewBox="0 0 1000 1000" enable-background="new 0 0 1000 1000" xml:space="preserve">
<metadata> Svg Vector Icons : http://www.onlinewebfonts.com/icon </metadata>
<g><g transform="translate(0.000000,511.000000) scale(0.100000,-0.100000)"><path d="M5003.7,4996.6c-62.4-25.3-81.9-119-81.9-395.9v-273h-507.1h-507.1v-78v-78h-253.5h-253.5v-87.8v-87.8h-253.5h-253.5v-165.8v-165.8h-253.5h-253.5v-175.5v-175.5H2133h-253.5V3060v-253.5h-165.8h-163.8l-5.9-247.7l-5.8-249.6l-169.7-5.8l-171.6-5.8v-251.6v-253.5h-78h-76.1l-5.9-247.7l-5.8-249.6l-81.9-5.8l-83.9-5.8V776.3V271.2h-87.8h-87.8V27.5v-243.8h87.8h87.8v-429v-429h87.8h87.8v-253.5v-253.5h78h78V-1835v-253.5h175.5H1548V-2342v-253.5h165.8h165.8v-253.5v-253.5H2133h253.5v-165.8v-165.8h253.5h253.5v-175.5v-175.5h253.5h253.5v-78v-78h253.5h253.5v-87.8v-87.8h507.1h507.1v-280.8c0-269.1,1.9-284.7,46.8-335.4c64.4-76.1,173.6-76.1,237.9,0c44.9,50.7,46.8,66.3,46.8,335.4c0,208.7,5.8,284.7,25.3,288.6c11.7,3.9,124.8,15.6,247.7,27.3c1527,138.5,2911.6,1185.7,3486.9,2636.7c663.1,1673.3,191.1,3584.5-1176,4754.6c-667,571.4-1468.5,910.7-2353.9,1000.5l-230.1,23.4v290.6c0,282.8-1.9,292.5-48.8,337.4C5159.7,5008.3,5070,5023.9,5003.7,4996.6z M5861.8,3927.9c1025.8-212.6,1915.1-817.1,2486.5-1688.9c138.5-214.5,349.1-637.7,423.2-858.1c78-230.1,144.3-514.9,179.4-768.4c42.9-314,29.3-881.5-29.3-1191.6c-165.8-885.4-614.3-1671.3-1279.3-2244.7c-647.5-559.7-1380.7-867.8-2256.4-951.7l-132.6-13.7V107.4V4002l191.1-13.6C5547.8,3982.5,5737,3955.2,5861.8,3927.9z M4921.8,115.2v-3724.9h-507.1h-507.1v78v78h-253.5h-253.5v87.8v87.8h-253.5h-253.5v165.8v165.8h-253.5h-251.6l-5.9,171.6l-5.8,169.7l-169.7,5.8l-171.6,5.8v251.6v253.5h-165.8H1704v253.5v253.5h-87.8h-87.8v251.6v253.5l-83.9,5.8l-81.9,5.8l-1.9,360.8c-2,198.9-3.9,425.1-5.8,503.1L1353-60.3h-78h-78v175.5v175.5h78c60.5,0,78,7.8,80,35.1c0,17.6,3.9,243.8,3.9,501.2l3.9,468l83.9,5.8l81.9,5.9v253.5v251.6h87.8h87.8v253.5v253.5h165.8h165.8v253.5V2826H2211h175.5v165.8v165.8h253.5h253.5V3333v175.5h253.5h253.5v78v78h253.5h253.5v87.8v87.8h507.1h507.1V115.2z"/></g></g>
</svg>