<?xml version="1.0" encoding="utf-8"?>
<!-- Svg Vector Icons : http://www.onlinewebfonts.com/icon -->
<!DOCTYPE svg PUBLIC "-//W3C//DTD SVG 1.1//EN" "http://www.w3.org/Graphics/SVG/1.1/DTD/svg11.dtd">
<svg version="1.1" xmlns="http://www.w3.org/2000/svg" xmlns:xlink="http://www.w3.org/1999/xlink" x="0px" y="0px" viewBox="0 0 1000 1000" enable-background="new 0 0 1000 1000" xml:space="preserve">
<metadata> Svg Vector Icons : http://www.onlinewebfonts.com/icon </metadata>
<g><g transform="translate(0.000000,512.000000) scale(0.100000,-0.100000)"><path d="M4603.2,5016.2c-414-42.2-712.9-97.7-1019.6-191.7c-780-235.7-1483.3-657.3-2056.4-1234.2C755,2812.3,281.6,1848.3,124.4,725.2c-32.6-231.9-32.6-965.9,0-1197.8c107.3-755.1,362.2-1445,766.6-2060.2c630.5-964,1519.8-1652,2591.1-2002.7c467.6-155.2,847.1-222.3,1351.1-241.5c1115.4-44.1,2209.7,304.7,3129.6,992.7c228.1,170.6,649.7,578.8,837.5,810.7c437,538.5,781.9,1222.7,948.7,1887.7c293.2,1167.1,157.2,2384.1-387.1,3430.5c-392.9,755.1-973.6,1387.5-1759.3,1914.6c-565.4,377.5-1259.1,632.4-1983.5,730.2C5458,5010.5,4735.5,5029.6,4603.2,5016.2z M7924.5,2262.3l408.2-410.1L6174.7-290.5L4014.9-2433.1L2838.2-1256.4L1661.4-79.7l412,412l412,412l764.7-764.7L4014.9-783L5755,941.8c958.2,950.6,1745.9,1726.7,1751.6,1728.7C7512.4,2670.5,7700.2,2486.5,7924.5,2262.3z"/></g></g>
</svg>