<?xml version="1.0" encoding="utf-8"?>
<!-- Svg Vector Icons : http://www.onlinewebfonts.com/icon -->
<!DOCTYPE svg PUBLIC "-//W3C//DTD SVG 1.1//EN" "http://www.w3.org/Graphics/SVG/1.1/DTD/svg11.dtd">
<svg version="1.1" xmlns="http://www.w3.org/2000/svg" xmlns:xlink="http://www.w3.org/1999/xlink" x="0px" y="0px" viewBox="0 0 1000 1000" enable-background="new 0 0 1000 1000" xml:space="preserve">
<metadata> Svg Vector Icons : http://www.onlinewebfonts.com/icon </metadata>
<g><g transform="translate(0.000000,511.000000) scale(0.100000,-0.100000)"><path d="M4497,4992.5c-1159.9-116.4-2319.8-710.1-3118.7-1593.8C713.6,2662.8,301.3,1800.8,145.5,814.5C94.2,493,84.4-165.9,125.8-467.7c264.3-1927.2,1548.5-3479.6,3379.1-4091.2c722-240.6,1603.7-299.8,2373-157.8c767.3,140.1,1534.7,493.2,2179.7,1002.1c366.9,290,834.4,816.6,1112.5,1254.6c132.1,209.1,370.8,702.3,457.6,946.8C9821.1-964.8,9900-493.3,9900,104.4c2,572.1-65.1,994.2-234.7,1509c-609.5,1856.2-2268.5,3191.6-4199.6,3381C5215.1,5020.1,4751.5,5018.1,4497,4992.5z M5455.7,4601.9c2073.2-205.1,3700.6-1759.6,4014.2-3836.7c49.3-327.5,49.3-974.5,0-1301.9c-151.9-1010-574-1854.2-1274.3-2554.5c-722-722-1629.3-1157.9-2672.9-1282.2c-232.8-29.6-818.6-27.6-1055.3,0c-1325.6,159.8-2491.4,867.9-3223.2,1962.7C877.3-1862.3,628.8-1201.5,530.2-517c-71,489.2-43.4,1130.3,73,1657C843.8,2234.8,1548,3252.6,2494.9,3877.9c576,380.7,1337.4,652.9,2012,722C4747.6,4623.6,5219,4625.6,5455.7,4601.9z"/><path d="M3625.2,1116.3C3037.3,554.1,2554,88.6,2550.1,82.7c-3.9-5.9,479.3-461.6,1075.1-1010l1081-1000.1l122.3,130.2c67.1,73,122.3,142,122.3,155.8s-363,361-808.8,771.3l-806.8,747.6l1917.3,5.9l1917.4,4V84.6v197.3l-1917.4,4l-1917.3,5.9l812.7,777.2c447.8,428.1,812.7,785.1,812.7,795c0,21.7-236.7,272.2-254.5,272.2C4698.2,2136.2,4213,1676.5,3625.2,1116.3z"/></g></g>
</svg>