<?xml version="1.0" encoding="utf-8"?>
<!-- Generator: Adobe Illustrator 25.2.1, SVG Export Plug-In . SVG Version: 6.00 Build 0)  -->
<svg version="1.1" id="Ebene_1" xmlns="http://www.w3.org/2000/svg" xmlns:xlink="http://www.w3.org/1999/xlink" x="0px" y="0px"
	 viewBox="0 0 105.7 107.9" style="enable-background:new 0 0 105.7 107.9;" xml:space="preserve">
<style type="text/css">
	.st0{fill-opacity:0;stroke:#000000;stroke-width:5;}
	.st1{fill:none;}
</style>
<g id="Layer_1">
	<path class="st0" d="M51.9,79.8"/>
	<path class="st0" d="M51.9,27"/>
	<path class="st0" d="M89.1,72.1"/>
	<path class="st0" d="M51.8,34.8"/>
	<path class="st0" d="M51.8,34.8"/>
	<path class="st0" d="M14.5,72.1"/>
</g>
<path class="st1" d="M-1,0h108v108H-1V0z"/>
<path d="M26.2,24c0.1,0,0.2,0,0.3,0h10.7l-3.9,9c-0.4,1-1.3,1.1-1.6,1.1S30.5,34,30.1,33L26.2,24z M72.4,33c0.4,1,1.3,1.1,1.6,1.1
	s1.2-0.1,1.6-1.1l3.9-9c-0.1,0-0.2,0-0.3,0H68.5L72.4,33z M52.8,34c0.3,0,1.2-0.1,1.6-1.1l3.9-9h-11l3.9,9
	C51.7,33.9,52.6,34,52.8,34z M3.5,55.7h98.7c1.9,0,3.5-1.6,3.5-3.5v-3.5c0-1.9-1.6-3.5-3.5-3.5h-1l-1.7-5.8
	c-2.2-7.8-8.6-13.5-16.4-14.9l-4.3,10c-0.8,2-2.7,3.2-4.9,3.2s-4-1.2-4.9-3.2l-4.5-10.4h-2.5l-4.5,10.4c-0.8,2-2.7,3.2-4.9,3.2
	s-4-1.2-4.9-3.2l-4.5-10.4H41l-4.5,10.4c-0.8,2-2.7,3.2-4.9,3.2s-4-1.2-4.9-3.2l-4.3-10c-7.7,1.5-14.2,7.1-16.4,14.9l-1.7,5.8h-1
	c-1.9,0-3.5,1.6-3.5,3.5v3.5C0,54.1,1.6,55.7,3.5,55.7z M4.3,59.2l4.4,19.9c1.1,4.8,5.4,8.3,10.3,8.3h67.6c5,0,9.2-3.4,10.3-8.3
	l4.4-19.9H4.3z"/>
</svg>
