<?xml version="1.0" encoding="utf-8"?>
<!-- Svg Vector Icons : http://www.onlinewebfonts.com/icon -->
<!DOCTYPE svg PUBLIC "-//W3C//DTD SVG 1.1//EN" "http://www.w3.org/Graphics/SVG/1.1/DTD/svg11.dtd">
<svg version="1.1" xmlns="http://www.w3.org/2000/svg" xmlns:xlink="http://www.w3.org/1999/xlink" x="0px" y="0px" viewBox="0 0 1000 1000" enable-background="new 0 0 1000 1000" xml:space="preserve">
<metadata> Svg Vector Icons : http://www.onlinewebfonts.com/icon </metadata>
<g><g transform="translate(0.000000,511.000000) scale(0.100000,-0.100000)"><path d="M4558.8,4993.3c-631.7-64-1182.4-222-1739.4-497.3c-501.5-247.6-866.5-512.2-1282.7-926.3c-388.4-388.4-642.4-732.1-881.4-1190.9C145.2,1401.4-19.1,276.6,185.8-818.2c136.6-717.1,420.4-1365.9,868.6-1984.8c204.9-283.8,715-796.1,998.8-1007.4c697.9-516.5,1485.4-834.5,2334.9-947.6c332.9-42.7,1077.8-32,1387.3,21.3c640.3,111,1248.5,335.1,1771.4,653.1c435.4,264.7,941.2,704.3,1257.1,1094.9c582.6,717.1,954,1605,1069.2,2544c64,518.6,10.7,1252.8-128,1792.8C9331,2940.2,8103.8,4250.6,6548,4758.6C6005.9,4935.7,5532.1,5010.4,4975,5004C4787.2,5004,4599.4,4997.6,4558.8,4993.3z M4857.6,3862.2c32-19.2,81.1-70.4,104.6-113.1l44.8-81.1V105.9c0-3404.1-2.1-3564.2-38.4-3634.6c-55.5-106.7-198.5-175-324.4-160.1c-552.8,70.4-875,162.2-1312.6,373.5C1743.8-2547,898.6-788.3,1284.9,953.2c245.4,1103.4,996.7,2057.4,2027.5,2569.6C3867.4,3798.1,4667.7,3975.3,4857.6,3862.2z"/></g></g>
</svg>