<?xml version="1.0" encoding="utf-8"?>
<!-- Svg Vector Icons : http://www.onlinewebfonts.com/icon -->
<!DOCTYPE svg PUBLIC "-//W3C//DTD SVG 1.1//EN" "http://www.w3.org/Graphics/SVG/1.1/DTD/svg11.dtd">
<svg version="1.1" xmlns="http://www.w3.org/2000/svg" xmlns:xlink="http://www.w3.org/1999/xlink" x="0px" y="0px" viewBox="0 0 1000 1000" enable-background="new 0 0 1000 1000" xml:space="preserve">
<metadata> Svg Vector Icons : http://www.onlinewebfonts.com/icon </metadata>
<g><g transform="translate(0.000000,512.000000) scale(0.100000,-0.100000)"><path d="M4872.5,5003c-88.2-26.8-208.9-153.3-233.8-247.3c-13.4-51.8-19.2-310.5-15.3-772.4c5.7-691.9,5.7-693.8,51.7-766.7c24.9-40.3,80.5-95.8,122.7-124.6c65.2-44.1,99.7-51.8,205.1-51.8c105.4,0,139.9,7.7,205.1,51.8c42.1,28.8,97.7,84.3,122.7,124.6l46,72.8v737.9v737.9l-46,72.8C5240.5,4983.8,5041.2,5054.7,4872.5,5003z"/><path d="M1633.3,3651.7c-166.8-82.4-245.3-260.7-195.5-442.8c23-82.4,72.8-139.9,496.4-567.3c258.8-262.6,507.9-498.3,553.9-525.2c69-42.2,99.7-47.9,203.2-40.2c208.9,13.4,337.3,138,352.7,341.2c13.4,184-17.3,224.3-555.8,759c-400.6,396.8-498.3,483-563.5,502.2C1805.8,3713,1742.6,3707.3,1633.3,3651.7z"/><path d="M8069.6,3676.6c-49.8-13.4-195.5-147.6-542.4-490.7C7264.6,2927.2,7028.8,2678,7002,2632c-42.2-69-47.9-99.7-40.2-203.2c13.4-208.9,138-337.3,341.2-352.7c182.1-13.4,224.3,17.2,759,555.8c433.2,435.1,483,494.5,506,576.9C8648.4,3509.9,8374.3,3770.5,8069.6,3676.6z"/><path d="M4648.3,2233.3c-1027.3-172.5-1792.1-1075.3-1792.1-2116c0-408.3,143.8-875.9,369.9-1205.6c333.5-484.9,872.1-826.1,1450.9-912.3c1171.1-178.2,2267.4,624.8,2443.8,1792.1c124.6,816.5-230,1634.9-912.3,2102.6C5775.3,2191.2,5173.4,2323.4,4648.3,2233.3z"/><path d="M349.1,479.6C259,452.7,140.2,326.2,113.4,228.5c-44.1-170.6,23-348.8,168.7-438.9l72.8-46h739.8h737.9l78.6,51.7c118.8,78.6,168.7,172.5,168.7,322c0,149.5-49.8,243.4-168.7,322l-78.6,51.8l-709.2,3.8C707.5,496.8,385.5,491.1,349.1,479.6z"/><path d="M8127.1,456.6c-47.9-24.9-111.2-82.4-143.8-126.5c-49.8-70.9-57.5-97.8-57.5-212.8s7.7-141.8,57.5-212.8c32.6-44.1,95.8-101.6,143.8-126.5l86.3-46l720.7,5.8l718.8,5.8l78.6,51.7c118.8,78.6,168.7,172.5,168.7,322c0,149.5-49.8,243.4-168.7,322l-78.6,51.8l-718.8,5.7l-720.7,5.8L8127.1,456.6z"/><path d="M2492-1874.1c-36.4-21.1-283.7-254.9-548.2-523.3c-431.3-435.1-483-494.5-506-576.9c-49.8-182.1,28.8-360.3,195.5-442.8c109.2-55.6,172.5-61.3,291.3-26.8c65.2,19.2,162.9,105.4,563.5,502.2c538.6,534.7,569.3,575,555.8,759c-9.6,128.4-59.4,216.6-164.8,289.4C2787.2-1832,2587.8-1820.5,2492-1874.1z"/><path d="M7178.3-1864.5c-205.1-90.1-287.5-360.3-164.8-550.1c30.7-46,264.5-291.3,521.3-546.2c484.9-477.3,523.3-506,676.6-506c70.9,0,184,49.8,249.2,111.2c65.2,63.2,124.6,184,126.5,260.7c0,157.2-26.8,193.6-506,680.4c-254.9,256.8-500.2,490.7-546.2,521.3c-69,44.1-107.3,55.6-191.7,55.6C7283.7-1839.6,7210.9-1851.1,7178.3-1864.5z"/><path d="M4830.4-2838.2c-47.9-26.8-111.2-84.3-143.8-128.4l-57.5-82.4v-739.8v-741.8l46-72.8c24.9-40.3,80.5-95.8,122.7-124.6c65.2-44.1,99.7-51.8,205.1-51.8c105.4,0,139.9,7.7,205.1,51.8c42.1,28.8,97.7,84.3,122.7,124.6c46,72.8,46,72.8,51.7,791.6l5.8,718.8l-46,86.3C5244.4-2819.1,5008.6-2742.4,4830.4-2838.2z"/></g></g>
</svg>