<?xml version="1.0" encoding="utf-8"?>
<!-- Generator: Adobe Illustrator 25.2.1, SVG Export Plug-In . SVG Version: 6.00 Build 0)  -->
<svg version="1.1" id="Ebene_1" xmlns="http://www.w3.org/2000/svg" xmlns:xlink="http://www.w3.org/1999/xlink" x="0px" y="0px"
	 viewBox="0 0 1792 1792" style="enable-background:new 0 0 1792 1792;" xml:space="preserve">
<style type="text/css">
	.st0{fill:none;}
</style>
<g id="g3039">
	<path d="M1573.4,1380c0,78-26.3,143.3-79,196c-52.7,52.7-118,79-196,79c-90,0-168.3-33.3-235-100l-777-776
		c-75.3-76.7-113-167-113-271c0-106,36.7-196,110-270s163-111,269-111c105.3,0,196.3,37.7,273,113l605,606c6.7,6.7,10,14,10,22
		c0,10.7-10.2,26.2-30.5,46.5c-20.3,20.3-35.8,30.5-46.5,30.5c-8.7,0-16.3-3.3-23-10l-606-607c-52.7-51.3-113-77-181-77
		c-70.7,0-130.3,25-179,75s-73,110.3-73,181c0,70,25.3,130.3,76,181l776,777c42,42,90.3,63,145,63c42.7,0,78-14,106-42
		s42-63.3,42-106c0-54.7-21-103-63-145l-581-581c-17.3-16-37.3-24-60-24c-19.3,0-35.3,6.3-48,19c-12.7,12.7-19,28.7-19,48
		c0,21.3,8.3,41,25,59l410,410c6.7,6.7,10,14,10,22c0,10.7-10.3,26.3-31,47c-20.7,20.7-36.3,31-47,31c-8,0-15.3-3.3-22-10l-410-410
		c-42-40.7-63-90.3-63-149c0-54.7,19-101,57-139s84.3-57,139-57c58.7,0,108.3,21,149,63l581,581
		C1540.1,1210.3,1573.4,1288.6,1573.4,1380z"/>
</g>
<path class="st0" d="M0,0h1792v1792H0V0z"/>
</svg>
