<?xml version="1.0" encoding="utf-8"?>
<!-- Generator: Adobe Illustrator 25.2.1, SVG Export Plug-In . SVG Version: 6.00 Build 0)  -->
<svg version="1.1" id="Ebene_1" xmlns="http://www.w3.org/2000/svg" xmlns:xlink="http://www.w3.org/1999/xlink" x="0px" y="0px"
	 viewBox="0 0 600 600" style="enable-background:new 0 0 600 600;" xml:space="preserve">
<style type="text/css">
	.st0{fill:none;}
	.st1{fill:none;stroke:#000000;stroke-width:40;}
	.st2{fill-opacity:0;stroke:#000000;}
</style>
<g>
	<path class="st0" d="M40,38h520v520H40V38z"/>
	<path class="st1" d="M40,38h520v520H40V38z"/>
</g>
<g>
	<path d="M69.6,510.9l131-197.6l131,197.6H69.6z"/>
	<path class="st2" d="M69.6,510.9l131-197.6l131,197.6H69.6z"/>
</g>
<g>
	<path d="M135.6,187.1c-25.3,0-45.9-20.5-45.9-45.9s20.5-45.9,45.9-45.9s45.9,20.5,45.9,45.9S160.9,187.1,135.6,187.1z"/>
	<path class="st2" d="M135.6,187.1c-25.3,0-45.9-20.5-45.9-45.9s20.5-45.9,45.9-45.9s45.9,20.5,45.9,45.9S160.9,187.1,135.6,187.1z"
		/>
</g>
<path d="M214,514H516V372.6L393.7,185.2"/>
<path class="st0" d="M0,0h600v600H0V0z"/>
</svg>
