<?xml version="1.0" encoding="utf-8"?>
<!-- Generator: Adobe Illustrator 25.2.1, SVG Export Plug-In . SVG Version: 6.00 Build 0)  -->
<svg version="1.1" id="Ebene_1" xmlns="http://www.w3.org/2000/svg" xmlns:xlink="http://www.w3.org/1999/xlink" x="0px" y="0px"
	 viewBox="0 0 408 409.4" style="enable-background:new 0 0 408 409.4;" xml:space="preserve">
<style type="text/css">
	.st0{fill:none;}
</style>
<g id="Layer_1">
	<path d="M169.8,177.2c9.1-6,19.6-11.7,25.5-8s6.3,16.2,5.9,27.6c-0.6,16.2-7.3,38.2-19.4,60.2c-10.9,19.8-24.7,39-36.7,48
		c-10.6,8-21.9,11.5-28.6,7.3s-10.2-14.9-8.8-28.6c1.6-15.6,11.4-39.3,22.3-59.1C142.1,202.6,156.8,185.6,169.8,177.2z"/>
	<path d="M7,128.8c0.3-5.8,1.1-12.2,4.8-14.3s9.8,0.5,15,3.2c7.5,3.8,15.6,12,21.9,22.7c5.7,9.7,8.7,19.6,8.9,27.5
		c0.2,6.9-0.6,14.3-4.8,16.6s-11.1-0.7-17.1-4.4c-6.9-4.2-14.1-11.8-19.8-21.5C9.7,147.9,6.6,137,7,128.8z"/>
	<path d="M282.4,95.5c7.6-3.6,16.7-4.9,22-1.6s10.1,11.5,10.4,19.9c0.4,12-8.1,28.7-17.4,43.9c-8.4,13.7-18.9,24.2-28.9,29.9
		c-8.8,5-18.8,9-24.8,5.3s-7-14.4-6.5-24.4c0.5-11.4,5.1-25.6,13.6-39.4C260,113.9,271.6,100.6,282.4,95.5z"/>
	<path d="M240.4,250.8c-7-3.6-14.6-8.3-15.4-14.5s5.2-12.8,11-18.3c8.2-7.8,22.1-14.1,38.3-16.4c14.7-2.1,31.8-2,41.6,2.2
		c8.7,3.6,13.9,10.3,14.8,17.3s-2.5,13.9-9.8,19.9c-8.4,6.8-24.8,12.7-39.5,14.9C265.4,258,250.4,255.9,240.4,250.8z"/>
	<path d="M350.5,139.1c4.3-12.3,9.7-25.3,16.4-25.8s13.6,11.8,19.3,23.4c8.1,16.6,14.2,43.1,16,73.4c1.6,27.3-0.5,58.3-5.5,75.7
		c-4.4,15.3-10.6,24.3-18.2,24.8s-14.4-6.3-20.5-20.9c-7-16.6-13.2-48.4-14.9-75.8C341.5,183.6,344.4,156.5,350.5,139.1z"/>
	<path d="M84,159.1c-9.4-3.8-15.8-10.4-16.6-17c-0.8-6.6,3.4-13.4,11.6-19.2c11.7-8.3,35.4-15.3,57.7-17.9
		c20.1-2.4,38.6-0.8,51.8,3.5c11.6,3.8,23.2,9.3,24.1,16.7s-9.1,15.4-19.5,21.8c-11.9,7.3-29.6,13-49.7,15.4
		C121.2,164.9,97.3,164.5,84,159.1z"/>
</g>
<path class="st0" d="M2,0h406v406H2V0z"/>
</svg>
