<svg id="Capa_1" data-name="Capa 1" xmlns="http://www.w3.org/2000/svg" viewBox="0 0 56 60"><path d="M57,4H50V1a1,1,0,0,0-1-1H42a1,1,0,0,0-1,1V4H19V1a1,1,0,0,0-1-1H11a1,1,0,0,0-1,1V4H3A1,1,0,0,0,2,5V59a1,1,0,0,0,1,1H57a1,1,0,0,0,1-1V5A1,1,0,0,0,57,4ZM43,2h5V8H43V2ZM12,2h5V8H12V2ZM4,6h6V9a1,1,0,0,0,1,1h7a1,1,0,0,0,1-1V6H41V9a1,1,0,0,0,1,1h7a1,1,0,0,0,1-1V6h6v9H4ZM4,58V17H56V58Z" transform="translate(-2)"/><path d="M38,23H11V52H49V23H38Zm-7,2h7v7H31Zm7,16H31V34h7ZM22,34h7v7H22Zm0-9h7v7H22Zm-9,0h7v7H13Zm0,9h7v7H13Zm7,16H13V43h7Zm9,0H22V43h7Zm9,0H31V43h7Zm9,0H40V43h7Zm0-9H40V34h7Zm0-16v7H40V25Z" transform="translate(-2)"/></svg>