<?xml version="1.0" encoding="utf-8"?>
<!-- Generator: Adobe Illustrator 25.2.1, SVG Export Plug-In . SVG Version: 6.00 Build 0)  -->
<svg version="1.1" id="Ebene_1" xmlns="http://www.w3.org/2000/svg" xmlns:xlink="http://www.w3.org/1999/xlink" x="0px" y="0px"
	 viewBox="0 0 360 360" style="enable-background:new 0 0 360 360;" xml:space="preserve">
<style type="text/css">
	.st0{fill:none;}
</style>
<g id="Layer_1">
	<path d="M201.1,139.6c0-4.1,1.4-8.2,4.1-12.3c-6.3-4.4-13.2-6.5-20.8-6.5c-12,0-21.7,5-29.2,14.9c-7.5,9.9-11.2,23.2-11.2,39.8
		c0,17.2,3.9,30.9,11.8,41.3c7.9,10.3,18.4,15.5,31.5,15.5c13.3,0,23.1-7.2,29.4-21.7c3.8-9,7.1-14.7,9.8-17.2
		c3.8-3.3,9.8-4.9,18-4.9c9.3,0,16.7,2.8,22.5,8.4c5.7,5.6,8.6,12.7,8.6,21.4c0,18.5-9,34.6-27,48.2c-18,13.6-39.5,20.4-64.5,20.4
		c-32.1,0-57.7-9.9-76.8-29.6C88,237.7,78.5,211.2,78.5,178c0-33.5,9.8-60,29.4-79.7c19.6-19.6,46-29.4,79.2-29.4
		c24,0,43.8,5.7,59.4,17s23.5,25.7,23.5,43.1c0,10.9-3.5,19.7-10.6,26.3c-7.1,6.7-16.2,10-27.4,10c-9.3,0-16.7-2.4-22.5-7.1
		C203.9,153.4,201.1,147.2,201.1,139.6z"/>
</g>
<path class="st0" d="M7.7,5.7h344.6v344.6H7.7V5.7z"/>
</svg>
