<?xml version="1.0" encoding="utf-8"?>
<!-- Generator: Adobe Illustrator 25.2.1, SVG Export Plug-In . SVG Version: 6.00 Build 0)  -->
<svg version="1.1" id="Ebene_1" xmlns="http://www.w3.org/2000/svg" xmlns:xlink="http://www.w3.org/1999/xlink" x="0px" y="0px"
	 viewBox="0 0 162 162" style="enable-background:new 0 0 162 162;" xml:space="preserve">
<style type="text/css">
	.st0{fill:none;}
</style>
<path class="st0" d="M0,0h162v162H0V0z"/>
<g>
	<path d="M107.1,89.2L57.8,53.1c-5.2-3.8-6.3-11.1-2.5-16.3l12.8-17.4c3.8-5.2,11.1-6.3,16.3-2.5l49.2,36.2
		c5.2,3.8,6.3,11.1,2.5,16.3l-12.8,17.4C119.5,91.9,112.2,93.1,107.1,89.2z"/>
	<path d="M113.8,92.2c-2.5,0-5.1-0.8-7.3-2.4L57.4,53.6c-2.6-2-4.4-4.8-4.8-8.1s0.3-6.5,2.2-9.1L67.6,19c4-5.5,11.8-6.7,17.2-2.6
		l49.2,36.2c5.5,4,6.7,11.8,2.6,17.2l-12.8,17.4C121.4,90.3,117.6,92.2,113.8,92.2z M107.4,88.6c4.8,3.5,11.8,2.5,15.4-2.4
		l12.8-17.4c3.5-4.8,2.5-11.8-2.4-15.4L83.9,17.5c-4.8-3.5-11.8-2.5-15.4,2.4L55.9,37.2c-1.7,2.4-2.5,5.2-2,8.2c0.5,3,2,5.5,4.3,7.2
		L107.4,88.6z"/>
</g>
<g>
	<rect x="8.4" y="102.5" transform="matrix(0.5926 -0.8055 0.8055 0.5926 -65.1099 87.6856)" width="91.4" height="11.4"/>
	<path d="M31.8,149.3l-10.2-7.4l54.9-74.7l10.2,7.4l-0.4,0.5L31.8,149.3z M23.5,141.5l8.1,5.9L85,74.9l-8.1-5.9L23.5,141.5z"/>
</g>
</svg>
