<?xml version="1.0" encoding="utf-8"?>
<!-- Generator: Adobe Illustrator 25.2.1, SVG Export Plug-In . SVG Version: 6.00 Build 0)  -->
<svg version="1.1" id="Ebene_1" xmlns="http://www.w3.org/2000/svg" xmlns:xlink="http://www.w3.org/1999/xlink" x="0px" y="0px"
	 viewBox="0 0 162 162" style="enable-background:new 0 0 162 162;" xml:space="preserve">
<style type="text/css">
	.st0{fill:#3B3B3B;}
	.st1{fill-opacity:0;stroke:#000000;stroke-width:14;stroke-linejoin:round;}
	.st2{fill:none;}
</style>
<g id="Layer_1">
	<path d="M110.4,30.9L80,71.2L49.5,30.9C49.5,30.9,110.4,30.9,110.4,30.9z"/>
	<path class="st0" d="M2.9,80.6h40.3"/>
	<path class="st1" d="M2.9,80.6h40.3"/>
	<path class="st0" d="M80,156.4v-40.3"/>
	<path class="st1" d="M80,156.4v-40.3"/>
	<path d="M29.3,50.2l40.3,30.4L29.3,111V50.2z"/>
	<path d="M49.5,128.2L80,87.9l30.4,40.3H49.5z"/>
	<path d="M129.4,111L89.1,80.6l40.3-30.4V111z"/>
	<path class="st0" d="M80,44.3V4"/>
	<g>
		<path d="M80,44.3V4"/>
		<path class="st1" d="M80,44.3V4"/>
	</g>
	<path class="st0" d="M117.2,80.6h40.3"/>
	<path class="st1" d="M117.2,80.6h40.3"/>
</g>
<path class="st2" d="M0,0h162v162H0V0z"/>
</svg>
