<?xml version="1.0" encoding="utf-8"?>
<!-- Svg Vector Icons : http://www.onlinewebfonts.com/icon -->
<!DOCTYPE svg PUBLIC "-//W3C//DTD SVG 1.1//EN" "http://www.w3.org/Graphics/SVG/1.1/DTD/svg11.dtd">
<svg version="1.1" xmlns="http://www.w3.org/2000/svg" xmlns:xlink="http://www.w3.org/1999/xlink" x="0px" y="0px" viewBox="0 0 1000 1000" enable-background="new 0 0 1000 1000" xml:space="preserve">
<metadata> Svg Vector Icons : http://www.onlinewebfonts.com/icon </metadata>
<g><g transform="translate(0.000000,512.000000) scale(0.100000,-0.100000)"><path d="M155.5,4964.5L100,4909V120v-4789l55.5-55.5L211-4780h817.3h815.4l-51.7,45.9c-111,93.8-38.3,279.4,109.1,279.4c134,0,202.9-179.9,103.4-277.5l-45.9-47.9h3914.2H9789l55.5,55.5l55.5,55.5v3916.2v3914.2l-47.9-45.9c-97.6-99.5-277.5-30.6-277.5,103.4c0,147.4,185.7,220.1,279.4,109.1l45.9-51.7v815.4V4909l-55.5,55.5L9789,5020H5000H211L155.5,4964.5z M1445.6,4390.3l128.2-132.1v-204.8c0-137.8-9.6-220.1-26.8-254.6c-32.5-59.3-174.2-201-235.4-231.6c-23-11.5-132.1-21.1-245-21.1H861.8l-132.1,128.2l-132.1,126.3V4040v239.3l120.6,122.5l122.5,120.6H1080h239.3L1445.6,4390.3z M2747.1,4390.3l128.2-132.1v-224v-222l-107.2-112.9c-57.4-61.3-130.2-120.6-160.8-134c-34.4-13.4-130.2-21.1-258.4-15.3l-202.9,5.7l-124.4,126.3l-122.5,128.2v233.5v233.5l122.5,122.5l122.5,122.5h237.4h239.3L2747.1,4390.3z M4056.4,4401.8l120.6-122.5v-233.5v-235.4l-122.5-128.2L3930,3555.7l-193.3-5.7c-107.2-3.8-214.4-1.9-241.2,3.8c-59.3,15.3-229.7,172.3-268,245c-17.2,34.4-26.8,116.7-26.8,254.6v204.8l128.2,132.1l126.3,132.1h239.3h239.3L4056.4,4401.8z M5344.5,4415.2c61.3-57.4,120.6-130.2,134-160.8c13.4-34.4,21-128.2,15.3-248.8l-5.7-193.3l-135.9-134l-137.8-132.1H5000h-214.4l-137.8,134l-135.9,132.1v231.6v231.6l126.3,124.4l128.2,122.5H5000h231.6L5344.5,4415.2z M6671,4390.3l128.2-132.1v-204.8c0-137.8-9.6-220.1-26.8-254.6c-38.3-72.7-208.6-229.7-268-245c-26.8-5.7-134-7.7-241.2-3.8l-193.3,5.7l-124.4,126.3L5823,3810.3v235.4v233.5l120.6,122.5l122.5,120.6h239.3h239.3L6671,4390.3z M7970.6,4394.1l130.2-128.2v-227.8v-227.8l-122.5-128.2l-124.4-126.3h-241.2h-241.2l-124.4,126.3l-122.5,128.2v224v224l128.2,132.1l126.3,132.1h231.6h229.7L7970.6,4394.1z M9281.8,4401.8l120.6-122.5v-235.4v-235.4l-130.2-132.1l-132.1-130.2h-204.8c-112.9,0-223.9,9.6-246.9,21.1c-61.3,30.6-202.9,172.3-235.4,231.6c-17.2,34.4-26.8,116.7-26.8,254.6v204.8l128.2,132.1l126.3,132.1H8920h239.3L9281.8,4401.8z M1949,3373.9c70.8-26.8,101.4-72.7,103.4-151.2c0-91.9-63.2-155-151.2-155c-82.3,1.9-126.3,32.5-155,105.3c-26.8,70.8,5.7,153.1,74.6,191.4C1882,3396.9,1883.9,3396.9,1949,3373.9z M2626.6,3364.3c91.9-47.9,107.2-174.2,32.5-252.7c-78.5-86.1-225.9-44-268,74.7c-19.1,51.7,24.9,147.4,80.4,178C2536.6,3398.8,2559.6,3398.8,2626.6,3364.3z M3267.8,3370.1c155-70.8,105.3-302.4-65.1-302.4c-168.4,0-218.2,216.3-68.9,302.4C3183.6,3398.8,3206.5,3398.8,3267.8,3370.1z M3970.2,3341.4c47.9-44,61.2-128.2,26.8-193.3c-74.6-143.6-298.6-86.1-298.6,78.5c0,63.2,47.9,128.2,114.8,153.1C3853.5,3395,3932,3375.8,3970.2,3341.4z M4634.4,3322.2c88-99.5,13.4-254.6-126.3-254.6c-128.2,0-201,141.6-128.2,245C4444.9,3404.5,4555.9,3408.4,4634.4,3322.2z M5283.3,3324.1c91.9-103.4,19.1-256.5-120.6-256.5c-132.1,0-206.7,139.7-132.1,245C5093.8,3404.5,5206.7,3408.4,5283.3,3324.1z M5934.1,3324.1c90-103.4,19.1-256.5-120.6-256.5c-168.4,0-218.2,224-67,300.5C5809.6,3400.7,5880.5,3383.5,5934.1,3324.1z M6584.8,3331.8c53.6-51.7,55.5-145.5,1.9-214.4c-30.6-38.3-55.5-49.8-114.8-49.8c-124.4,0-201,112.9-147.4,222C6374.3,3396.9,6494.9,3414.1,6584.8,3331.8z M7199.3,3364.3c61.2-30.6,78.5-63.2,78.5-149.3c0-178-250.7-201-312-28.7c-19.1,51.7,24.9,147.4,80.4,178C7109.3,3398.8,7134.2,3398.8,7199.3,3364.3z M7850,3364.3c59.3-28.7,103.3-124.4,84.2-178c-61.3-176.1-312-149.3-312,34.4c0,74.6,24.9,116.8,86.1,149.3C7760.1,3398.8,7786.9,3398.8,7850,3364.3z M8500.8,3364.3c63.2-30.6,107.2-122.5,88-181.8c-36.4-112.9-185.7-153.1-271.8-72.7c-84.2,78.5-44,227.8,70.8,269.9C8433.8,3396.9,8443.4,3395,8500.8,3364.3z M9207.1,3324.1c49.8-55.5,53.6-103.4,13.4-178c-72.7-143.6-296.7-82.3-296.7,80.4c0,63.2,47.9,128.2,114.8,153.1C9088.4,3398.8,9161.2,3373.9,9207.1,3324.1z M1437.9,3098.3l126.3-124.4l5.7-202.9c5.7-128.2-1.9-224-15.3-258.4c-13.4-30.6-72.7-103.4-134-160.8l-112.9-107.2h-222h-224l-132.1,128.2l-132.1,126.3v239.3v237.4l122.5,122.5l122.5,122.5h233.5h233.5L1437.9,3098.3z M2010.2,2679.1c28.7-26.8,42.1-61.3,42.1-109.1c0-174.2-239.3-220.1-306.2-57.4c-32.5,78.5,3.8,168.4,84.2,202.9C1899.2,2744.2,1949,2734.6,2010.2,2679.1z M3803.7,2522.1l47.9-45.9v-557v-557l-47.9-45.9l-45.9-47.9h-557h-557l-45.9,47.9l-47.9,45.9v547.4V2459l55.5,55.5l55.5,55.5h549.3h547.4L3803.7,2522.1z M5560.8,2547c88.1-45.9,88.1-55.5,90-633.5v-551.3l-47.9-45.9l-45.9-47.9h-557h-557l-45.9,47.9l-47.9,45.9v551.3c1.9,574.2,1.9,585.7,86.1,633.5C4488.9,2577.7,5503.4,2577.7,5560.8,2547z M7394.5,2514.5l55.5-55.5v-549.3v-547.4l-47.9-45.9l-45.9-47.9h-557h-557l-45.9,47.9l-47.9,45.9v557v557l47.9,45.9l45.9,47.9h547.4H7339L7394.5,2514.5z M9193.7,2514.5l55.5-55.5v-530.2c0-537.9-5.7-581.9-74.7-635.5c-22.9-17.2-178-23-578-24.9c-526.4,0-549.3,1.9-599.1,40.2l-49.8,38.3v564.6v564.6l47.9,45.9l45.9,47.9h547.4h549.3L9193.7,2514.5z M2008.3,2030.2c88-82.3,42.1-233.5-84.2-271.8c-95.7-28.7-218.2,101.4-187.6,199.1C1772.9,2070.4,1922.2,2110.6,2008.3,2030.2z M1321.2,1892.4c72.7-38.3,229.7-208.6,245-268c5.7-26.8,7.7-134,3.8-241.2l-5.7-193.3l-126.3-124.4L1309.7,943h-235.4H840.7l-122.5,120.6l-120.6,122.5v239.3v239.3L729.7,1791l132.1,128.2h204.8C1204.4,1919.2,1286.7,1909.6,1321.2,1892.4z M2004.5,1373.7c78.5-76.6,63.2-201-32.5-250.7c-111-57.4-233.5,13.4-233.5,135.9C1738.4,1404.3,1905,1475.2,2004.5,1373.7z M2004.5,722.9c95.7-93.8,45.9-248.8-88-269.9c-155-24.9-245,170.3-124.4,271.8C1860.9,784.2,1945.2,784.2,2004.5,722.9z M3803.7,722.9l47.9-45.9V120v-557l-47.9-45.9l-45.9-47.9h-551.3c-403.9,1.9-558.9,7.7-581.9,24.9c-68.9,53.6-74.6,97.6-74.6,625.9c0,528.3,5.7,572.3,74.6,625.9c23,17.2,178,23,581.9,24.9h551.3L3803.7,722.9z M5602.9,722.9l47.9-45.9V120v-557l-47.9-45.9l-45.9-47.9h-557h-557l-45.9,47.9l-47.9,45.9v557v557l47.9,45.9l45.9,47.9h557h557L5602.9,722.9z M7375.3,745.9c68.9-53.6,74.7-97.6,74.7-625.9c0-528.3-5.7-572.3-74.7-625.9c-22.9-17.2-178-23-581.9-24.9h-551.2l-45.9,47.9l-47.9,45.9v557v557l47.9,45.9l45.9,47.9h551.2C7197.3,768.9,7352.4,763.1,7375.3,745.9z M9199.5,711.4l49.8-59.3V116.2v-535.9l-55.5-55.5l-55.5-55.5h-549.3h-547.4l-45.9,47.9l-47.9,45.9v557v557l47.9,45.9l45.9,47.9h555.1h553.2L9199.5,711.4z M1441.8,472.2l132.1-137.8V120V-94.4l-132.1-137.8l-134-135.9l-193.3-5.7c-120.6-5.7-214.4,1.9-248.8,15.3c-30.6,13.4-103.4,72.7-160.8,134L597.7-111.6V120v231.6l111,116.8C768,531.5,835,590.9,856.1,600.4s132.1,15.3,245,11.5l206.7-3.8L1441.8,472.2z M2004.5,72.1c65.1-63.2,65.1-166.5,0-229.7c-97.6-99.5-266.1-26.8-266.1,114.8S1906.9,171.7,2004.5,72.1z M1973.9-559.5c93.8-47.9,109.1-172.3,30.6-248.8c-97.6-99.5-266.1-26.8-266.1,114.8c0,55.5,13.4,82.3,53.6,116.7C1851.4-523.1,1899.2-519.3,1973.9-559.5z M1437.9-825.6L1564.3-950l5.7-193.3c3.8-107.2,1.9-214.4-3.8-241.2c-15.3-59.3-172.3-229.7-245-268c-34.4-17.2-116.7-26.8-254.6-26.8H861.8L729.7-1551l-132.1,126.3v239.3v239.3l120.6,122.5L840.7-703h233.5h235.4L1437.9-825.6z M3803.7-1076.3l47.9-45.9v-557v-557l-47.9-45.9l-45.9-47.9h-547.4H2661l-55.5,55.5L2550-2219v549.3v547.4l47.9,45.9l45.9,47.9h557h557L3803.7-1076.3z M5602.9-1076.3l47.9-45.9v-551.2c-1.9-403.9-7.7-558.9-24.9-581.9c-53.6-68.9-97.6-74.7-625.9-74.7c-528.3,0-572.3,5.7-625.9,74.7c-17.2,22.9-23,178-24.9,581.9v551.2l47.9,45.9l45.9,47.9h557h557L5602.9-1076.3z M7402.1-1076.3l47.9-45.9v-547.4V-2219l-55.5-55.5L7339-2330h-549.3h-547.4l-45.9,47.9l-47.9,45.9v557v557l47.9,45.9l45.9,47.9h557h557L7402.1-1076.3z M9163.1-1039.9c76.6-30.6,86.1-95.7,86.1-648.9V-2219l-55.5-55.5l-55.5-55.5h-549.3h-547.4l-45.9,47.9l-47.9,45.9v564.6v564.6l49.8,38.3c49.8,38.3,74.7,40.2,593.4,40.2C8887.5-1028.4,9145.8-1034.2,9163.1-1039.9z M1973.9-1210.3c63.2-30.6,78.5-63.2,78.5-153.1c0-126.3-176.1-193.3-264.1-99.5c-80.4,86.1-65.1,206.7,34.4,256.5C1883.9-1175.8,1908.8-1175.8,1973.9-1210.3z M2010.2-1895.5c95.7-88.1,26.8-262.2-105.3-262.2c-88,0-130.2,24.9-158.9,95.7c-32.5,78.5,3.8,168.4,84.2,202.9C1899.2-1830.4,1949-1840,2010.2-1895.5z M1437.9-2127.1l126.3-124.4v-241.2v-241.2l-126.3-124.4l-128.2-122.5h-225.9H858l-130.2,128.2l-130.2,128.3v233.5v231.6l132.1,126.3l132.1,128.2h224h224L1437.9-2127.1z M2008.3-2544.4c86.1-80.4,44-227.8-74.7-269.9c-95.7-34.4-223.9,90-199.1,189.5C1765.2-2504.2,1918.4-2460.2,2008.3-2544.4z M3811.4-2877.4c38.3-49.8,40.2-72.8,40.2-599.1c-1.9-400-7.7-555.1-24.9-578c-53.6-68.9-97.6-74.7-635.5-74.7H2661l-55.5,55.5l-55.5,55.5v549.3v547.4l47.9,45.9l45.9,47.9h564.6h564.6L3811.4-2877.4z M5602.9-2875.5l47.9-45.9v-547.4v-549.3l-55.5-55.5l-55.5-55.5h-535.9h-535.9l-59.3,49.8l-59.3,49.8v553.2v555.1l47.9,45.9l45.9,47.9h557h557L5602.9-2875.5z M7402.1-2875.5l47.9-45.9v-547.4v-549.3l-55.5-55.5l-55.5-55.5h-530.2c-553.2,0-618.2,9.6-648.9,86.1c-5.7,17.2-11.5,275.6-11.5,572.3c0,518.7,1.9,543.6,40.2,593.4l38.3,49.8h564.6h564.6L7402.1-2875.5z M9163.1-2839.1c76.6-30.6,86.1-95.7,86.1-648.9v-530.2l-55.5-55.5l-55.5-55.5H8608c-553.2,0-618.2,9.6-648.9,86.1c-5.7,17.2-11.5,277.5-11.5,580c0,535.9,0,547.4,42.1,591.4l40.2,44h551.2C8883.6-2827.7,9145.8-2833.4,9163.1-2839.1z M2008.3-3195.2c84.2-78.5,44-237.3-70.8-273.7c-59.3-19.1-151.2,24.9-183.7,90C1675.3-3225.8,1882-3076.5,2008.3-3195.2z M1311.6-3327.2c61.3-30.6,202.9-172.3,235.4-231.6c19.1-34.5,26.8-116.8,26.8-256.5v-204.8l-130.2-132.1l-132.1-130.2h-235.4H840.7l-122.5,120.6l-120.6,122.5v239.3v239.3l132.1,126.3l132.1,128.2h204.8C1179.5-3306.2,1288.6-3315.7,1311.6-3327.2z M2004.5-3851.7c47.9-45.9,61.3-124.4,36.4-191.4c-15.3-36.4-105.3-86.1-158.9-86.1c-68.9,0-143.6,82.3-143.6,158.9C1738.4-3823,1903.1-3748.3,2004.5-3851.7z"/></g></g>
</svg>