<?xml version="1.0" encoding="utf-8"?>
<!-- Svg Vector Icons : http://www.onlinewebfonts.com/icon -->
<!DOCTYPE svg PUBLIC "-//W3C//DTD SVG 1.1//EN" "http://www.w3.org/Graphics/SVG/1.1/DTD/svg11.dtd">
<svg version="1.1" xmlns="http://www.w3.org/2000/svg" xmlns:xlink="http://www.w3.org/1999/xlink" x="0px" y="0px" viewBox="0 0 1000 1000" enable-background="new 0 0 1000 1000" xml:space="preserve">
<metadata> Svg Vector Icons : http://www.onlinewebfonts.com/icon </metadata>
<g><path d="M952.6,30.6C893.8,30.6,842.2,49.2,799,86c-36.8,31.3-67,75.1-92.4,133.7c-44.4,102.4-65.7,230.7-86.2,354.7C594.3,731.8,567.3,894.6,500,894.6c-24.3,0-60.5-10.5-94.2-101.6c-26.3-71.2-41.6-166-56.4-257.8C337,457.9,325.2,384.9,307.3,329c-10.5-32.8-22.5-57.5-36.6-75.4c-24.8-31.5-53-38.1-72.4-38.1c-27.9,0-54.2,11.6-76.2,33.6c-17.3,17.3-32.1,40.7-45.4,71.5c-20.1,46.8-36,111.1-47.4,190.9C10.2,644.7,10,775.4,10,780.9h0c0,0.2,0,0.3,0,0.5c0,20.7,16.8,37.4,37.4,37.4c20.7,0,37.4-16.8,37.4-37.4c0-0.5,0-1,0-1.5c0.1-12.6,1.1-136.5,18.6-258.3c10.5-73.2,24.7-131,42.1-171.6c9.6-22.3,29.1-59.6,52.8-59.6c1.7,0,6.2,0,13.7,9.5c8.4,10.7,16.5,28.1,24.2,52c16.2,50.5,27.5,120.8,39.5,195.3c15.3,95.3,31.2,193.8,60.1,271.8c16.7,45.2,36.2,79.2,59.6,103.8c29.4,31,64.7,46.7,104.7,46.7c34.4,0,64.5-13.7,89.5-40.8c19.5-21.2,35.9-50.6,49.9-90c24.2-67.8,39.1-157.3,54.8-252c19.8-119.5,40.3-243.2,81.1-337.2c42.4-97.8,98.4-143.6,176.1-144c0.4,0,0.8,0,1.2,0c20.7,0,37.4-16.7,37.4-37.4C990,47.4,973.3,30.6,952.6,30.6z"/></g>
</svg>