<?xml version="1.0" encoding="utf-8"?>
<!-- Svg Vector Icons : http://www.onlinewebfonts.com/icon -->
<!DOCTYPE svg PUBLIC "-//W3C//DTD SVG 1.1//EN" "http://www.w3.org/Graphics/SVG/1.1/DTD/svg11.dtd">
<svg version="1.1" xmlns="http://www.w3.org/2000/svg" xmlns:xlink="http://www.w3.org/1999/xlink" x="0px" y="0px" viewBox="0 0 1000 1000" enable-background="new 0 0 1000 1000" xml:space="preserve">
<metadata> Svg Vector Icons : http://www.onlinewebfonts.com/icon </metadata>
<g><g transform="translate(0.000000,512.000000) scale(0.100000,-0.100000)"><path d="M8187.6,5021.6c-620-88.3-1028.8-220.7-1641.1-525.9c-591.2-295.6-1134.4-654.5-1700.6-1126.7C3254.6,2044.6,2133.7,361.2,1957.1-965.2c-36.5-282.2,1.9-520.2,88.3-554.7c103.7-38.4,224.6,15.4,708.3,316.7C4383.3-182,7314.3,2209.6,7314.3,2520.6c0,128.6-318.6-63.3-2512.6-1512.5c-435.7-287.9-800.4-524-810-524c-99.8,0,49.9,257.2,406.9,700.6c696.7,867.6,1764,1744.8,2685.3,2207.4c621.9,312.9,1278.3,479.9,1506.8,383.9c90.2-36.5,111.3-99.8,99.8-287.9c-51.8-767.8-610.4-1848.4-1483.7-2869.6c-263-309-796.6-833.1-1097.9-1084.5C5176-1237.7,4316.1-1635.1,3485-1677.3c-145.9-7.7-270.6-23-301.4-38.4c-92.1-48-838.8-700.6-1520.2-1332.1C1195.1-3481.6,600-4070.8,396.6-4305C56.8-4692.8,3.1-4877,266-4748.4c266.8,130.5,1107.5,739,2232.3,1616.2l376.2,293.7l122.8-38.4c199.6-63.4,514.4-86.4,788.9-59.5c955.9,96,2025,625.7,3144.1,1558.6c443.4,370.4,1074.9,1025,1481.8,1535.6c733.2,923.3,1255.3,1932.9,1439.6,2796.7c59.5,276.4,65.3,881,9.6,1080.7c-134.4,491.4-458.8,813.8-946.3,942.5C8767.3,5015.9,8331.6,5042.8,8187.6,5021.6z"/></g></g>
</svg>