<?xml version="1.0" encoding="utf-8"?>
<!-- Svg Vector Icons : http://www.onlinewebfonts.com/icon -->
<!DOCTYPE svg PUBLIC "-//W3C//DTD SVG 1.1//EN" "http://www.w3.org/Graphics/SVG/1.1/DTD/svg11.dtd">
<svg version="1.1" xmlns="http://www.w3.org/2000/svg" xmlns:xlink="http://www.w3.org/1999/xlink" x="0px" y="0px" viewBox="0 0 1000 1000" enable-background="new 0 0 1000 1000" xml:space="preserve">
<metadata> Svg Vector Icons : http://www.onlinewebfonts.com/icon </metadata>
<g><g><g><path d="M249.2,17.9H47.4C26.7,17.9,10,34.6,10,55.3v201.8c0,20.6,16.7,37.4,37.4,37.4h201.8c20.7,0,37.4-16.8,37.4-37.4V55.3C286.6,34.6,269.9,17.9,249.2,17.9z"/><path d="M596.9,17.9H395.1c-20.6,0-37.4,16.7-37.4,37.4v201.8c0,20.6,16.8,37.4,37.4,37.4h201.8c20.7,0,37.4-16.8,37.4-37.4V55.3C634.4,34.6,617.6,17.9,596.9,17.9z"/><path d="M952.6,17.9H750.8c-20.7,0-37.4,16.7-37.4,37.4v201.8c0,20.6,16.7,37.4,37.4,37.4h201.8c20.7,0,37.4-16.8,37.4-37.4V55.3C990,34.7,973.3,17.9,952.6,17.9z"/><path d="M249.2,357.7H47.4c-20.7,0-37.4,16.7-37.4,37.4v201.8c0,20.7,16.7,37.4,37.4,37.4h201.8c20.7,0,37.4-16.7,37.4-37.4V395.1C286.6,374.5,269.9,357.7,249.2,357.7z"/><path d="M596.9,357.7H395.1c-20.6,0-37.4,16.7-37.4,37.4v201.8c0,20.7,16.8,37.4,37.4,37.4h201.8c20.7,0,37.4-16.7,37.4-37.4V395.1C634.4,374.5,617.6,357.7,596.9,357.7z"/><path d="M952.6,357.7H750.8c-20.7,0-37.4,16.7-37.4,37.4v201.8c0,20.7,16.7,37.4,37.4,37.4h201.8c20.7,0,37.4-16.7,37.4-37.4V395.1C990,374.5,973.3,357.7,952.6,357.7z"/><path d="M249.2,705.5H47.4c-20.7,0-37.4,16.8-37.4,37.4v201.8c0,20.7,16.7,37.4,37.4,37.4h201.8c20.7,0,37.4-16.8,37.4-37.4V742.9C286.6,722.2,269.9,705.5,249.2,705.5z"/><path d="M596.9,705.5H395.1c-20.6,0-37.4,16.8-37.4,37.4v201.8c0,20.7,16.8,37.4,37.4,37.4h201.8c20.7,0,37.4-16.8,37.4-37.4V742.9C634.4,722.2,617.6,705.5,596.9,705.5z"/><path d="M952.6,705.5H750.8c-20.7,0-37.4,16.8-37.4,37.4v201.8c0,20.7,16.7,37.4,37.4,37.4h201.8c20.7,0,37.4-16.8,37.4-37.4V742.9C990,722.2,973.3,705.5,952.6,705.5z"/></g></g><g></g><g></g><g></g><g></g><g></g><g></g><g></g><g></g><g></g><g></g><g></g><g></g><g></g><g></g><g></g></g>
</svg>