<?xml version="1.0" encoding="utf-8"?>
<!-- Svg Vector Icons : http://www.onlinewebfonts.com/icon -->
<!DOCTYPE svg PUBLIC "-//W3C//DTD SVG 1.1//EN" "http://www.w3.org/Graphics/SVG/1.1/DTD/svg11.dtd">
<svg version="1.1" xmlns="http://www.w3.org/2000/svg" xmlns:xlink="http://www.w3.org/1999/xlink" x="0px" y="0px" viewBox="0 0 1000 1000" enable-background="new 0 0 1000 1000" xml:space="preserve">
<metadata> Svg Vector Icons : http://www.onlinewebfonts.com/icon </metadata>
<g><path d="M500,10c-124.5,0-237.9,47.1-324.5,123.8l49,33c75-61.6,171-98.6,275.5-98.6c239.1,0,433.6,193.7,433.6,431.8c0,238.1-194.5,431.8-433.6,431.8C260.9,931.8,66.3,738.1,66.3,500c0-119.1,48.7-227.1,127.3-305.3l-26.2-53.5C70.9,230.7,10,358.2,10,500c0,270.2,219.8,490,490,490s490-219.8,490-490C990,229.8,770.2,10,500,10z"/><path d="M114.6,500c0,106.5,50.6,202.5,107,270.9l28.2-21.3l71.4-90.5l-16.4-30.6l-83,57.9c-36.2-53.2-56.3-117.2-56.3-186.3c0-79.6,28.2-152.5,74.9-209.7l-21.8-44.5C154.8,312.7,114.6,401.8,114.6,500z"/><path d="M248.5,217.6l-17.9-12l22.6,46l7.8,15.9l0,0l125.6,256.2c3.9,17.7,11.6,33.1,22.9,46c19.9,22.8,48.6,35.8,78.8,35.8h0c25.2,0,49.5-9.1,68.5-25.6c21.2-18.4,33.9-44,35.7-71.9c1.9-27.9-7.1-54.8-25.5-75.9c-11.5-13.1-26-22.9-41.8-28.4L287,243.6l0,0L248.5,217.6L248.5,217.6z"/><path d="M687.8,630.8l-6.7,31.6l76.1,85.2l28.2,23.2c56.4-68.4,103.5-164.3,103.5-270.9c0-207.4-181-375.5-388.8-375.5c-84.2,0-163.1,27.9-227.6,74.5l39.1,26.3c53.1-36.1,117.1-57.4,186-57.8c62.3,0.4,122.1,18,174.1,48.1C768.1,273.8,833,379.2,833,500c0,68.6-20.7,132.2-56.5,185.1L687.8,630.8z"/></g>
</svg>