<?xml version="1.0" encoding="utf-8"?>
<!-- Svg Vector Icons : http://www.onlinewebfonts.com/icon -->
<!DOCTYPE svg PUBLIC "-//W3C//DTD SVG 1.1//EN" "http://www.w3.org/Graphics/SVG/1.1/DTD/svg11.dtd">
<svg version="1.1" xmlns="http://www.w3.org/2000/svg" xmlns:xlink="http://www.w3.org/1999/xlink" x="0px" y="0px" viewBox="0 0 1000 1000" enable-background="new 0 0 1000 1000" xml:space="preserve">
<metadata> Svg Vector Icons : http://www.onlinewebfonts.com/icon </metadata>
<g><path d="M397.2,531.6c-18.6,20.5-23.2,35.3-47.7,73.9c15.8,11,46.1,36.5,67.2,80.3c42-24.1,61.6-27.8,83.9-46.5c145.3-122.4,501.4-561.3,489.2-574C976.8,51.7,525.2,391.2,397.2,531.6z M307.5,639.5c-63.1-11.2-125.5,28.8-167.1,128.5C98.8,867.8,24.4,907.8,10,905.3c77.6,28.1,314.4,99.9,373.2-173.5C358.2,666.2,307.5,639.5,307.5,639.5z"/></g>
</svg>