<?xml version="1.0" encoding="utf-8"?>
<!-- Svg Vector Icons : http://www.onlinewebfonts.com/icon -->
<!DOCTYPE svg PUBLIC "-//W3C//DTD SVG 1.1//EN" "http://www.w3.org/Graphics/SVG/1.1/DTD/svg11.dtd">
<svg version="1.1" xmlns="http://www.w3.org/2000/svg" xmlns:xlink="http://www.w3.org/1999/xlink" x="0px" y="0px" viewBox="0 0 1000 1000" enable-background="new 0 0 1000 1000" xml:space="preserve">
<metadata> Svg Vector Icons : http://www.onlinewebfonts.com/icon </metadata>
<g><path d="M319.5,22.4c-4-0.4-1.5-4.4,7.6-12c9.1-7.6,20.7-10.7,34.9-9.3c14.2,1.5,24.2,4.7,30,9.8c6.6,5.8,15.5,12.6,26.8,20.2c11.3,7.6,19.1,12.2,23.5,13.6c4.4,1.5,10.2,12.7,17.5,33.9c11.6,33.5,8.7,50.2-8.7,50.2c-5.8,0-9.8,1.8-12,5.5c-1.5,2.9-14.2,10-38.2,21.3c-24,11.3-38.2,16.9-42.6,16.9c-6.6,0-24.8,11.8-54.6,35.5c-29.9,23.7-47.3,39.9-52.4,48.6c-6.6,12.4-12.6,20-18,22.9c-5.5,2.9-7.3,6-5.5,9.3c1.8,3.3,1.1,6.9-2.2,10.9c-3.3,4-6,11.1-8.2,21.3c-2.2,10.2-0.7,15.3,4.4,15.3c4.4,0,12.4-4,24-12c11.6-8,18.7-12,21.3-12c2.5,0,16.9-8.4,43.1-25.1c18.2-12.4,30.6-19.8,37.1-22.4c6.6-2.5,15.6-3.1,27.3-1.6c38.6,2.2,65.1,10.2,79.7,24c5.1,5.1,8.4,9.3,9.8,12.6c1.5,3.3,1.5,8.9,0,16.9c-2.2,11.7-4,37.5-5.5,77.5c-2.9,66.3-5.8,101.2-8.7,104.8c-2.2,2.9-1.8,6.7,1.1,11.5c2.9,4.7,10.5,0,22.9-14.2c12.4-14.2,21.8-25.7,28.4-34.4c26.2-36.4,48.4-64.4,66.6-84.1c8.7-9.5,17.1-22.4,25.1-38.8c8-16.4,11.3-27.1,9.8-32.2c-2.2-5.8-1.8-8.7,1.1-8.7c2.9,0,6.6-0.7,10.9-2.2c3.6-1.5,7.5,1.5,11.5,8.7c4,7.3,7.1,16.8,9.3,28.4c2.2,11.7,2.9,22.9,2.2,33.9c-1.5,16.8-7.6,36.8-18.6,60.1c-10.9,23.3-22.6,41.1-34.9,53.5c-40,40.8-61.9,59.7-65.5,56.8c-1.5-1.5-4.4-0.5-8.7,2.7c-4.4,3.3-6.6,6.4-6.6,9.3c0,2.9,1.6,4.4,4.9,4.4c3.3,0,11.6,4.9,25.1,14.7c13.5,9.8,22,14.7,25.7,14.7c3.6,0,7.3,1.8,10.9,5.5c3.6,3.7,9.1,6,16.4,7.1c7.3,1.1,12,3.5,14.2,7.1c2.2,3.7,6.7,4.6,13.7,2.7c6.9-1.8,11.1-1.3,12.6,1.6c2.2,4.4,11.1,9.5,26.8,15.3c15.6,5.8,31.5,10.2,47.5,13.1c20.4,3.6,34.8,8.6,43.1,14.7c8.4,6.2,20.4,11.1,36,14.7c15.6,3.7,28,7.8,37.1,12.6c9.1,4.7,16,6.2,20.7,4.4c4.7-1.8,8.2-1.1,10.4,2.2c2.2,3.3,9.5,4.9,21.8,4.9c12.4,0,19.8,2,22.4,6c2.5,4,14.7,11.5,36.6,22.4c18.2,8.7,33.5,19.8,45.9,33.3c12.4,13.5,16.4,23.5,12,30c-2.9,5.1-10.9,9.3-24,12.6c-13.1,3.3-26.2,3.8-39.3,1.6c-48-7.3-79-14.6-92.8-21.8c-8.7-4.4-15.7-6.6-20.7-6.6c-5.1,0-12.2-3.3-21.3-9.8c-9.1-6.6-17.8-10.4-26.2-11.5c-8.4-1.1-14.7-3.1-19.1-6c-4.4-3.6-28.8-15.3-73.2-34.9c-22.6-10.2-38-17.8-46.4-22.9c-8.4-5.1-17.5-9.8-27.3-14.2s-21.7-13.1-35.5-26.2c-12.4-10.2-29.9-23.8-52.4-41c-22.6-17.1-37.1-27.8-43.7-32.2c-6.6-2.9-11.3-3.6-14.2-2.2c-2.9,1.5-4.6,55.9-4.9,163.3c-0.4,107.4,0.7,165.8,3.3,175.3c2.5,9.5,3.1,24,1.6,43.7c-1.5,13.1-3.1,22-4.9,26.8c-1.8,4.7-5.6,9.3-11.5,13.7l-14.2,10.9l-24-10.9c-16-7.3-25.8-13.5-29.5-18.6c-3.7-5.1-11.7-12.2-24-21.3c-12.4-9.1-18.6-16-18.6-20.7c0-4.7-3.1-7.1-9.3-7.1c-6.2,0-9.8-3.5-10.9-10.4c-1.1-6.9-7.6-13.5-19.7-19.7c-12-6.2-18-11.5-18-15.8c0-3.7-6.2-12.2-18.6-25.7c-12.4-13.5-20.2-20.2-23.5-20.2s-6-3.3-8.2-9.8c-2.2-6.6-8-4.7-17.5,5.5c-9.5,10.2-15.3,19.5-17.5,27.8c-2.2,8.4-7.8,18.4-16.9,30c-9.1,11.6-16.4,22.4-21.8,32.2c-5.5,9.8-18.9,23.8-40.4,42c-21.5,18.2-37.1,27.3-47,27.3c-9.8,0-14.7-1.6-14.7-4.9c0-3.3-4.6-11.7-13.6-25.1c-9.1-13.5-14.7-32.2-16.9-56.2c-1.5-18.9-1.3-32.4,0.5-40.4c1.8-8,7.1-16.4,15.8-25.1c5.8-6.6,8.7-11.5,8.7-14.7c0-3.3,1.4-2.5,4.4,2.2c2.9,4.7,6.9,4.9,12,0.5c5.1-4.4,7.6-5.8,7.6-4.4c0,1.5-4,6.6-12,15.3c-5.1,5.8-8,9.8-8.7,12c-0.7,2.2,0.4,4.7,3.3,7.6c8.7,8.7,13.1,9.5,13.1,2.2c0-3.6,5.5-10.9,16.4-21.8C83,820.1,90.3,814.7,94,814.7c3.6,0,5.5-1.5,5.5-4.4c0-2.9,4.7-9.8,14.2-20.7c10.2-10.2,17.3-20.2,21.3-30c4-9.8,3.8-16.9-0.5-21.3c-4.4-4.4-6.6-7.6-6.6-9.8c0-1.5,1.6-4.4,4.9-8.7c3.3-4.4,6.7-8.2,10.4-11.5c3.6-3.3,5.8-4.5,6.6-3.8c1.5,1.5-1.1,5.8-7.6,13.1c-6.6,7.3-9.3,11.5-8.2,12.6c1.1,1.1,3.6-0.2,7.6-3.8c4-3.6,7.8-8.2,11.5-13.7c3.6-5.5,5.8-10,6.6-13.6c0-5.8,9.3-21.8,27.8-48c18.6-26.2,27.8-40.8,27.8-43.7c0-2.9,2.2-6.2,6.6-9.8c4.4-3.6,8-9.8,10.9-18.6c2.2-6.6,2.5-9.5,1.1-8.7c-2.9,0-17.1,7.6-42.6,22.9c-48,28.4-87,40.8-116.8,37.1c-12.4-2.2-18.6-0.7-18.6,4.4c0,3.7-1.5,5.6-4.4,6c-2.9,0.4-5.8-1.3-8.7-4.9c-2.9-5.8-2.6-11.8,1.1-18c3.6-6.2,9.1-10,16.4-11.5c9.5-2.2,20.4-7.1,32.8-14.7c12.4-7.6,29.7-17.6,51.9-30c22.2-12.4,35.7-20.9,40.4-25.7c4.7-4.7,12.4-9.3,22.9-13.6c10.5-4.4,20.7-10.7,30.6-19.1c9.8-8.4,23.1-12.2,39.9-11.5c14.6,0.7,26,4,34.4,9.8c8.4,5.8,12.6,13.1,12.6,21.8c0,9.5-5.1,29.9-15.3,61.1c-10.2,31.3-17.5,48.4-21.8,51.3c-2.2,1.5-6.2,10.6-12,27.3c-5.8,16.8-8.7,27.7-8.7,32.8c0,4.4-1.1,7.3-3.3,8.7c-2.2,1.5-8,10.9-17.5,28.4c-9.5,17.5-16.4,28.4-20.7,32.8c-3.7,3.7-4.9,8.9-3.8,15.8c1.1,6.9,4.2,11.8,9.3,14.7c3.6,2.9,11.3,6,22.9,9.3c11.6,3.3,22,7.3,31.1,12c9.1,4.7,16.2,7.1,21.3,7.1c5.1,0,9.8,1.8,14.2,5.5c2.2,2.9,3.6,4.2,4.4,3.8c0.7-0.4,0.4-2.4-1.1-6c-1.5-3.6-1.8-5.8-1.1-6.6c0.7-0.7,2.2-0.7,4.4,0c5.1,1.5,8.4,0.4,9.8-3.3c0.7-2.2,1.1-2.2,1.1,0c0.7,1.5,0.7,2.9,0,4.4c-0.7,6.6,1.8,13.5,7.6,20.7c5.8,8.7,9.5,7.3,10.9-4.4c1.5-9.5,2.2-29.8,2.2-61.2c0.7-85.2-0.7-128.9-4.4-131c-1.5,0-3.3,0.7-5.5,2.2c-1.5,0.7-2.6,0-3.3-2.2c0-1.5,0.4-3.6,1.1-6.6c1.5-7.3,3.1-49,4.9-125c1.8-76.1,3.8-121.4,6-136c2.2-18.2,1.8-28.7-1.1-31.7c-2.9-2.9-9.8,1.1-20.7,12c-10.9,11.7-23.9,23.3-38.8,34.9c-14.9,11.7-25.7,18.9-32.2,21.8c-7.3,2.9-19.3,4-36,3.3c-5.8,0-15.3-6.7-28.4-20.2c-13.1-13.5-19.7-22.7-19.7-27.8c0-4.4-2.6-11.3-7.6-20.7c-7.3-14.6-8.2-27.3-2.7-38.2c5.5-10.9,20.6-26.6,45.3-47c29.8-24,46.4-37.8,49.7-41.5c3.3-3.6,11.8-11.3,25.7-22.9c40-32,66.2-59.7,78.6-83c9.5-18.2,12.4-36,8.7-53.5c-3.7-17.5-13.1-30.6-28.4-39.3c-13.1-8-20.6-10.4-22.4-7.1C326.4,21.3,323.4,22.8,319.5,22.4z M66.7,801.6c6.6-7.3,10.2-10.9,10.9-10.9c3.6,0,0.7,4.4-8.7,13.1l-10.9,8.7L66.7,801.6z"/></g>
</svg>