<?xml version="1.0" encoding="utf-8"?>
<!-- Generator: Adobe Illustrator 25.2.1, SVG Export Plug-In . SVG Version: 6.00 Build 0)  -->
<svg version="1.1" id="Ebene_1" xmlns="http://www.w3.org/2000/svg" xmlns:xlink="http://www.w3.org/1999/xlink" x="0px" y="0px"
	 viewBox="0 0 102.5 102.5" style="enable-background:new 0 0 102.5 102.5;" xml:space="preserve">
<style type="text/css">
	.st0{fill-opacity:0;stroke:#000000;stroke-width:9;}
	.st1{fill:none;}
</style>
<g id="Layer_1" transform="translate(-14.306, -13.138)">
	<path class="st0" d="M65.6,107.1C42.1,107.1,23,88,23,64.5c0-23.5,19.1-42.6,42.6-42.6c23.5,0,42.6,19.1,42.6,42.6
		C108.3,88,89.2,107.1,65.6,107.1z"/>
	<path class="st0" d="M65.6,87.8c-12.9,0-23.3-10.4-23.3-23.3c0-12.9,10.4-23.3,23.3-23.3C78.5,41.2,89,51.6,89,64.5
		C89,77.3,78.5,87.8,65.6,87.8z"/>
</g>
<path class="st1" d="M0,0h102v102H0V0z"/>
</svg>
