<?xml version="1.0" encoding="utf-8"?>
<!-- Svg Vector Icons : http://www.onlinewebfonts.com/icon -->
<!DOCTYPE svg PUBLIC "-//W3C//DTD SVG 1.1//EN" "http://www.w3.org/Graphics/SVG/1.1/DTD/svg11.dtd">
<svg version="1.1" xmlns="http://www.w3.org/2000/svg" xmlns:xlink="http://www.w3.org/1999/xlink" x="0px" y="0px" viewBox="0 0 1000 1000" enable-background="new 0 0 1000 1000" xml:space="preserve">
<metadata> Svg Vector Icons : http://www.onlinewebfonts.com/icon </metadata>
<g><path d="M685.7,613.5c-10.3,25.8-15.5,46.4-15.5,61.9c0,20.6,10.3,41.3,30.9,41.3c87.7,0,185.7-159.9,185.7-288.8c0-190.8-170.2-319.8-361.1-319.8C293.7,97.7,113.2,293.7,113.2,505.2c0,221.8,180.5,397.2,417.8,397.2c128.9,0,263.1-67.1,330.1-144.4h103.2C876.5,902.3,706.3,990,520.6,990C236.9,990,10,778.5,10,494.8C10,226.6,242.1,10,520.6,10C778.5,10,990,180.2,990,412.3c0,226.9-196,376.5-309.5,376.5c-61.9,0-98-30.9-103.2-87.7h-5.2c-41.3,41.3-82.5,87.7-165.1,87.7c-118.6,0-196-92.8-196-206.3c5.2-175.4,128.9-366.2,319.8-366.2c61.9,0,128.9,30.9,154.7,103.2h5.2l25.8-82.5h87.7L685.7,613.5z M530.9,314.3c-118.6,0-206.3,149.6-206.3,263.1c0,77.4,46.4,118.6,113.5,118.6c103.2,0,196-159.9,196-268.2C628.9,360.7,598,314.3,530.9,314.3z"/></g>
</svg>