<?xml version="1.0" encoding="utf-8"?>
<!-- Svg Vector Icons : http://www.onlinewebfonts.com/icon -->
<!DOCTYPE svg PUBLIC "-//W3C//DTD SVG 1.1//EN" "http://www.w3.org/Graphics/SVG/1.1/DTD/svg11.dtd">
<svg version="1.1" xmlns="http://www.w3.org/2000/svg" xmlns:xlink="http://www.w3.org/1999/xlink" x="0px" y="0px" viewBox="0 0 1000 1000" enable-background="new 0 0 1000 1000" xml:space="preserve">
<metadata> Svg Vector Icons : http://www.onlinewebfonts.com/icon </metadata>
<g><path d="M745,721.1l80.4-57.5v285.2H10V152.6h294.7L212.9,233H90.4v633.5H745V721.1L745,721.1z M237.8,615.8c-3.8,5.1-8.6,7-14.4,5.7c-5.7-1.2-8.6-5.1-8.6-11.5c14-68.9,31.6-126.6,52.7-173.2c21.1-46.6,48.5-87.4,82.3-122.5c33.8-35.1,76.6-60.6,128.2-76.6c51.7-15.9,113.9-23.9,186.7-23.9V51.2L990,336.4L664.6,621.5V458.8c-43.4,0-80.7,1.3-112,3.8c-31.3,2.6-67,8.9-107.2,19.2c-40.2,10.2-77.8,26.5-112.9,48.8C297.4,553,265.8,581.3,237.8,615.8z"/></g>
</svg>