<?xml version="1.0" encoding="utf-8"?>
<!-- Generator: Adobe Illustrator 25.2.1, SVG Export Plug-In . SVG Version: 6.00 Build 0)  -->
<svg version="1.1" id="Ebene_1" xmlns="http://www.w3.org/2000/svg" xmlns:xlink="http://www.w3.org/1999/xlink" x="0px" y="0px"
	 viewBox="0 0 128 128" style="enable-background:new 0 0 128 128;" xml:space="preserve">
<style type="text/css">
	.st0{fill-opacity:0;stroke:#000000;stroke-width:7;}
	.st1{fill-opacity:0;stroke:#000000;stroke-width:11;}
	.st2{fill:none;}
</style>
<g>
	<path d="M64.7,7.1L64.7,7.1c10.4,0,18.9,8.1,18.9,18.1v36.1c0,10-8.5,18.1-18.9,18.1l0,0c-10.4,0-18.9-8.1-18.9-18.1V25.1
		C45.8,15.2,54.3,7.1,64.7,7.1z"/>
	<path class="st0" d="M64.7,88.3c-15.4,0-27.9-12.5-27.9-27.9"/>
	<path class="st0" d="M92.6,60.4c0,15.4-12.5,27.9-27.9,27.9"/>
	<path class="st1" d="M64.7,91v22.7"/>
</g>
<path class="st0" d="M44.2,113.5h41"/>
<path class="st2" d="M0,0h128v128H0V0z"/>
</svg>
