<?xml version="1.0" encoding="utf-8"?>
<!-- Svg Vector Icons : http://www.onlinewebfonts.com/icon -->
<!DOCTYPE svg PUBLIC "-//W3C//DTD SVG 1.1//EN" "http://www.w3.org/Graphics/SVG/1.1/DTD/svg11.dtd">
<svg version="1.1" xmlns="http://www.w3.org/2000/svg" xmlns:xlink="http://www.w3.org/1999/xlink" x="0px" y="0px" viewBox="0 0 1000 1000" enable-background="new 0 0 1000 1000" xml:space="preserve">
<metadata> Svg Vector Icons : http://www.onlinewebfonts.com/icon </metadata>
<g><g><path d="M501,745c-126.6,0-250.4-18.5-369.5-55.2l19.4-58.1C263.7,666.3,381,683.7,501,683.7c15.6,0,31.2-0.3,46.8-0.9c4-74.2,13.5-121.6,13.5-121.6s-61.2,0-183.7,0c0-167.5,57.2-315.9,119.6-427.8H10v733.1h541.8c-4.5-43.7-6-85-5.9-122.3C531,744.7,516,745,501,745z M193.7,255H255v122.5h-61.2V255z M990,133.5H581.2c-1.9,3.1-3.7,6.1-5.6,9.3c-36.8,61.8-66,125.1-86.8,188.3c-17.4,52.8-29,105.5-34.6,157.5h196.1l-17.7,86.9c-0.3,1.5-7.8,41-11.7,102.3c78.3-7.8,155.3-23.2,230.2-46.1l19.4,58.1c-81.9,25.2-166,41.9-251.7,49.8c0,4.2-0.1,8.4,0,12.7c0.1,38.9,2.2,77.1,6.3,114.2h365L990,133.5L990,133.5z M806.2,377.5H745V255h61.3L806.2,377.5L806.2,377.5z M572,990h74.8c-5.2-20.9-9.7-42.3-13.5-64.2c-3.3-19.4-6.1-39.2-8.3-59.3h-73.1C555.9,906.1,562.3,947.7,572,990z M668.9,10h-92.3C552,43.4,524,85,497.1,133.5h84.2C613.4,80.5,645.5,38.3,668.9,10z"/></g><g></g><g></g><g></g><g></g><g></g><g></g><g></g><g></g><g></g><g></g><g></g><g></g><g></g><g></g><g></g></g>
</svg>