<?xml version="1.0" encoding="utf-8"?>
<!-- Generator: Adobe Illustrator 25.2.1, SVG Export Plug-In . SVG Version: 6.00 Build 0)  -->
<svg version="1.1" id="Ebene_1" xmlns="http://www.w3.org/2000/svg" xmlns:xlink="http://www.w3.org/1999/xlink" x="0px" y="0px"
	 viewBox="0 0 1000 1000" style="enable-background:new 0 0 1000 1000;" xml:space="preserve">
<style type="text/css">
	.st0{fill:none;}
</style>
<g>
	<path d="M734.9,823.5c-19.9,8.8-41.3,13.2-64,13.2c-25.1,0-45.6-3.7-61.5-11.2s-30.2-19.8-42.7-37.1s-21-41.3-25.6-71.9
		c-4.6-30.6-6.8-22-6.8-73.6V415.4h220.8V207.1H534.3V10H358.1c-6.3,48.4-12.2,85.2-17.9,110.6c-5.7,25.2-13.5,46.3-23.5,63.1
		c-9.9,16.7-23.8,30.4-41.4,41.1c-17.7,10.6-40.7,18.1-69.1,22.4v168.3h126.3v315.4c0,86.8,17.9,150.5,53.8,191.1
		c35.8,40.7,91.6,49.3,163.9,61.1c42.4,6.9,72.4,9.4,112.2,4.4c49-6.2,100.1-19.1,129.5-28.4l1.9-173.3
		C774.5,802.1,754.8,814.8,734.9,823.5z"/>
</g>
<path class="st0" d="M0,0h1000v1000H0V0z"/>
</svg>
