<?xml version="1.0" encoding="utf-8"?>
<!-- Svg Vector Icons : http://www.onlinewebfonts.com/icon -->
<!DOCTYPE svg PUBLIC "-//W3C//DTD SVG 1.1//EN" "http://www.w3.org/Graphics/SVG/1.1/DTD/svg11.dtd">
<svg version="1.1" xmlns="http://www.w3.org/2000/svg" xmlns:xlink="http://www.w3.org/1999/xlink" x="0px" y="0px" viewBox="0 0 1000 1000" enable-background="new 0 0 1000 1000" xml:space="preserve">
<metadata> Svg Vector Icons : http://www.onlinewebfonts.com/icon </metadata>
<g><path d="M236.7,197.7L10,790.9h83.1l65.4-180.1h248.2l69.3,180.1h88.1L322.4,197.7H236.7z M181.3,547.9L246.7,374c13.8-37.8,23.9-75.5,31.5-113.3c8.8,31.5,22.7,73,41.5,123.4l61.7,163.8H181.3z M969.8,739.3c-2.5-17.6-5-60.5-5-128.5v-97c0-32.8-1.2-54.2-3.7-66.8c-3.7-20.2-11.3-36.5-22.7-49.1C927,385.3,910.7,374,888,365.1c-22.7-8.8-52.9-12.6-89.4-12.6s-69.3,5-97,15.1c-27.7,10.1-49.1,23.9-64.2,42.9c-15.1,18.9-25.2,42.9-31.5,74.3l71.8,10.1c7.6-30.3,20.2-51.6,36.5-64.2c16.3-12.6,41.5-17.6,75.5-17.6c36.5,0,64.2,8.8,83.1,25.2c13.8,12.6,20.2,32.8,20.2,63c0,2.5,0,8.8,0,18.9c-27.7,10.1-70.5,17.6-129.8,25.2c-28.9,3.7-50.4,7.6-64.2,11.3c-18.9,5-36.5,13.8-52.9,23.9c-15.1,10.1-27.7,23.9-37.8,41.5c-10.1,17.6-13.8,36.5-13.8,58c0,35.3,12.6,65.4,37.8,88.1c25.2,22.7,61.7,34,108.3,34c28.9,0,55.5-5,80.6-13.8c25.2-8.8,50.4-25.2,78.2-49.1c2.5,20.2,7.6,37.8,15.1,52.9H990C979.9,774.6,973.7,757,969.8,739.3z M891.8,602.1c0,31.5-3.7,56.7-11.3,73c-10.1,21.4-26.4,37.8-47.9,50.4c-21.4,12.6-46.6,18.9-74.3,18.9c-27.7,0-50.4-6.4-64.2-18.9c-15.1-12.6-21.4-28.9-21.4-49.1c0-12.6,3.7-23.9,10.1-34c6.4-10.1,16.3-18.9,28.9-23.9c12.6-5,34-10.1,63-15.1c52.9-7.6,92-16.3,118.4-27.7L891.8,602.1L891.8,602.1z"/></g>
</svg>