<?xml version="1.0" encoding="utf-8"?>
<!-- Svg Vector Icons : http://www.onlinewebfonts.com/icon -->
<!DOCTYPE svg PUBLIC "-//W3C//DTD SVG 1.1//EN" "http://www.w3.org/Graphics/SVG/1.1/DTD/svg11.dtd">
<svg version="1.1" xmlns="http://www.w3.org/2000/svg" xmlns:xlink="http://www.w3.org/1999/xlink" x="0px" y="0px" viewBox="0 0 1000 1000" enable-background="new 0 0 1000 1000" xml:space="preserve">
<metadata> Svg Vector Icons : http://www.onlinewebfonts.com/icon </metadata>
<g><path d="M524.3,416.8c40.6-8.1,81.1,32.5,81.1,73c0,56.8-56.8,89.3-105.5,56.8c-32.5-24.3-40.6-89.3-8.1-113.6C500,424.9,516.2,416.8,524.3,416.8z"/><path d="M662.3,424.9c40.6,0,48.7,89.3,0,81.1c-16.2,0-32.5-32.5-32.5-56.8C638,433,646.1,424.9,662.3,424.9z"/><path d="M743.4,424.9c48.7-8.1,48.7,81.1,0,81.1c-24.3,0-32.5-40.6-24.3-64.9C719.1,433,735.3,433,743.4,424.9z"/><path d="M816.5,457.4c16.2,0,32.5,8.1,32.5,32.5c0,16.2-16.2,32.5-24.3,32.5c-16.2,8.1-40.6,0-40.6-24.3C784,481.7,800.2,465.5,816.5,457.4z"/><path d="M881.4,514.2c16.2,0,24.3,8.1,24.3,24.3c8.1,40.6-56.8,56.8-56.8,16.2C848.9,530.4,857.1,514.2,881.4,514.2z"/><path d="M694.8,522.3c56.8-8.1,113.6,16.2,146.1,40.6c48.7,40.6,56.8,138,40.6,227.2c-8.1,24.3-8.1,48.7-16.2,73c-16.2,48.7-40.6,97.4-73,113.6c-40.6,24.3-113.6,16.2-113.6-32.5c0-24.3,16.2-48.7,24.3-64.9c16.2-32.5,40.6-64.9,24.3-105.5c-8.1-24.3-40.6-40.6-73-48.7c-16.2,0-24.3,0-40.6-8.1c-24.3-16.2-32.5-40.6-40.6-64.9c0-40.6,16.2-81.1,40.6-105.5C638,530.4,662.3,522.3,694.8,522.3z"/><path d="M475.7,11c-40.6-8.1-81.1,32.5-81.1,73c0,56.8,56.8,89.3,105.5,56.8c32.5-24.3,40.6-89.3,8.1-113.6C500,19.2,483.8,11,475.7,11z"/><path d="M337.7,19.2c-40.6,0-48.7,89.3,0,81.1c16.2,0,32.5-32.5,32.5-56.8C362,27.3,353.9,19.2,337.7,19.2z"/><path d="M256.6,19.2c-48.7-8.1-48.7,81.1,0,81.1c24.3,0,32.5-40.6,24.3-64.9C280.9,27.3,264.7,19.2,256.6,19.2z"/><path d="M183.5,51.6c-16.2,0-32.5,8.1-32.5,32.5c0,16.2,16.2,32.5,24.3,32.5c16.2,8.1,40.6,0,40.6-24.3C216,76,199.8,51.6,183.5,51.6z"/><path d="M118.6,108.4c-8.1,0-24.3,8.1-24.3,16.2c-8.1,40.6,56.8,56.8,56.8,16.2C151.1,124.7,142.9,108.4,118.6,108.4z"/><path d="M305.2,116.5c-56.8-8.1-105.5,8.1-138,40.6c-48.7,40.6-64.9,138-48.7,227.2c8.1,24.3,8.1,48.7,16.2,73C159.2,506,175.4,554.7,216,571c40.6,24.3,113.6,16.2,113.6-40.6c0-24.3-16.2-48.7-24.3-64.9c-16.2-24.3-40.6-64.9-24.3-105.5c8.1-24.3,40.6-40.6,73-48.7c16.2,0,24.3,0,40.6-8.1s24.3-32.5,32.5-56.8c8.1-48.7-16.2-89.3-40.6-105.5C362,124.7,337.7,116.5,305.2,116.5z"/></g>
</svg>