<?xml version="1.0" encoding="utf-8"?>
<!-- Generator: Adobe Illustrator 25.2.1, SVG Export Plug-In . SVG Version: 6.00 Build 0)  -->
<svg version="1.1" id="Ebene_1" xmlns="http://www.w3.org/2000/svg" xmlns:xlink="http://www.w3.org/1999/xlink" x="0px" y="0px"
	 viewBox="0 0 1000 1000" style="enable-background:new 0 0 1000 1000;" xml:space="preserve">
<style type="text/css">
	.st0{fill:none;}
</style>
<g>
	<g transform="translate(0.000000,511.000000) scale(0.100000,-0.100000)">
		<path d="M1650,4982.5c-103.9-58.8-98,239.1-99.9-4868.6c0-5227.2-9.8-4837.2,119.6-4882.3c45.1-15.7,993.7-21.6,3343.7-21.6
			c3539.7,0,3361.4-5.9,3416.2,96c27.4,52.9,27.4,9554.9,0,9607.8c-54.9,101.9,123.5,96-3433.9,96
			C2294.8,5008,1689.2,5004.1,1650,4982.5z M6902.7,4502.3l56.8-56.8V2554.1V662.7l-60.8-51l-60.8-51H4995.7H3153.3l-56.8,56.8
			l-56.8,56.8V2560v1885.5l56.8,56.8l56.8,56.9h1846.3h1846.3L6902.7,4502.3z M2569.2,4384.7c25.5-49,25.5-484.1,0-533.1
			c-19.6-33.3-43.1-37.2-290.1-37.2c-184.2,0-278.3,7.8-294,23.5c-33.3,33.3-33.3,527.2,0,560.5c15.7,15.7,109.8,23.5,294,23.5
			C2526.1,4421.9,2549.6,4418,2569.2,4384.7z M8014,4398.4c33.3-33.3,33.3-527.2,0-560.5s-527.2-33.3-560.5,0s-33.3,527.2,0,560.5
			S7980.7,4431.7,8014,4398.4z M2569.2,3326.3c25.5-49,25.5-484.1,0-533.1c-19.6-33.3-43.1-37.2-290.1-37.2
			c-184.2,0-278.3,7.8-294,23.5c-33.3,33.3-33.3,527.2,0,560.5c15.7,15.7,109.8,23.5,294,23.5
			C2526.1,3363.6,2549.6,3359.6,2569.2,3326.3z M8014,3340c33.3-33.3,33.3-527.2,0-560.5s-527.2-33.3-560.5,0s-33.3,527.2,0,560.5
			C7486.8,3373.4,7980.7,3373.4,8014,3340z M2557.5,2332.6c25.5-23.5,31.4-78.4,31.4-282.2c0-319.5,5.9-313.6-313.6-313.6
			s-313.6-5.9-313.6,313.6c0,203.8,5.9,258.7,31.4,282.2c23.5,25.5,78.4,31.4,282.2,31.4C2479.1,2364,2533.9,2358.1,2557.5,2332.6z
			 M8014,2340.4c15.7-15.7,23.5-109.8,23.5-294c0-247-3.9-270.5-37.3-290.1c-21.5-9.8-141.1-19.6-266.5-19.6s-245,9.8-266.5,19.6
			c-33.3,19.6-37.3,43.1-37.3,290.1c0,184.2,7.9,278.3,23.5,294C7486.8,2373.8,7980.7,2373.8,8014,2340.4z M2557.5,1274.2
			c25.5-23.5,31.4-78.4,31.4-274.4c0-325.4,3.9-321.4-309.7-321.4c-323.4,0-317.5-5.9-317.5,305.8c0,135.2,9.8,262.6,19.6,284.2
			c19.6,33.3,43.1,37.2,284.2,37.2C2477.1,1305.6,2533.9,1299.7,2557.5,1274.2z M8014,1282.1c15.7-15.7,23.5-107.8,23.5-282.2
			c0-209.7-5.9-266.6-31.3-290.1c-23.5-25.5-78.4-31.4-264.6-31.4c-129.4,0-252.9,9.8-274.4,19.6c-33.3,19.6-37.3,43.1-37.3,290.1
			c0,184.2,7.9,278.3,23.5,294C7486.8,1315.4,7980.7,1315.4,8014,1282.1z M6867.5-364.3c94.1-49,90.2,25.5,92.1-1969.8v-1885.5
			l-47.1-54.9l-47-54.9l-1830.6-5.9c-1350.4-3.9-1842.4,2-1883.5,17.6c-115.6,49-111.7-37.2-111.7,1997.2v1865.9l56.8,56.8
			l56.8,56.9h1836.5C6348-340.8,6836.1-346.7,6867.5-364.3z M2549.6-497.6c35.3-35.3,39.2-64.7,39.2-282.2
			c0-196-5.9-250.9-31.4-274.4c-23.5-25.5-80.4-31.3-292-31.3c-241.1,0-264.6,3.9-284.2,37.2c-9.8,21.6-19.6,149-19.6,284.2
			c0,311.6-5.9,305.8,317.5,305.8C2484.9-458.4,2514.4-462.3,2549.6-497.6z M8006.2-489.8c25.5-23.5,31.3-80.4,31.3-290.1
			c0-174.4-7.9-266.5-23.5-282.2c-33.3-33.3-527.2-33.3-560.5,0c-15.7,15.7-23.5,109.8-23.5,294c0,235.2,3.9,270.5,35.3,288.1
			c17.6,11.8,141.1,21.6,272.4,21.6C7927.8-458.4,7982.7-464.3,8006.2-489.8z M2545.7-1548.1c41.2-27.4,43.1-43.1,43.1-282.2
			c0-203.8-5.9-258.7-31.4-282.2c-23.5-25.5-78.4-31.3-282.2-31.3s-258.7,5.9-282.2,31.3c-25.5,23.5-31.4,78.4-31.4,276.4
			c0,329.3-7.8,319.5,301.8,319.5C2447.7-1516.8,2512.4-1524.6,2545.7-1548.1z M8000.3-1536.4c33.3-19.6,37.3-43.1,37.3-290.1
			c0-184.2-7.9-278.3-23.5-294c-33.3-33.3-527.2-33.3-560.5,0c-15.7,15.7-23.5,109.7-23.5,294c0,235.2,3.9,270.5,35.3,288.1
			C7510.3-1510.9,7951.3-1510.9,8000.3-1536.4z M2569.2-2573.2c25.5-49,25.5-484.1,0-533.1c-19.6-33.3-43.1-37.3-290.1-37.3
			c-184.2,0-278.3,7.9-294,23.5c-33.3,33.3-33.3,527.2,0,560.5c15.7,15.7,109.8,23.5,294,23.5
			C2526.1-2536,2549.6-2539.9,2569.2-2573.2z M8014-2559.5c33.3-33.3,33.3-527.2,0-560.5s-527.2-33.3-560.5,0s-33.3,527.2,0,560.5
			S7980.7-2526.2,8014-2559.5z M2569.2-3631.6c25.5-49,25.5-484.1,0-533.1c-19.6-33.3-43.1-37.2-290.1-37.2
			c-184.2,0-278.3,7.9-294,23.5c-33.3,33.3-33.3,527.2,0,560.5c15.7,15.7,109.8,23.5,294,23.5
			C2526.1-3594.3,2549.6-3598.3,2569.2-3631.6z M8014-3617.9c33.3-33.3,33.3-527.2,0-560.5s-527.2-33.3-560.5,0s-33.3,527.2,0,560.5
			S7980.7-3584.6,8014-3617.9z"/>
	</g>
</g>
<path class="st0" d="M0,0h1000v1000H0V0z"/>
</svg>
