<?xml version="1.0" encoding="utf-8"?>
<!-- Svg Vector Icons : http://www.onlinewebfonts.com/icon -->
<!DOCTYPE svg PUBLIC "-//W3C//DTD SVG 1.1//EN" "http://www.w3.org/Graphics/SVG/1.1/DTD/svg11.dtd">
<svg version="1.1" xmlns="http://www.w3.org/2000/svg" xmlns:xlink="http://www.w3.org/1999/xlink" x="0px" y="0px" viewBox="0 0 1000 1000" enable-background="new 0 0 1000 1000" xml:space="preserve">
<metadata> Svg Vector Icons : http://www.onlinewebfonts.com/icon </metadata>
<g><g transform="translate(0.000000,512.000000) scale(0.100000,-0.100000)"><path d="M100,3498.3c0-836.4,5.7-1521.7,13.4-1521.7c7.7,0,275.6,260.3,593.4,578.1l580,580l1202-1202L3688.9,732.5l350.3,348.4l348.4,350.3L3187.4,2631.3l-1202,1202l580,580c317.7,317.7,578.1,585.7,578.1,593.4c0,7.7-685.2,13.4-1521.7,13.4H100V3498.3z"/><path d="M7421.3,4426.6l593.4-593.4l-1202-1202L5612.5,1431.1l348.4-350.3l350.3-348.4l1200.1,1200.1l1202,1202l593.4-593.4l593.4-593.4v1537V5020H8364.9h-1537L7421.3,4426.6z"/><path d="M2486.8-1694.5L1286.7-2894.6l-593.4,593.4L100-1707.9v-1537V-4780h1535.1h1537l-593.4,593.4l-593.4,593.4l1202,1202l1200.1,1200.1l-350.3,350.3l-348.4,348.4L2486.8-1694.5z"/><path d="M5960.9-840.9l-348.4-350.3l1200.1-1200.1l1202-1202l-593.4-593.4L6827.9-4780h1537H9900v1535.1v1537l-593.4-593.4l-593.4-593.4l-1202,1202L6311.1-492.5L5960.9-840.9z"/></g></g>
</svg>