<?xml version="1.0" encoding="utf-8"?>
<!-- Generator: Adobe Illustrator 25.2.1, SVG Export Plug-In . SVG Version: 6.00 Build 0)  -->
<svg version="1.1" id="Ebene_1" xmlns="http://www.w3.org/2000/svg" xmlns:xlink="http://www.w3.org/1999/xlink" x="0px" y="0px"
	 viewBox="0 0 1000 1000" style="enable-background:new 0 0 1000 1000;" xml:space="preserve">
<style type="text/css">
	.st0{fill:none;}
	.st1{stroke:#000000;stroke-width:40;stroke-miterlimit:10;}
</style>
<g>
	<circle cx="99.5" cy="898.8" r="85.3"/>
	<circle cx="370.4" cy="452.4" r="85.3"/>
	<circle cx="621.5" cy="684.6" r="85.3"/>
	<circle cx="884.8" cy="99.2" r="85.3"/>
</g>
<rect x="466.2" y="363.4" transform="matrix(0.67 -0.7423 0.7423 0.67 -255.2266 551.2707)" width="52.7" height="398.6"/>
<path class="st0" d="M0,0h1000v1000H0V0z"/>
<path class="st1" d="M353.8,452.4c-55.2,2-105.8,31.1-142.6,71.2c-42.6,46.5-65.4,107.5-78.4,168.3c-8.2,38-23.4,144.7-35.1,181.9
	c-1.9,6.1,11.6,6.6,13.5,0.4c10.1-32.2,21.8-129.6,27.9-162.7c5.6-30.6,13.3-60.8,25-90.7c21.1-53.6,55.4-102.3,105.5-132.3
	c25.9-15.5,55.3-24.9,85.5-26C361.6,462,360.2,452.1,353.8,452.4z"/>
<path class="st1" d="M878.5,81.8l-8.4,165.9c-2.7,53.8-4.5,107.7-10,161.3c-5.2,50.9-13.6,102.9-32.5,150.7
	c-8.7,22-20.6,43.2-37.3,60.2c-15.4,15.7-34.3,27.7-54.4,36.4C682.5,679.4,623,678.8,566,678.2c-6.4-0.1-6.4,9.9,0,10
	c52.6,0.5,106.8,1,157.2-16.4c21.6-7.4,42.1-17.9,60-32.2c18.3-14.5,32.7-33.1,43.5-53.8c23.6-45.4,33.6-98.2,40.2-148.5
	c7.2-54.7,9.2-109.8,12-164.9l9.7-190.7C888.8,75.3,878.8,75.3,878.5,81.8z"/>
</svg>
