<?xml version="1.0" encoding="utf-8"?>
<!-- Generator: Adobe Illustrator 25.2.1, SVG Export Plug-In . SVG Version: 6.00 Build 0)  -->
<svg version="1.1" id="Layer_1" xmlns="http://www.w3.org/2000/svg" xmlns:xlink="http://www.w3.org/1999/xlink" x="0px" y="0px"
	 viewBox="0 0 512 512" style="enable-background:new 0 0 512 512;" xml:space="preserve">
<style type="text/css">
	.st0{fill:none;}
</style>
<g>
	<g>
		<path d="M316.3,44.5V0H195.7l0,44.5H61.2v88h21.6c4,75.4,20.5,351,21.3,363.8l0.9,15.7h301.8l0.9-15.7
			c0.8-12.8,17.3-288.4,21.3-363.8h21.6v-88H316.3z M229.1,33.4h53.9v11.1h-53.9V33.4z M375.5,478.6H136.5
			c-3.6-60.5-16.7-278.6-20.3-346.1h279.5C392.1,200,379.1,418.1,375.5,478.6z M417.4,99.1H94.6V77.9h322.8L417.4,99.1L417.4,99.1z"
			/>
	</g>
</g>
<g>
	<g>
		<rect x="239.3" y="167.9" width="33.4" height="280"/>
	</g>
</g>
<g>
	<g>
		
			<rect x="160.3" y="168.2" transform="matrix(0.9986 -5.210218e-02 5.210218e-02 0.9986 -15.8151 9.6395)" width="33.4" height="279.9"/>
	</g>
</g>
<g>
	<g>
		
			<rect x="195" y="291.5" transform="matrix(5.210218e-02 -0.9986 0.9986 5.210218e-02 9.8084 626.6736)" width="279.9" height="33.4"/>
	</g>
</g>
<path class="st0" d="M0,0h510v510H0V0z"/>
</svg>
