<?xml version="1.0" encoding="utf-8"?>
<!-- Generator: Adobe Illustrator 25.2.1, SVG Export Plug-In . SVG Version: 6.00 Build 0)  -->
<svg version="1.1" id="Ebene_1" xmlns="http://www.w3.org/2000/svg" xmlns:xlink="http://www.w3.org/1999/xlink" x="0px" y="0px"
	 viewBox="0 0 1000 1000" style="enable-background:new 0 0 1000 1000;" xml:space="preserve">
<style type="text/css">
	.st0{fill:none;}
</style>
<g>
	<path d="M10,10v980h980V10H10z M935.6,318.5H681.5V64.4h254.1V318.5z M318.5,627H64.4V373h254.1V627z M373,373h254v254H373V373z
		 M627,681.5v254.1H373V681.5H627z M373,318.5V64.4h254v254.1H373z M681.5,373h254.1v254H681.5V373z M318.5,64.4v254.1H64.4V64.4
		H318.5z M64.4,681.5h254.1v254.1H64.4V681.5z M681.5,935.6V681.5h254.1v254.1H681.5z"/>
</g>
<path class="st0" d="M0,0h1000v1000H0V0z"/>
</svg>
