<?xml version="1.0" encoding="utf-8"?>
<!-- Svg Vector Icons : http://www.onlinewebfonts.com/icon -->
<!DOCTYPE svg PUBLIC "-//W3C//DTD SVG 1.1//EN" "http://www.w3.org/Graphics/SVG/1.1/DTD/svg11.dtd">
<svg version="1.1" xmlns="http://www.w3.org/2000/svg" xmlns:xlink="http://www.w3.org/1999/xlink" x="0px" y="0px" viewBox="0 0 1000 1000" enable-background="new 0 0 1000 1000" xml:space="preserve">
<metadata> Svg Vector Icons : http://www.onlinewebfonts.com/icon </metadata>
<g><g><path d="M904.6,467c24.3,0,44.7,8,61,23.9c16.3,15.9,24.4,35.8,24.4,59.8c0,38.1-18.3,63.6-54.8,76.6L833.9,662l33,98.4c2.8,8.2,4.1,17.5,4.1,27.7c0,23.2-8.2,43.2-24.7,60.1c-16.5,16.9-36.3,25.3-59.5,25.3c-18.5,0-35.2-5.3-50.4-15.9s-25.6-24.7-31.5-42.4l-32.4-97.2L490,780.3l32.4,96.6c3.1,9.4,4.7,18.6,4.7,27.7c0,23.2-8.2,43.2-24.7,60.1c-16.5,16.9-36.5,25.3-60.1,25.3c-18.5,0-35.1-5.3-50.1-15.9c-14.9-10.6-25.3-24.7-31.2-42.4l-32.4-96l-90.1,31.2c-11.4,3.5-21.2,5.3-29.4,5.3c-24,0-43.9-7.9-59.8-23.6s-23.9-35.5-23.9-59.5c0-18.5,5.4-35.1,16.2-50.1c10.8-14.9,24.8-25.3,42.1-31.2l91.9-31.2l-61.8-184.3l-91.9,31.8c-10.2,3.1-19.6,4.7-28.3,4.7c-23.6,0-43.4-8-59.5-23.9C18,489.1,10,469.4,10,445.8c0-18.5,5.4-35.1,16.2-50.1C37,380.8,51,370.4,68.3,364.5l92.5-31.2l-31.2-93.6c-3.1-9.4-4.7-18.6-4.7-27.7c0-23.6,8.2-43.7,24.7-60.4c16.5-16.7,36.5-25,60.1-25c18.5,0,35.1,5.3,50.1,15.9c14.9,10.6,25.3,24.7,31.2,42.4l31.8,94.2l182.6-61.8l-31.8-94.2c-3.1-9.4-4.7-18.6-4.7-27.7c0-23.2,8.3-43.2,25-60.1C510.5,18.4,530.4,10,553.6,10c18.5,0,35.2,5.4,50.4,16.2C619.1,37,629.6,51,635.5,68.3l31.2,94.8l95.4-32.4c8.2-2.4,16.7-3.5,25.3-3.5c23.6,0,43.7,7.8,60.4,23.3c16.7,15.5,25,34.8,25,58c0,17.7-5.9,33.7-17.7,48c-11.8,14.3-26.3,24.4-43.6,30.3l-92.5,31.8l61.8,186.1l96.6-33C886.9,468.6,896,467,904.6,467L904.6,467z M437,621.3l182.6-61.8L557.7,374l-182.6,63L437,621.3z"/></g></g>
</svg>