<?xml version="1.0" encoding="utf-8"?>
<!-- Generator: Adobe Illustrator 25.2.1, SVG Export Plug-In . SVG Version: 6.00 Build 0)  -->
<svg version="1.1" id="Ebene_1" xmlns="http://www.w3.org/2000/svg" xmlns:xlink="http://www.w3.org/1999/xlink" x="0px" y="0px"
	 viewBox="0 0 128 128" style="enable-background:new 0 0 128 128;" xml:space="preserve">
<style type="text/css">
	.st0{fill:none;}
</style>
<g id="Image">
	<path d="M59.9,109c-2.3-2.5-7.9-7.5-12.6-11c-13.8-10.4-15.6-11.9-21.2-17c-10.3-9.5-14.7-19-14.7-31.9c0-6.3,0.4-8.7,2.2-12.5
		c3-6.3,7.4-11,13-13.9c4-2,6-2.9,12.6-3c7,0,8.4,0.8,12.6,3c5,2.7,10.1,8.6,11.2,12.8l0.7,2.6l1.6-3.5c9.2-20,38.4-19.7,48.5,0.5
		c3.2,6.4,3.6,20.1,0.7,27.8c-3.7,10.1-10.7,17.7-26.9,29.5c-10.6,7.7-22.6,19.4-23.5,21C63.2,115.4,64.2,113.8,59.9,109z"/>
</g>
<path class="st0" d="M0,0h128v128H0V0z"/>
</svg>
