<?xml version="1.0" encoding="utf-8"?>
<!-- Generator: Adobe Illustrator 25.2.1, SVG Export Plug-In . SVG Version: 6.00 Build 0)  -->
<svg version="1.1" id="Ebene_1" xmlns="http://www.w3.org/2000/svg" xmlns:xlink="http://www.w3.org/1999/xlink" x="0px" y="0px"
	 viewBox="0 0 1000 1000" style="enable-background:new 0 0 1000 1000;" xml:space="preserve">
<style type="text/css">
	.st0{fill:#FFFFFF;}
</style>
<g id="Layer_2">
	<path d="M54.6,51.9h890.7V948H54.6V51.9z"/>
	<path class="st0" d="M826.7,851.3c-27.1,0-49.1-22-49.1-49.1c0-27.1,22-49.1,49.1-49.1c27.1,0,49.1,22,49.1,49.1
		C875.8,829.3,853.8,851.3,826.7,851.3z"/>
	<path class="st0" d="M826.7,642.5c-27.1,0-49.1-22-49.1-49.1c0-27.1,22-49.1,49.1-49.1c27.1,0,49.1,22,49.1,49.1
		C875.8,620.6,853.8,642.5,826.7,642.5z"/>
	<path class="st0" d="M826.7,433.8c-27.1,0-49.1-22-49.1-49.1c0-27.1,22-49.1,49.1-49.1c27.1,0,49.1,22,49.1,49.1
		C875.8,411.8,853.8,433.8,826.7,433.8z"/>
	<path class="st0" d="M826.7,225c-27.1,0-49.1-22-49.1-49.1c0-27.1,22-49.1,49.1-49.1c27.1,0,49.1,22,49.1,49.1
		C875.8,203,853.8,225,826.7,225z"/>
	<path class="st0" d="M172.6,851.3c-27.1,0-49.1-22-49.1-49.1c0-27.1,22-49.1,49.1-49.1s49.1,22,49.1,49.1
		C221.7,829.3,199.7,851.3,172.6,851.3z"/>
	<path class="st0" d="M172.6,642.5c-27.1,0-49.1-22-49.1-49.1c0-27.1,22-49.1,49.1-49.1s49.1,22,49.1,49.1
		C221.7,620.6,199.7,642.5,172.6,642.5z"/>
	<path class="st0" d="M172.6,433.8c-27.1,0-49.1-22-49.1-49.1c0-27.1,22-49.1,49.1-49.1s49.1,22,49.1,49.1
		C221.7,411.8,199.7,433.8,172.6,433.8z"/>
	<path class="st0" d="M172.6,225c-27.1,0-49.1-22-49.1-49.1c0-27.1,22-49.1,49.1-49.1s49.1,22,49.1,49.1
		C221.7,203,199.7,225,172.6,225z"/>
	<path class="st0" d="M294.7,133.8h410.6v191.4H294.7V133.8z"/>
	<path class="st0" d="M294.7,400.4h410.6v191.4H294.7V400.4z"/>
	<path class="st0" d="M294.7,666.9h410.6v191.4H294.7V666.9z"/>
</g>
</svg>
