<?xml version="1.0" encoding="utf-8"?>
<!-- Svg Vector Icons : http://www.onlinewebfonts.com/icon -->
<!DOCTYPE svg PUBLIC "-//W3C//DTD SVG 1.1//EN" "http://www.w3.org/Graphics/SVG/1.1/DTD/svg11.dtd">
<svg version="1.1" xmlns="http://www.w3.org/2000/svg" xmlns:xlink="http://www.w3.org/1999/xlink" x="0px" y="0px" viewBox="0 0 1000 1000" enable-background="new 0 0 1000 1000" xml:space="preserve">
<metadata> Svg Vector Icons : http://www.onlinewebfonts.com/icon </metadata>
<g><g transform="translate(0.000000,511.000000) scale(0.100000,-0.100000)"><path d="M4359.4,4986.1c-588-84.9-1067.8-233.5-1581.5-494.6c-955.3-484-1713.1-1252.5-2186.5-2218.3c-225-460.7-352.4-853.4-450-1384.1c-55.2-305.7-55.2-1244,0-1549.7c97.7-530.7,225-923.4,450-1384.1C1202.8-3290.8,2308.8-4220.5,3644-4606.9c849.1-246.2,1855.3-246.2,2704.5,0c1311.9,380,2409.4,1290.7,3027.1,2509.2c360.9,711.1,524.3,1401.1,524.3,2212c0,813-163.5,1498.7-526.4,2218.3c-481.9,953.2-1254.6,1715.2-2218.4,2186.5c-454.3,222.9-819.4,341.8-1331,439.4C5529.1,5013.7,4663,5030.7,4359.4,4986.1z M5270.1,4232.5C6280.6,4162.5,7197.7,3746.4,7913,3031c628.4-628.4,1016.8-1390.4,1161.2-2279.9c57.3-339.6,59.5-904.3,8.5-1231.2c-286.6-1827.7-1664.3-3205.5-3492-3492c-326.9-51-891.6-48.8-1231.2,8.5c-1358.6,222.9-2481.6,1055-3080.2,2284.2C515-106.5,835.6,1787,2079.5,3031c694.1,694.2,1638.8,1131.5,2592,1199.4c125.3,10.6,244.1,19.1,261.1,19.1C4949.6,4251.6,5102.4,4243.1,5270.1,4232.5z"/><path d="M5293.5,2922.7c-193.2-65.8-358.7-227.1-420.3-407.6c-14.9-40.3-25.5-135.9-25.5-214.4c0-554.1,728.1-834.3,1154.8-443.7c152.8,140.1,210.1,263.2,212.3,454.3c2.1,188.9-72.2,352.4-214.4,475.5C5819.9,2948.2,5524.9,3003.4,5293.5,2922.7z"/><path d="M4688.5,1075.9c-125.2-17-322.7-74.3-577.4-169.8c-254.7-93.4-261.1-97.6-282.3-171.9c-29.7-104-50.9-237.8-38.2-237.8c6.4,0,65.8,19.1,135.9,44.6c155,53.1,411.8,59.4,526.5,10.6c97.6-40.3,140.1-133.8,140.1-309.9c0-178.3-40.3-356.6-231.4-1035.9c-191.1-668.7-222.9-842.8-210.2-1091.1c6.4-144.3,21.2-197.4,70-288.7c116.8-216.5,316.3-343.9,605-388.5c305.7-46.7,592.3,6.4,1072,199.5l169.8,67.9l38.2,144.3c21.2,80.7,36.1,150.7,31.8,155c-4.2,4.2-70-12.7-144.3-36.1c-161.3-51-486.1-48.8-568.9,2.1c-72.2,48.8-110.4,150.7-110.4,303.6c0,186.8,36.1,343.9,233.5,1044.4c178.3,630.5,222.9,864,208,1091.1c-25.4,348.1-254.7,590.1-624.1,658.1C5013.3,1090.8,4818,1092.9,4688.5,1075.9z"/></g></g>
</svg>