<?xml version="1.0" encoding="utf-8"?>
<!-- Svg Vector Icons : http://www.onlinewebfonts.com/icon -->
<!DOCTYPE svg PUBLIC "-//W3C//DTD SVG 1.1//EN" "http://www.w3.org/Graphics/SVG/1.1/DTD/svg11.dtd">
<svg version="1.1" xmlns="http://www.w3.org/2000/svg" xmlns:xlink="http://www.w3.org/1999/xlink" x="0px" y="0px" viewBox="0 0 1000 1000" enable-background="new 0 0 1000 1000" xml:space="preserve">
<metadata> Svg Vector Icons : http://www.onlinewebfonts.com/icon </metadata>
<g><path d="M303.5,746.8h604.9v184.4c0,10.8-8.8,19.6-19.6,19.6H323.1c-10.8,0-19.6-8.8-19.6-19.6L303.5,746.8L303.5,746.8L303.5,746.8z M303.5,610c0-10.8,8.8-19.6,19.6-19.6h565.7c10.8,0,19.6,8.8,19.6,19.6v97.6H303.5L303.5,610L303.5,610z M303.5,205.6h604.9V390c0,10.8-8.8,19.6-19.6,19.6H323.1c-10.8,0-19.6-8.8-19.6-19.6L303.5,205.6L303.5,205.6L303.5,205.6z M303.5,68.8c0-10.8,8.8-19.6,19.6-19.6h565.7c10.8,0,19.6,8.8,19.6,19.6v97.6H303.5L303.5,68.8L303.5,68.8z M323.1,448.9h565.7c32.4,0,58.8-26.4,58.8-58.8V68.8c0-32.4-26.4-58.8-58.8-58.8H323.1c-32.4,0-58.8,26.4-58.8,58.8V148H163.5c-61.2,0-111.1,49.8-111.1,111.1v481.8c0,61.2,49.8,111.1,111.1,111.1h100.7v79.2c0,32.4,26.4,58.8,58.8,58.8h565.7c32.4,0,58.8-26.4,58.8-58.8V610c0-32.4-26.4-58.8-58.8-58.8H323.1c-32.4,0-58.8,26.4-58.8,58.8v202.8H163.5c-39.6,0-71.9-32.2-71.9-71.9V259.1c0-39.6,32.3-71.9,71.9-71.9h100.7V390C264.3,422.5,290.6,448.9,323.1,448.9L323.1,448.9L323.1,448.9z"/></g>
</svg>