<?xml version="1.0" encoding="utf-8"?>
<!-- Generator: Adobe Illustrator 25.2.1, SVG Export Plug-In . SVG Version: 6.00 Build 0)  -->
<svg version="1.1" id="Ebene_1" xmlns="http://www.w3.org/2000/svg" xmlns:xlink="http://www.w3.org/1999/xlink" x="0px" y="0px"
	 viewBox="0 0 1000 1000" style="enable-background:new 0 0 1000 1000;" xml:space="preserve">
<path id="path3106" d="M381.9,974.5c-46.1,0-94.8-25.6-94.8-72.6c0-23.1,17.9-35,35.9-35c17.9,0,35.9,12,35.9,35
	c0,22.2-16.2,34.2-32.5,35.9c13.7,11.1,33.3,17.9,55.5,17.9c66.6,0,82.9-85.4,82.9-176.8V221.1c0-99.1,58.1-195.6,153.8-195.6
	c46.1,0,94.8,25.6,94.8,72.6c0,23.9-17.9,35-35.9,35s-35.9-11.1-35.9-35c0-22.2,16.2-34.2,32.5-35.9c-13.7-11.1-33.3-17.9-55.5-17.9
	c-66.6,0-82.9,86.3-82.9,176.8v557.8C535.7,878,477.6,974.5,381.9,974.5z"/>
</svg>
