<?xml version="1.0" encoding="utf-8"?>
<!-- Generator: Adobe Illustrator 25.2.1, SVG Export Plug-In . SVG Version: 6.00 Build 0)  -->
<svg version="1.1" id="Ebene_1" xmlns="http://www.w3.org/2000/svg" xmlns:xlink="http://www.w3.org/1999/xlink" x="0px" y="0px"
	 viewBox="0 0 206 205.8" style="enable-background:new 0 0 206 205.8;" xml:space="preserve">
<style type="text/css">
	.st0{fill:none;}
</style>
<path d="M10.6,132h12.5c3.6,0,6.6,4.2,6.6,9.4v49.2c0,5.2-3,9.4-6.6,9.4H10.6c-3.6,0-6.6-4.2-6.6-9.4v-49.2C4,136.2,7,132,10.6,132z
	"/>
<path d="M37.5,77.2h15.3c2.9,0,5.2,3.3,5.2,7.4v108.1c0,4.1-2.3,7.4-5.2,7.4H37.5c-2.9,0-5.2-3.3-5.2-7.4V84.7
	C32.3,80.6,34.6,77.2,37.5,77.2z"/>
<path d="M65.9,185h15.2c2.9,0,5.2,3.3,5.2,7.4v0c0,4.1-2.3,7.4-5.2,7.4H65.9c-2.9,0-5.2-3.3-5.2-7.4v0C60.6,188.3,63,185,65.9,185z"
	/>
<path d="M93.8,126.6h15.3c2.9,0,5.2,3.3,5.2,7.4v58.3c0,4.1-2.3,7.4-5.2,7.4H93.8c-2.9,0-5.2-3.3-5.2-7.4V134
	C88.6,129.9,90.9,126.6,93.8,126.6z"/>
<path d="M122.5,4.2h15.3c2.9,0,5.2,3.3,5.2,7.4v180.7c0,4.1-2.3,7.4-5.2,7.4h-15.3c-2.9,0-5.2-3.3-5.2-7.4V11.6
	C117.3,7.5,119.6,4.2,122.5,4.2z"/>
<path d="M151.7,69H167c2.9,0,5.2,3.3,5.2,7.4v116c0,4.1-2.3,7.4-5.2,7.4h-15.3c-2.9,0-5.2-3.3-5.2-7.4v-116
	C146.5,72.3,148.8,69,151.7,69z"/>
<path d="M180.7,93.2H196c2.9,0,5.2,3.3,5.2,7.4v91.8c0,4.1-2.3,7.4-5.2,7.4h-15.3c-2.9,0-5.2-3.3-5.2-7.4v-91.8
	C175.5,96.5,177.8,93.2,180.7,93.2z"/>
<path class="st0" d="M-0.5,0h209.5v209.5H-0.5V0z"/>
</svg>
