<?xml version="1.0" encoding="utf-8"?>
<!-- Generator: Adobe Illustrator 25.2.1, SVG Export Plug-In . SVG Version: 6.00 Build 0)  -->
<svg version="1.1" id="Ebene_1" xmlns="http://www.w3.org/2000/svg" xmlns:xlink="http://www.w3.org/1999/xlink" x="0px" y="0px"
	 viewBox="0 0 360 360" style="enable-background:new 0 0 360 360;" xml:space="preserve">
<style type="text/css">
	.st0{opacity:0;fill-opacity:0;stroke:#000000;stroke-width:11;}
	.st1{fill:none;}
</style>
<path class="st0" d="M31.7,27.2h302.5v302.5H31.7V27.2z"/>
<path d="M98.3,218H61.4v43.6h36.9V218z"/>
<path d="M127.6,59.7v33h38.6v-33H127.6z M127.6,111.2v147.6c0,7.8-0.8,13.7-2.4,17.5c-1.6,3.8-5.5,5.7-11.9,5.7h-3.1
	c-0.9,0-2-0.2-3.1-0.6v28c2.8,0.2,5.4,0.3,7.8,0.4c2.4,0.1,4.8,0.1,7,0.1c8.6,0,15.7-0.8,21.4-2.5c5.7-1.7,10.2-4.1,13.6-7.4
	c3.4-3.3,5.7-7.3,7.1-12.2c1.4-4.8,2.1-10.4,2.1-16.8V111.2H127.6z"/>
<path d="M221.6,212.4h-34.7v5.3c0,7.3,0.8,13.8,2.5,19.7c1.7,5.9,4.6,10.9,8.8,15c4.2,4.1,9.9,7.2,17.1,9.2c7.2,2.1,16.2,3.1,27,3.1
	c8.2,0,15.7-0.8,22.5-2.5c6.8-1.7,12.7-4.5,17.6-8.4c4.9-3.9,8.8-8.8,11.6-14.7c2.8-5.9,4.2-12.8,4.2-20.8c0-11.4-2.5-20.4-7.5-27
	c-5-6.6-13.6-12-25.7-16.1l-23.2-7.8c-6.5-2.1-11-4.6-13.3-7.5c-2.3-3-3.5-6.3-3.5-10.1c0-5.4,1.8-9.5,5.5-12.2
	c3.6-2.7,7.9-4.1,12.7-4.1c6.3,0,10.8,1.8,13.3,5.5c2.5,3.6,3.8,9.4,3.8,17.2h34.7V150c0-13.6-4.2-24.1-12.6-31.6
	s-21.3-11.2-38.9-11.2c-9.9,0-18.3,1.2-25.3,3.6c-7,2.4-12.7,5.7-17.2,9.8c-4.5,4.1-7.7,8.9-9.8,14.4c-2.1,5.5-3.1,11.3-3.1,17.5
	c0,10.6,2.7,19.3,8.1,26.1c5.4,6.8,13.4,12.1,24,15.8l27.1,9.8c3.7,1.5,7,3.5,9.8,6c2.8,2.5,4.2,6.2,4.2,11c0,6-1.8,10.4-5.3,13.4
	c-3.5,3-8.3,4.5-14.3,4.5c-6.5,0-11.5-2-15-6c-3.4-4-5.2-9.3-5.2-15.8V212.4z"/>
<path class="st1" d="M0,0h360v360H0V0z"/>
</svg>
