<?xml version="1.0" encoding="utf-8"?>
<!-- Generator: Adobe Illustrator 25.2.1, SVG Export Plug-In . SVG Version: 6.00 Build 0)  -->
<svg version="1.1" id="Ebene_1" xmlns="http://www.w3.org/2000/svg" xmlns:xlink="http://www.w3.org/1999/xlink" x="0px" y="0px"
	 viewBox="0 0 360 360" style="enable-background:new 0 0 360 360;" xml:space="preserve">
<style type="text/css">
	.st0{fill-opacity:0;stroke:#000000;stroke-width:16;}
	.st1{fill:none;}
</style>
<g id="Layer_1">
	<path class="st0" d="M180,340.8c-88.8,0-160.8-72-160.8-160.8S91.2,19.2,180,19.2s160.8,72,160.8,160.8S268.8,340.8,180,340.8z"/>
	<path class="st0" d="M235,331.1c-24.1,8.8-68.3-51.7-98.7-135.2S100.9,37.7,125,28.9c24.1-8.8,68.3,51.7,98.7,135.2
		C254,247.5,259.1,322.3,235,331.1z"/>
	<path class="st0" d="M331.1,125c8.8,24.1-51.7,68.3-135.2,98.7C112.5,254,37.7,259.1,28.9,235c-8.8-24.1,51.7-68.3,135.2-98.7
		S322.3,100.9,331.1,125z"/>
</g>
<path class="st1" d="M0,0h360v360H0V0z"/>
</svg>
