<?xml version="1.0" encoding="utf-8"?>
<!-- Svg Vector Icons : http://www.onlinewebfonts.com/icon -->
<!DOCTYPE svg PUBLIC "-//W3C//DTD SVG 1.1//EN" "http://www.w3.org/Graphics/SVG/1.1/DTD/svg11.dtd">
<svg version="1.1" xmlns="http://www.w3.org/2000/svg" xmlns:xlink="http://www.w3.org/1999/xlink" x="0px" y="0px" viewBox="0 0 1000 1000" enable-background="new 0 0 1000 1000" xml:space="preserve">
<metadata> Svg Vector Icons : http://www.onlinewebfonts.com/icon </metadata>
<g><path d="M178.6,825.7L178.6,825.7L178.6,825.7z M590.9,300.3c0,160.4-130,290.4-290.4,290.4C140,590.8,10,460.7,10,300.3C10,139.9,140,10,300.4,10C460.8,10,590.9,139.9,590.9,300.3z M204.3,118.1c-48.9,0-88.7,39.7-88.7,88.7c0,48.9,39.8,88.6,88.7,88.6c48.9,0,88.7-39.7,88.7-88.6C292.9,157.8,253.2,118.1,204.3,118.1z M635.8,448.3c-20.2-20.2-25.5-2.5-32.9,7.5c-5.8,11-7.4,15.1,1.4,24l300.6,300.5c11.2,11.2,11.6,22,5.4,28.3c-6.3,6.3-17.4,5.5-28.2-5.5L606,526.9c-17.4-17.3-45.6-17.3-62.8,0c0,0-43,32.8-51.4,60.5c-3.7,12.2,13.2,71.5,20.9,80.4c7.7,9,78.6,31.3,81,39.1c2.5,8-9.4,89.1,17.9,96.6c27.4,7.6,122.5-0.4,134.9,11.9c12.5,12.4-6,144.9-1.4,159.3c6,18,82.3,19.6,95,6.7l137.1-129.2c17.2-17.3,17.2-45.6,0-62.8L635.8,448.3z"/></g>
</svg>