<?xml version="1.0" encoding="utf-8"?>
<!-- Svg Vector Icons : http://www.onlinewebfonts.com/icon -->
<!DOCTYPE svg PUBLIC "-//W3C//DTD SVG 1.1//EN" "http://www.w3.org/Graphics/SVG/1.1/DTD/svg11.dtd">
<svg version="1.1" xmlns="http://www.w3.org/2000/svg" xmlns:xlink="http://www.w3.org/1999/xlink" x="0px" y="0px" viewBox="0 0 1000 1000" enable-background="new 0 0 1000 1000" xml:space="preserve">
<metadata> Svg Vector Icons : http://www.onlinewebfonts.com/icon </metadata>
<g><path d="M977.9,543.1c-30.6-83.6-115.9-133.6-228.4-133.6c-4.4,0-8.6,0.1-12.8,0.3l-0.8-101.1c0,0,167.1-28.8,172.7-29.7s6.5-5.8,5.3-11.3c-1.1-5.4-8.2-43.3-9.2-47.8c-1.3-6.4-5-6.2-10.1-5.3c-5.1,0.9-159.2,22.6-159.2,22.6s-0.6-95.7-0.6-101.8s-3.4-7.7-9.5-7.6c-6.1,0.1-45.1,0.7-50.2,0.8c-5.1,0.1-8,2.4-7.9,7.3c0.1,4.9,1.6,113,1.6,113s-150,25.8-154.1,26.6c-4.1,0.7-8.3,2.6-7.4,7s9.3,53.6,10.2,57.4c0.9,3.9,3.5,6.3,9.2,5.2c5.6-0.9,143.3-24.7,143.3-24.7l1.7,98.9c-52.8,13.8-88.2,40.4-110.5,63.8c-37.6,39.5-59.1,92.5-59.1,145.2c0,77.7,47.6,123.9,114.1,132.1c154.9,19,250.8-149.9,282.7-231c53.8,73.8,12.5,213.3-102.6,293c-2.1,1.4-4.8,6.3-1.6,10.1c3.2,3.8,26.5,32.4,30.3,37c3.9,4.7,10.1,2.9,12.5,1.1C960.3,785.8,1016.7,649.3,977.9,543.1z M616,699.3c-47.3-5.9-46.3-44.8-46.3-71.2c0-37.9,16-77.4,42.9-105.6c16.4-17.3,36.7-30.4,60.2-39.2l4,209.6C658,699.3,637.7,701.9,616,699.3z M734.9,672.2l2.3-201.3c4.1-0.2,8.1-0.5,12.3-0.5c37.9,0,73.2,7.1,92.4,17.7C861,498.7,791.7,621,734.9,672.2z M296.3,296.5c-1.5-4.6-5-7.1-9.6-7.1h-95.5c-4.6,0-8.1,2.5-9.5,7.1c-20.2,63.7-170.5,538.5-171.3,541c-0.8,2.5-0.5,3.7,3,3.7h84.9c3.7,0,4.9-1.1,5.6-3.5c0.7-2.5,49.4-162.6,49.4-162.6h171.3c0,0,48.6,160.1,49.4,162.6c0.8,2.4,1.9,3.5,5.5,3.5h85c3.5,0,3.8-1.2,3-3.7C466.9,835,316.5,360.1,296.3,296.5z M168.1,606L239,348.8L309.9,606H168.1z"/></g>
</svg>