<?xml version="1.0" encoding="utf-8"?>
<!-- Generator: Adobe Illustrator 25.2.1, SVG Export Plug-In . SVG Version: 6.00 Build 0)  -->
<svg version="1.1" id="Ebene_1" xmlns="http://www.w3.org/2000/svg" xmlns:xlink="http://www.w3.org/1999/xlink" x="0px" y="0px"
	 viewBox="0 0 360 360" style="enable-background:new 0 0 360 360;" xml:space="preserve">
<style type="text/css">
	.st0{fill:#FFFFFF;}
	.st1{fill:none;}
</style>
<g id="Layer_2">
	<path d="M186.1,71.3c0,0,35.5-13.4,76.4-13.4s77.6,13.4,77.6,13.4v217.5c0,0-20.1-10.7-75.6-10.7c-62.3,0-78.3,10.7-78.3,10.7V71.3
		z"/>
	<path d="M96.9,62.7"/>
	<path class="st0" d="M96.9,288.7"/>
	<path d="M19.9,70.4c0,0,35.5-13.4,76.4-13.4s77.6,13.4,77.6,13.4v217.5c0,0-20.1-10.7-75.6-10.7c-62.3,0-78.3,10.7-78.3,10.7V70.4z
		"/>
</g>
<path class="st1" d="M0,0h360v360H0V0z"/>
</svg>
