<?xml version="1.0" encoding="utf-8"?>
<!-- Generator: Adobe Illustrator 25.2.1, SVG Export Plug-In . SVG Version: 6.00 Build 0)  -->
<svg version="1.1" id="Ebene_1" xmlns="http://www.w3.org/2000/svg" xmlns:xlink="http://www.w3.org/1999/xlink" x="0px" y="0px"
	 viewBox="0 0 1000 1000" style="enable-background:new 0 0 1000 1000;" xml:space="preserve">
<style type="text/css">
	.st0{fill-opacity:0;stroke:#000000;}
	.st1{fill:#808284;}
	.st2{fill-opacity:0;stroke:#000000;stroke-width:6;}
	.st3{fill-opacity:0;stroke:#000000;stroke-width:6;stroke-linecap:square;}
</style>
<g id="Layer_5">
	<path class="st0" d="M724,331.3"/>
	<path class="st1" d="M565.6,817.8c0,30.4-23.8,55-53.2,55c-29.4,0-53.2-24.6-53.2-55c0-30.4,23.8-55,53.2-55
		C541.8,762.8,565.6,787.4,565.6,817.8z"/>
	<path d="M581.3,826.5c0,41.3-33.5,74.8-74.8,74.8c-41.3,0-74.8-33.5-74.8-74.8c0-41.3,33.5-74.8,74.8-74.8
		C547.9,751.7,581.3,785.2,581.3,826.5z"/>
	<g>
		<path d="M515.2,206.8c0,4.6-6.6,8.3-14.8,8.3l0,0c-8.2,0-14.8-3.7-14.8-8.3v-99.7c0-4.6,6.6-8.3,14.8-8.3l0,0
			c8.2,0,14.8,3.7,14.8,8.3V206.8z"/>
		<path class="st2" d="M515.2,206.8c0,4.6-6.6,8.3-14.8,8.3l0,0c-8.2,0-14.8-3.7-14.8-8.3v-99.7c0-4.6,6.6-8.3,14.8-8.3l0,0
			c8.2,0,14.8,3.7,14.8,8.3V206.8z"/>
	</g>
	<g>
		<path d="M821.1,341.7c-3.2,3.2-10.6,1.2-16.4-4.6l0,0c-5.8-5.8-7.9-13.1-4.6-16.3l70.5-70.5c3.2-3.2,10.6-1.2,16.4,4.6l0,0
			c5.8,5.8,7.9,13.1,4.6,16.4L821.1,341.7z"/>
		<path class="st2" d="M821.1,341.7c-3.2,3.2-10.6,1.2-16.4-4.6l0,0c-5.8-5.8-7.9-13.1-4.6-16.3l70.5-70.5
			c3.2-3.2,10.6-1.2,16.4,4.6l0,0c5.8,5.8,7.9,13.1,4.6,16.4L821.1,341.7z"/>
	</g>
	<g>
		<path d="M199.9,323c3.2,3.2,1.2,10.6-4.6,16.4l0,0c-5.8,5.8-13.1,7.8-16.3,4.6l-70.5-70.5c-3.2-3.2-1.2-10.6,4.6-16.3l0,0
			c5.8-5.8,13.1-7.9,16.4-4.6L199.9,323z"/>
		<path class="st3" d="M199.9,323c3.2,3.2,1.2,10.6-4.6,16.4l0,0c-5.8,5.8-13.1,7.8-16.3,4.6l-70.5-70.5c-3.2-3.2-1.2-10.6,4.6-16.3
			l0,0c5.8-5.8,13.1-7.9,16.4-4.6L199.9,323z"/>
	</g>
	<g>
		<path d="M336.6,233.6c1.8,4.2-3,10.2-10.5,13.3l0,0c-7.6,3.1-15.1,2.2-16.9-2L271,152.9c-1.8-4.2,2.9-10.2,10.5-13.4l0,0
			c7.6-3.1,15.1-2.2,16.9,2L336.6,233.6z"/>
		<path class="st2" d="M336.6,233.6c1.8,4.2-3,10.2-10.5,13.3l0,0c-7.6,3.1-15.1,2.2-16.9-2L271,152.9c-1.8-4.2,2.9-10.2,10.5-13.4
			l0,0c7.6-3.1,15.1-2.2,16.9,2L336.6,233.6z"/>
	</g>
	<g>
		<path d="M702.6,244.7c-1.7,4.2-9.3,5.1-16.9,2l0,0c-7.6-3.1-12.3-9.1-10.5-13.3l38.1-92.1c1.8-4.2,9.3-5.1,16.9-2l0,0
			c7.6,3.1,12.3,9.1,10.5,13.3L702.6,244.7z"/>
		<path class="st2" d="M702.6,244.7c-1.7,4.2-9.3,5.1-16.9,2l0,0c-7.6-3.1-12.3-9.1-10.5-13.3l38.1-92.1c1.8-4.2,9.3-5.1,16.9-2l0,0
			c7.6,3.1,12.3,9.1,10.5,13.3L702.6,244.7z"/>
	</g>
	<path d="M495.1,872.8L302.8,384.9l250.1,460.9L495.1,872.8z"/>
</g>
</svg>
