<?xml version="1.0" encoding="utf-8"?>
<!-- Svg Vector Icons : http://www.onlinewebfonts.com/icon -->
<!DOCTYPE svg PUBLIC "-//W3C//DTD SVG 1.1//EN" "http://www.w3.org/Graphics/SVG/1.1/DTD/svg11.dtd">
<svg version="1.1" xmlns="http://www.w3.org/2000/svg" xmlns:xlink="http://www.w3.org/1999/xlink" x="0px" y="0px" viewBox="0 0 1000 1000" enable-background="new 0 0 1000 1000" xml:space="preserve">
<metadata> Svg Vector Icons : http://www.onlinewebfonts.com/icon </metadata>
<g><g transform="translate(0.000000,511.000000) scale(0.100000,-0.100000)"><path d="M6343.5,4462.9l-377-545.2l-9.7,274.5l-9.7,272.6l-371.2-703.7L5203,3059.4V1580.6V101.7l373.1-767.5l371.2-767.5l9.7,375l9.7,375l353.7-508.4l355.7-506.5h1148.3c632.1,0,1148.3,3.9,1148.3,9.7c0,5.8-257.1,382.8-570.3,835.1C8089.2-399,7835.9-24,7839.8-22c3.9,3.9,357.6-127.6,786.8-291.9l781-297.7l5.8,1101.9c2,605.1,2,1591,0,2190.3l-5.8,1088.4L8673,3490.5c-404-152.7-781-293.8-837.1-317c-56.1-21.3-96.7-29-90.8-19.3c5.8,9.7,264.8,380.8,574.1,825.5s595.4,858.3,637.9,920.2l75.4,110.2H7876.5l-1156-1.9L6343.5,4462.9z M7561.4,1656V293.1h-531.6h-531.6V1656v1362.9h531.6h531.6V1656z"/><path d="M1381.1,3301.1c-168.2-54.1-284.2-189.5-307.4-365.4l-13.5-90.9H932.6c-154.7,0-259-52.2-315.1-154.6c-32.9-63.8-34.8-125.7-30.9-1241.1c5.8-1148.3,5.8-1173.4,46.4-1227.6c59.9-83.1,189.4-141.1,319-141.1h108.3l11.6-100.5c17.4-145,96.7-262.9,226.2-334.4l106.3-58l1794-5.8c1204.4-3.9,1792.1,1.9,1792.1,15.5c0,9.7-48.3,119.9-106.3,243.6L4777.7,66.9v1515.6v1515.6l58,114.1l58,116l-1714.7-1.9C1825.7,3326.2,1444.9,3320.4,1381.1,3301.1z M3300.7,2649.6c32.9-36.7,32.9-44.5,5.8-90.9l-29-52.2l-895-5.8c-645.7-1.9-904.7,1.9-922.1,17.4c-32.9,27.1-34.8,117.9-3.9,148.8c17.4,17.4,247.4,23.2,914.4,23.2C3248.5,2690.2,3264,2690.2,3300.7,2649.6z M3296.9,2021.3c38.7-36.7,38.7-65.7,0-119.9l-29-42.5h-885.4c-678.5,0-891.2,5.8-914.4,25.1c-46.4,36.7-54.1,83.1-23.2,127.6c29,40.6,34.8,40.6,926,40.6C3159.6,2052.3,3269.8,2048.4,3296.9,2021.3z"/><path d="M3273.7-2780.6l5.8-1875.2l59.9-59.9c106.3-106.3,305.4-96.7,394.4,17.4c38.7,46.4,38.7,87,38.7,1919.6v1873.3h-251.3h-251.3L3273.7-2780.6z"/></g></g>
</svg>