<?xml version="1.0" encoding="utf-8"?>
<!-- Generator: Adobe Illustrator 25.2.1, SVG Export Plug-In . SVG Version: 6.00 Build 0)  -->
<svg version="1.1" id="Capa_1" xmlns="http://www.w3.org/2000/svg" xmlns:xlink="http://www.w3.org/1999/xlink" x="0px" y="0px"
	 viewBox="0 0 17.8 17.8" style="enable-background:new 0 0 17.8 17.8;" xml:space="preserve">
<style type="text/css">
	.st0{fill:none;}
	.st1{fill:none;stroke:#000000;stroke-miterlimit:10;}
</style>
<g>
	<g id="c98_play">
		<path d="M0.9,4.5c0.1-0.1,0.2,0,0.2,0l6.6,4.2c0.1,0.1,0.1,0.1,0.1,0.2S7.7,9,7.7,9l-6.6,4.2c-0.1,0.1-0.1,0.1-0.1,0.1H0.9
			c-0.1-0.1-0.1-0.1-0.1-0.2V4.6C0.8,4.6,0.8,4.5,0.9,4.5z"/>
	</g>
	<g id="Capa_1_78_">
	</g>
</g>
<path class="st0" d="M0,0h17.8v17.8H0V0z"/>
<g>
	<g id="c98_play_1_">
		<path d="M10.4,4.5c0.1-0.1,0.2,0,0.2,0l6.6,4.2c0.1,0.1,0.1,0.1,0.1,0.2S17.2,9,17.2,9l-6.6,4.2c-0.1,0.1-0.1,0.1-0.1,0.1h-0.1
			c-0.1-0.1-0.1-0.1-0.1-0.2V4.6C10.3,4.6,10.4,4.5,10.4,4.5z"/>
	</g>
	<g id="Capa_1_1_">
	</g>
</g>
<path d="M8.9,1.4"/>
<path d="M-10.4,11.4"/>
<path class="st1" d="M8.6,6.5"/>
<path class="st1" d="M7.5,6.3"/>
</svg>
