<?xml version="1.0" encoding="utf-8"?>
<!-- Generator: Adobe Illustrator 25.2.1, SVG Export Plug-In . SVG Version: 6.00 Build 0)  -->
<svg version="1.1" id="Ebene_1" xmlns="http://www.w3.org/2000/svg" xmlns:xlink="http://www.w3.org/1999/xlink" x="0px" y="0px"
	 viewBox="0 0 100 100.6" style="enable-background:new 0 0 100 100.6;" xml:space="preserve">
<style type="text/css">
	.st0{fill-opacity:0;stroke:#000000;stroke-width:8;}
	.st1{fill:none;}
</style>
<g id="Layer_1" transform="translate(-8.2, -2.8)">
	<path class="st0" d="M32.2,19.8v66.6"/>
	<path class="st0" d="M58.3,19.8v66.6"/>
	<path class="st0" d="M84.5,19.8v66.6"/>
	<path id="path3893" d="M84.8,77.2c-6.4,0-11.5-5.1-11.5-11.5c0-6.4,5.1-11.5,11.5-11.5c6.4,0,11.5,5.1,11.5,11.5
		C96.3,72.1,91.2,77.2,84.8,77.2z"/>
	<path id="path3893_1_" d="M58.3,51.3c-6.4,0-11.5-5.1-11.5-11.5c0-6.4,5.1-11.5,11.5-11.5c6.4,0,11.5,5.1,11.5,11.5
		C69.8,46.1,64.6,51.3,58.3,51.3z"/>
	<path id="path3893_2_" d="M32.2,67c-6.4,0-11.5-5.1-11.5-11.5c0-6.4,5.1-11.5,11.5-11.5s11.5,5.1,11.5,11.5
		C43.7,61.9,38.6,67,32.2,67z"/>
</g>
<path class="st1" d="M0,0h100v100H0V0z"/>
</svg>
