<?xml version="1.0" encoding="utf-8"?>
<!-- Generator: Adobe Illustrator 25.2.1, SVG Export Plug-In . SVG Version: 6.00 Build 0)  -->
<svg version="1.1" id="Ebene_1" xmlns="http://www.w3.org/2000/svg" xmlns:xlink="http://www.w3.org/1999/xlink" x="0px" y="0px"
	 viewBox="0 0 1000 1000" style="enable-background:new 0 0 1000 1000;" xml:space="preserve">
<style type="text/css">
	.st0{fill:none;}
</style>
<g>
	<g transform="translate(0.000000,511.000000) scale(0.100000,-0.100000)">
		<path d="M4607.3,5000.1c-809.7-122.6-1394.6-413.8-1943.7-965.5c-388.2-388.2-628.3-768.8-791.8-1246.4
			C1504,1707.8,1690.4,589.1,2518-1063.4c426.5-855.6,950.1-1701.1,1621.9-2623.1c293.7-403.6,842.9-1105.9,863.3-1103.4
			c56.2,5.1,1006.3,1292.4,1445.7,1951.4C7340.2-1495.1,7899.6-355.9,8157.5,635.1c117.5,454.6,148.1,682,150.7,1085.5
			c0,871-311.6,1639.8-919.5,2270.7c-467.4,487.9-1016.6,799.5-1670.4,950.2C5506.3,4992.5,4793.7,5028.2,4607.3,5000.1z
			 M5496.1,3460c268.2-94.5,459.8-214.5,659-411.2c876.1-871,500.6-2342.2-692.2-2710c-286.1-89.4-676.9-84.3-957.8,12.8
			c-659,227.3-1088.1,781.5-1129,1458.4c-40.9,707.5,367.8,1340.9,1039.6,1614.2c229.9,91.9,339.7,107.3,651.3,97.1
			C5266.2,3516.2,5391.4,3498.3,5496.1,3460z"/>
	</g>
</g>
<path class="st0" d="M0,0h1000v990H0V0z"/>
</svg>
