<?xml version="1.0" encoding="utf-8"?>
<!-- Svg Vector Icons : http://www.onlinewebfonts.com/icon -->
<!DOCTYPE svg PUBLIC "-//W3C//DTD SVG 1.1//EN" "http://www.w3.org/Graphics/SVG/1.1/DTD/svg11.dtd">
<svg version="1.1" xmlns="http://www.w3.org/2000/svg" xmlns:xlink="http://www.w3.org/1999/xlink" x="0px" y="0px" viewBox="0 0 1000 1000" enable-background="new 0 0 1000 1000" xml:space="preserve">
<metadata> Svg Vector Icons : http://www.onlinewebfonts.com/icon </metadata>
<g><g transform="translate(0.000000,511.000000) scale(0.100000,-0.100000)"><path d="M4230.5,4990c-259.2-34.7-490.6-106.5-763.7-238.4c-287-141.2-624.8-398-689.6-525.3c-30.1-57.9-1705.6-7069.9-1705.6-7137c0-6.9,1562.1-11.6,3471.3-11.6c1909.2,0,3471.3,9.3,3471.3,18.5c0,23.1-761.4,3239.9-777.6,3288.5c-7,23.1-90.3-44-254.6-210.6l-245.3-243l152.7-643.3c83.3-351.7,152.7-657.2,152.7-673.4c0-27.8-162-32.4-983.5-32.4c-541.5,0-983.5,6.9-983.5,18.5c0,9.3,675.8,692,1501.9,1518.1C7887,1426.1,8086,1618.2,8132.2,1606.6c30.1-7,101.8-25.5,159.7-39.3c243-62.5,587.8,44,749.8,236c148.1,171.3,187.4,280,187.4,527.6c0,196.7-6.9,233.7-64.8,342.5c-85.6,162-224.5,296.2-384.2,370.3c-104.1,50.9-164.3,60.2-314.7,62.5c-164.3,0-203.7-9.3-340.2-76.4C7843,2891,7690.3,2645.7,7690.3,2331c0-87.9,16.2-208.3,37-268.4l37-108.8L6077.3,266.7L4392.5-1418H3216.9c-865.5,0-1173.3,6.9-1173.3,25.5c0,16.2,282.3,1215,624.8,2668.3l624.8,2640.5l111.1,99.5c127.3,115.7,462.8,287,675.7,344.8c108.8,30.1,236.1,39.3,462.8,39.3c226.8,0,354.1-9.3,462.8-39.3c212.9-57.9,548.5-229.1,678.1-344.8l108.8-99.5l340.2-1434.8c185.1-789.1,342.5-1439.4,347.1-1446.4c4.6-4.6,118,99.5,249.9,231.4l243,243L6653.5,2854c-175.9,740.5-337.9,1374.6-361,1407c-74,115.7-414.2,363.3-673.4,488.3C5158.5,4976.1,4721.1,5050.2,4230.5,4990z"/><path d="M3895,3279.8v-231.4h648h648v231.4v231.4h-648h-648V3279.8z"/><path d="M3895,2122.7v-231.4h648h648v231.4v231.4h-648h-648V2122.7z"/><path d="M3895,965.6V734.2h648h648v231.4V1197h-648h-648V965.6z"/><path d="M3911.2,46.9c-9.3-6.9-16.2-118-16.2-243v-226.8h648h650.3l-6.9,238.4l-6.9,236.1l-627.1,6.9C4207.4,60.8,3920.4,56.1,3911.2,46.9z"/><path d="M770.8-3470.7c0-398,25.5-476.7,182.8-613.3c127.3-108.8,240.7-134.2,590.1-134.2h291.6v-92.6c0-127.3,46.3-231.4,152.7-333.3c104.1-101.8,293.9-164.3,421.2-141.2c249.9,46.3,444.3,259.2,444.3,486v81h1689.4h1689.4v-62.5c0-270.8,233.7-502.2,509.1-502.2c261.5-2.3,460.5,164.3,511.4,428.1l27.8,136.5h280c349.4,0,479,34.7,597.1,155.1c138.8,141.2,157.4,215.2,157.4,597.1v335.6H4542.9H770.8V-3470.7z"/></g></g>
</svg>