<?xml version="1.0" encoding="utf-8"?>
<!-- Generator: Adobe Illustrator 25.2.1, SVG Export Plug-In . SVG Version: 6.00 Build 0)  -->
<svg version="1.1" id="Capa_1" xmlns="http://www.w3.org/2000/svg" xmlns:xlink="http://www.w3.org/1999/xlink" x="0px" y="0px"
	 viewBox="0 0 58 58" style="enable-background:new 0 0 58 58;" xml:space="preserve">
<style type="text/css">
	.st0{fill:none;}
</style>
<g>
	<path d="M44,28c-0.6,0-1,0.4-1,1v6c0,7.7-6.3,14-14,14s-14-6.3-14-14v-6c0-0.6-0.4-1-1-1s-1,0.4-1,1v6c0,8.5,6.6,15.4,15,15.9V56
		h-5c-0.6,0-1,0.4-1,1s0.4,1,1,1h12c0.6,0,1-0.4,1-1s-0.4-1-1-1h-5v-5.1c8.4-0.5,15-7.5,15-15.9v-6C45,28.4,44.6,28,44,28z"/>
	<path d="M29,46c6.1,0,11-4.9,11-11V11c0-6.1-4.9-11-11-11S18,4.9,18,11v24C18,41.1,22.9,46,29,46z M22.5,4.8C22.6,4.9,22.8,5,23,5
		c0.6,0,1-0.4,1-1c0-0.1,0-0.3-0.1-0.4C25.4,2.6,27.1,2,29,2s3.6,0.6,5.1,1.6C34,3.7,34,3.9,34,4c0,0.6,0.4,1,1,1
		c0.2,0,0.4-0.1,0.5-0.2c0.6,0.6,1.1,1.3,1.5,2.1c0,0,0,0,0,0.1c0,0.3,0.2,0.6,0.4,0.8c0.4,1,0.6,2.1,0.6,3.2v1c-0.6,0-1,0.4-1,1
		s0.4,1,1,1v4c-0.6,0-1,0.4-1,1s0.4,1,1,1v4c-0.6,0-1,0.4-1,1s0.4,1,1,1v4c-0.6,0-1,0.4-1,1s0.4,1,1,1v3c0,0.3,0,0.7-0.1,1
		c-0.5,0-0.9,0.5-0.9,1c0,0.4,0.2,0.7,0.5,0.9c-0.8,2.3-2.4,4.1-4.5,5.2c0,0,0,0,0-0.1c0-0.6-0.4-1-1-1s-1,0.4-1,1
		c0,0.3,0.1,0.5,0.3,0.7C30.6,43.9,29.8,44,29,44s-1.6-0.1-2.3-0.3c0.2-0.2,0.3-0.4,0.3-0.7c0-0.6-0.4-1-1-1s-1,0.4-1,1
		c0,0,0,0,0,0.1c-2.1-1.1-3.8-2.9-4.5-5.2c0.3-0.2,0.5-0.5,0.5-0.9c0-0.5-0.4-1-0.9-1c0-0.3-0.1-0.7-0.1-1v-3c0.6,0,1-0.4,1-1
		s-0.4-1-1-1v-4c0.6,0,1-0.4,1-1s-0.4-1-1-1v-4c0.6,0,1-0.4,1-1s-0.4-1-1-1v-4c0.6,0,1-0.4,1-1s-0.4-1-1-1v-1c0-1.1,0.2-2.2,0.6-3.2
		C20.8,7.6,21,7.3,21,7c0,0,0,0,0-0.1C21.4,6.2,21.9,5.4,22.5,4.8z"/>
	<circle cx="29" cy="4" r="1"/>
	<circle cx="26" cy="7" r="1"/>
	<circle cx="26" cy="13" r="1"/>
	<circle cx="23" cy="10" r="1"/>
	<circle cx="29" cy="10" r="1"/>
	<circle cx="23" cy="16" r="1"/>
	<circle cx="29" cy="16" r="1"/>
	<circle cx="32" cy="7" r="1"/>
	<circle cx="32" cy="13" r="1"/>
	<circle cx="35" cy="10" r="1"/>
	<circle cx="35" cy="16" r="1"/>
	<circle cx="26" cy="19" r="1"/>
	<circle cx="26" cy="25" r="1"/>
	<circle cx="23" cy="22" r="1"/>
	<circle cx="29" cy="22" r="1"/>
	<circle cx="23" cy="28" r="1"/>
	<circle cx="29" cy="28" r="1"/>
	<circle cx="32" cy="19" r="1"/>
	<circle cx="32" cy="25" r="1"/>
	<circle cx="35" cy="22" r="1"/>
	<circle cx="35" cy="28" r="1"/>
	<circle cx="26" cy="31" r="1"/>
	<circle cx="26" cy="37" r="1"/>
	<circle cx="23" cy="34" r="1"/>
	<circle cx="29" cy="34" r="1"/>
	<circle cx="23" cy="40" r="1"/>
	<circle cx="29" cy="40" r="1"/>
	<circle cx="32" cy="31" r="1"/>
	<circle cx="32" cy="37" r="1"/>
	<circle cx="35" cy="34" r="1"/>
	<circle cx="35" cy="40" r="1"/>
</g>
<path class="st0" d="M0,0h58v58H0V0z"/>
</svg>
