<?xml version="1.0" encoding="utf-8"?>
<!-- Svg Vector Icons : http://www.onlinewebfonts.com/icon -->
<!DOCTYPE svg PUBLIC "-//W3C//DTD SVG 1.1//EN" "http://www.w3.org/Graphics/SVG/1.1/DTD/svg11.dtd">
<svg version="1.1" xmlns="http://www.w3.org/2000/svg" xmlns:xlink="http://www.w3.org/1999/xlink" x="0px" y="0px" viewBox="0 0 1000 1000" enable-background="new 0 0 1000 1000" xml:space="preserve">
<metadata> Svg Vector Icons : http://www.onlinewebfonts.com/icon </metadata>
<g><path d="M929.9,720.5l-79.2-70.2c23.1-47.6,36.2-100.9,36.2-157.4c0-181.8-134.6-331.9-309.5-357V31.7C809.4,57.3,990,253.9,990,492.8C990,575.7,967.9,653.2,929.9,720.5z M474.2,68.8v247.6L339,196.5L474.2,68.8z M577.4,301.7c75.6,30.6,128.9,104.6,128.9,191.2c0,9.4-0.9,18.5-2.1,27.5L577.4,407.9V301.7z M917.3,968.3l-116-102.7c-64.1,47.5-140.5,79.2-224,88.4V849.8c52.7-7.6,101.2-27.2,144-54.9l-132-116.9c-4,2-7.8,4.4-12,6.1v-16.7L474.2,576v329.5L228.4,673.4H10V312.3h166.4L17.8,171.8l68.5-77.1l899.5,796.5L917.3,968.3z"/></g>
</svg>