<?xml version="1.0" encoding="utf-8"?>
<!-- Generator: Adobe Illustrator 25.2.1, SVG Export Plug-In . SVG Version: 6.00 Build 0)  -->
<svg version="1.1" id="Ebene_1" xmlns="http://www.w3.org/2000/svg" xmlns:xlink="http://www.w3.org/1999/xlink" x="0px" y="0px"
	 viewBox="0 0 1000 1000" style="enable-background:new 0 0 1000 1000;" xml:space="preserve">
<g>
	<g transform="translate(0.000000,511.000000) scale(0.100000,-0.100000)">
		<path d="M5000,5010H90.1V110v-4900h571.8h571.8v3927.9v3929.8L3692.6,608.8L6153.5-1852l-638.9-638.9
			c-577.8-577.7-634.9-640.8-591.6-650.7c187.3-45.4,4582.5-993.8,4586.5-991.8c2,2-39.4,142-92.7,309.6
			C9365.5-3656.2,9107.2-2830,8845-1990S8324.4-319.9,8269.2-148.3l-98.6,313.5l-593.5-593.5c-327.3-327.3-605.4-595.5-615.2-595.5
			c-11.8,0-1120,1100.3-2464.8,2445.1l-2445,2445H5982h3927.9v571.9V5010H5000z"/>
	</g>
</g>
</svg>
