<?xml version="1.0" encoding="utf-8"?>
<!-- Generator: Adobe Illustrator 25.2.1, SVG Export Plug-In . SVG Version: 6.00 Build 0)  -->
<svg version="1.1" id="Ebene_1" xmlns="http://www.w3.org/2000/svg" xmlns:xlink="http://www.w3.org/1999/xlink" x="0px" y="0px"
	 viewBox="0 0 1000 1000" style="enable-background:new 0 0 1000 1000;" xml:space="preserve">
<path d="M77.7,577.6c42.7,42.7,77.9,77.3,78.3,77c0.4-0.4,0.8-27.3,0.8-59.8v-59.2h122.7l122.5,0L402,500l-0.1-35.6l-122.5,0H156.8
	v-59.2c0-32.4-0.4-59.4-0.8-59.8c-0.4-0.4-35.6,34.3-78.3,77L0,500L77.7,577.6z"/>
<path d="M403.8,156.7h60.5v122.7l0,122.5L500,402l35.6-0.1V279.4V156.8l60.5,0l60.5,0l-78.4-78.4L500,0l-78.3,78.3l-78.4,78.4
	L403.8,156.7z"/>
<path d="M464.4,720.8v122.5h-60.5h-60.5l78.4,78.4L500,1000l78.3-78.3l78.4-78.4h-60.5h-60.5l0-122.7V598.1h-35.7h-35.6L464.4,720.8
	z"/>
<path d="M598.1,500l0.1,35.6l122.5,0h122.7v60.5v60.5l78.4-78.4L1000,500l-78.3-78.3l-78.4-78.4v60.5v60.5H720.6l-122.5,0L598.1,500
	z"/>
</svg>
