<?xml version="1.0" encoding="utf-8"?>
<!-- Generator: Adobe Illustrator 25.2.1, SVG Export Plug-In . SVG Version: 6.00 Build 0)  -->
<svg version="1.1" id="Ebene_1" xmlns="http://www.w3.org/2000/svg" xmlns:xlink="http://www.w3.org/1999/xlink" x="0px" y="0px"
	 viewBox="0 0 1000 1000" style="enable-background:new 0 0 1000 1000;" xml:space="preserve">
<style type="text/css">
	.st0{fill:none;}
</style>
<g>
	<g transform="matrix(1 0 0 -1 0 1920)">
		<path d="M319.2,1692.2c-9.9,0-18.6,3.6-26,10.7s-11.1,15.7-11.1,25.6v71.9c0,9.9,3.7,18.6,11.1,26s16,11.1,26,11.1h71.9v33.4
			c0,10.2,3.6,19.2,10.7,27.2s15.7,12,25.6,12h145.2c9.9,0,18.5-4,25.6-12s10.7-17.1,10.7-27.2v-33.4h71.9c6.5,0,12.6-1.7,18.3-5.1
			s10.2-7.9,13.6-13.6c3.4-5.7,5.1-11.8,5.1-18.3v-71.9c0-6.5-1.7-12.6-5.1-18.1c-3.4-5.6-7.9-10-13.6-13.2
			c-5.7-3.3-11.8-4.9-18.3-4.9H319.2V1692.2z M155.2,930c-5.1,0-9.4,1.8-12.9,5.3s-5.3,7.8-5.3,12.9V1783c0,5.1,1.8,9.4,5.3,12.9
			s7.8,5.3,12.9,5.3h90.7v-108.9c0-9.9,3.6-18.5,10.7-25.6s15.7-10.7,25.6-10.7h435.6c9.9,0,18.5,3.6,25.6,10.7s10.7,15.7,10.7,25.6
			v108.9h90.7c5.1,0,9.4-1.8,12.9-5.3s5.3-7.8,5.3-12.9V948.1c0-5.1-1.8-9.4-5.3-12.9s-7.8-5.3-12.9-5.3H155.2V930z M282.2,1401.9
			h435.6c5.1,0,9.4,1.8,12.9,5.3s5.3,7.8,5.3,12.9v36.3c0,2.4-0.5,4.8-1.5,7.1c-1,2.3-2.2,4.2-3.8,5.8c-1.6,1.6-3.5,2.8-5.8,3.8
			s-4.7,1.5-7.1,1.5H282.2c-5.1,0-9.4-1.8-12.9-5.3s-5.3-7.8-5.3-12.9V1420c0-5.1,1.8-9.4,5.3-12.9
			C272.8,1403.6,277.1,1401.9,282.2,1401.9z M282.2,1256.7h435.6c5.1,0,9.4,1.8,12.9,5.3s5.3,7.8,5.3,12.9v36.3
			c0,2.4-0.5,4.8-1.5,7.1c-1,2.3-2.2,4.2-3.8,5.8c-1.6,1.6-3.5,2.8-5.8,3.8s-4.7,1.5-7.1,1.5H282.2c-5.1,0-9.4-1.8-12.9-5.3
			s-5.3-7.8-5.3-12.9v-36.3c0-5.1,1.8-9.4,5.3-12.9C272.8,1258.4,277.1,1256.7,282.2,1256.7z M282.2,1111.5h435.6
			c5.1,0,9.4,1.8,12.9,5.3s5.3,7.8,5.3,12.9v36.3c0,3.4-0.8,6.5-2.5,9.3s-3.9,5-6.5,6.5c-2.7,1.6-5.7,2.4-9.1,2.4H282.2
			c-5.1,0-9.4-1.8-12.9-5.3s-5.3-7.8-5.3-12.9v-36.3c0-5.1,1.8-9.4,5.3-12.9C272.8,1113.2,277.1,1111.5,282.2,1111.5z"/>
	</g>
</g>
<path class="st0" d="M0,0h1000v1000H0V0z"/>
</svg>
