<?xml version="1.0" encoding="utf-8"?>
<!-- Svg Vector Icons : http://www.onlinewebfonts.com/icon -->
<!DOCTYPE svg PUBLIC "-//W3C//DTD SVG 1.1//EN" "http://www.w3.org/Graphics/SVG/1.1/DTD/svg11.dtd">
<svg version="1.1" xmlns="http://www.w3.org/2000/svg" xmlns:xlink="http://www.w3.org/1999/xlink" x="0px" y="0px" viewBox="0 0 1000 1000" enable-background="new 0 0 1000 1000" xml:space="preserve">
<metadata> Svg Vector Icons : http://www.onlinewebfonts.com/icon </metadata>
<g><path d="M593.6,10c0,29.2,16,62.9,47.9,101.1c32,38.2,63.2,73,93.8,104.2c30.6,31.3,51.8,72.6,63.6,124c11.8,51.4-1.7,104.9-40.6,160.5c-13.9,23.6-22.9,29.2-27.1,16.7c-1.4-4.2-1.4-9.7,0-16.7c6.9-12.5,9-32,6.3-58.4c-2.8-26.4-7.3-53.5-13.5-81.3c-6.3-27.8-21.2-53.2-44.8-76.1c-23.6-22.9-52.1-37.2-85.5-42.7V800c1.4,33.3-11.5,66.4-38.6,99c-27.1,32.7-63.6,57.3-109.4,74c-51.4,19.5-101.1,22.2-149,8.3c-47.9-13.9-78.9-40.3-92.8-79.2c-13.9-38.9-6.9-78.9,20.8-119.9c27.8-41,68.1-70.5,120.9-88.6c59.8-20.8,114.6-22.2,164.7-4.2V10L593.6,10L593.6,10"/></g>
</svg>