<?xml version="1.0" encoding="utf-8"?>
<!-- Generator: Adobe Illustrator 25.2.1, SVG Export Plug-In . SVG Version: 6.00 Build 0)  -->
<svg version="1.1"
	 id="Layer_1" inkscape:version="0.47 r22583" sodipodi:docname="nslider2.svg" xmlns:cc="http://creativecommons.org/ns#" xmlns:dc="http://purl.org/dc/elements/1.1/" xmlns:inkscape="http://www.inkscape.org/namespaces/inkscape" xmlns:rdf="http://www.w3.org/1999/02/22-rdf-syntax-ns#" xmlns:sodipodi="http://sodipodi.sourceforge.net/DTD/sodipodi-0.dtd" xmlns:svg="http://www.w3.org/2000/svg"
	 xmlns="http://www.w3.org/2000/svg" xmlns:xlink="http://www.w3.org/1999/xlink" x="0px" y="0px" viewBox="0 0 99 99"
	 style="enable-background:new 0 0 99 99;" xml:space="preserve">
<style type="text/css">
	.st0{fill:none;}
</style>
<defs>
	
		<inkscape:perspective  id="perspective6663" inkscape:persp3d-origin="34.75 : 26.541667 : 1" inkscape:vp_x="0 : 39.8125 : 1" inkscape:vp_y="0 : 1000 : 0" inkscape:vp_z="69.5 : 39.8125 : 1" sodipodi:type="inkscape:persp3d">
		</inkscape:perspective>
</defs>
<sodipodi:namedview  bordercolor="#666666" borderopacity="1" gridtolerance="10" guidetolerance="10" id="namedview6657" inkscape:current-layer="Layer_1" inkscape:cx="34.749999" inkscape:cy="39.812499" inkscape:pageopacity="0" inkscape:pageshadow="2" inkscape:window-height="491" inkscape:window-maximized="0" inkscape:window-width="1001" inkscape:window-x="118" inkscape:window-y="0" inkscape:zoom="2.9638932" objecttolerance="10" pagecolor="#ffffff" showgrid="false">
	</sodipodi:namedview>
<path id="path6655" d="M24.2,88.4c7.1-2.2,12.5-5,16.2-8.3c3.5-3.1,6.7-6.5,9.5-10.2c2.8-3.6,5.3-7.4,7.2-11.2
	c2-3.8,3.5-7.7,4.6-11.7c1.1-3.9,1.6-7.8,1.6-11.6c0-3.1-0.4-5.9-1.2-8.5s-2-4.8-3.5-6.7c-1.5-1.9-3.4-3.4-5.6-4.5s-4.7-1.6-7.4-1.6
	c-1.9,0-3.8,0.4-5.8,1.1c-1.9,0.7-3.7,1.7-5.2,3c-1.5,1.2-2.8,2.7-3.7,4.3c-1,1.6-1.4,3.2-1.4,4.9c0,1,0.2,1.5,0.7,1.5
	c-0.1,0,0.1-0.2,0.4-0.5c0.3-0.3,0.8-0.7,1.3-1.1s1.3-0.7,2.2-1.1c0.9-0.3,1.8-0.5,2.7-0.5c1.1,0,2.1,0.2,3,0.7
	c0.9,0.4,1.7,1.1,2.4,1.8c0.7,0.8,1.2,1.7,1.6,2.7c0.4,1,0.6,2,0.6,3.1c0,3.1-0.9,5.6-2.8,7.7c-1.9,2-4.3,3-7.4,3
	c-1.5,0-2.9-0.4-4.1-1.1c-1.2-0.7-2.3-1.7-3.1-3c-0.9-1.2-1.5-2.7-2-4.4C24.2,34.6,24,32.9,24,31c0-2.8,0.6-5.4,1.9-7.9
	c1.3-2.4,3-4.6,5.2-6.3c2.2-1.8,4.7-3.2,7.5-4.2c2.8-1,5.8-1.5,8.8-1.5c5.6,0,10.3,0.9,14,2.6c3.7,1.7,6.6,4,8.7,6.7
	c2.1,2.8,3.6,5.8,4.5,9.1s1.2,6.6,1.2,9.8c0,2-0.1,3.9-0.4,5.7c-0.3,1.8-0.8,3.7-1.5,5.7c-0.7,2-1.7,4.1-2.9,6.4
	c-1.2,2.3-2.8,4.9-4.6,7.9c-2.3,3.7-5.3,7.1-8.9,10.3c-3.6,3.1-7.3,5.8-11.2,8.1c-3.8,2.3-7.4,4-10.9,5.3c-3.4,1.3-6.1,1.9-8.1,1.9
	C25.4,90.6,24.4,89.9,24.2,88.4z M83.9,23.4c0-1.3,0.5-2.5,1.4-3.4c0.9-0.9,2.1-1.4,3.4-1.4s2.5,0.5,3.4,1.4s1.4,2.1,1.4,3.4
	s-0.5,2.5-1.4,3.4s-2.1,1.4-3.4,1.4s-2.5-0.5-3.4-1.4S83.9,24.8,83.9,23.4z M83.9,47.3c0-1.3,0.5-2.5,1.4-3.4
	c0.9-0.9,2.1-1.4,3.4-1.4s2.5,0.5,3.4,1.4c0.9,0.9,1.4,2.1,1.4,3.4s-0.5,2.5-1.4,3.4c-0.9,0.9-2.1,1.4-3.4,1.4s-2.5-0.5-3.4-1.4
	C84.3,49.8,83.9,48.7,83.9,47.3z"/>
<path class="st0" d="M0,1h98v98H0V1z"/>
</svg>
