<?xml version="1.0" encoding="utf-8"?>
<!-- Generator: Adobe Illustrator 25.2.1, SVG Export Plug-In . SVG Version: 6.00 Build 0)  -->
<svg version="1.1"
	 id="Layer_1" inkscape:version="0.47 r22583" sodipodi:docname="nslider1.svg" xmlns:cc="http://creativecommons.org/ns#" xmlns:dc="http://purl.org/dc/elements/1.1/" xmlns:inkscape="http://www.inkscape.org/namespaces/inkscape" xmlns:rdf="http://www.w3.org/1999/02/22-rdf-syntax-ns#" xmlns:sodipodi="http://sodipodi.sourceforge.net/DTD/sodipodi-0.dtd" xmlns:svg="http://www.w3.org/2000/svg"
	 xmlns="http://www.w3.org/2000/svg" xmlns:xlink="http://www.w3.org/1999/xlink" x="0px" y="0px" viewBox="0 0 179.7 170.6"
	 style="enable-background:new 0 0 179.7 170.6;" xml:space="preserve">
<style type="text/css">
	.st0{fill:none;}
</style>
<defs>
	
		<inkscape:perspective  id="perspective6112" inkscape:persp3d-origin="32.255001 : 56.875336 : 1" inkscape:vp_x="0 : 85.313004 : 1" inkscape:vp_y="0 : 1000 : 0" inkscape:vp_z="64.510002 : 85.313004 : 1" sodipodi:type="inkscape:persp3d">
		</inkscape:perspective>
</defs>
<sodipodi:namedview  bordercolor="#666666" borderopacity="1" gridtolerance="10" guidetolerance="10" id="namedview6106" inkscape:current-layer="Layer_1" inkscape:cx="24.202845" inkscape:cy="106.6986" inkscape:pageopacity="0" inkscape:pageshadow="2" inkscape:window-height="785" inkscape:window-maximized="0" inkscape:window-width="1001" inkscape:window-x="136" inkscape:window-y="3" inkscape:zoom="1" objecttolerance="10" pagecolor="#ffffff" showgrid="false">
	</sodipodi:namedview>
<path id="path6104" d="M115.7,106.2c1.3,11.3-5,17.8-11.8,20.1L97,91.5C106.5,91.1,114.3,95.3,115.7,106.2z M84.2,39.2l2.4,13.2
	c-2,0.9-19.1,16.2-24.2,27.6c-5.5,11.8-4.9,23.8,1.5,34c7.1,11.3,22.2,18.9,38.2,14.7l4.7,23.5c1.3,6.9-6,15.9-15.1,16.3
	c-9.8,0.5-14.2-7.6-11-6.5c5.3,1.9,14.1-2.2,12.5-11.7c-2-12.5-18.3-11.6-20.8,0.9c-2.1,10.8,8.3,19.3,19.1,19.6
	c10.1,0.2,19.2-10.2,17.5-19l-4.6-23.5c7.8-1.5,20.2-10.4,18.7-27.9c-1.2-14.2-15.2-22-28.2-20.1l-3.2-15.3
	c1.3-1.2,14.7-13.6,15.5-32.3C108,13.5,101.3,0,96.9,0C91,0,80.1,16.9,84.2,39.2z M68.1,111.7C59,88.9,88.6,66.4,89.7,66.4l3,14.2
	C81.9,82,70.9,96.2,78,109.7c4.3,8.4,15.7,11.3,15,9.6c-0.7-1.5-9.5-2.5-10.4-11.6c-1.1-10.2,6.7-15.3,12.2-15.7l6.8,34.7
	C86.6,129.7,72.6,122.9,68.1,111.7z M91.7,21.5c14.6-22.3,14.8,3.4,7.6,15.6c-4.4,7.4-10.4,13.8-10.4,13.8
	C88.4,50.8,85.1,31.4,91.7,21.5z"/>
<path class="st0" d="M1.7-4h178v178H1.7V-4z"/>
</svg>
