<?xml version="1.0" encoding="utf-8"?>
<!-- Generator: Adobe Illustrator 25.2.1, SVG Export Plug-In . SVG Version: 6.00 Build 0)  -->
<svg version="1.1" id="Ebene_1" xmlns="http://www.w3.org/2000/svg" xmlns:xlink="http://www.w3.org/1999/xlink" x="0px" y="0px"
	 viewBox="0 0 1000 1000" style="enable-background:new 0 0 1000 1000;" xml:space="preserve">
<style type="text/css">
	.st0{fill:none;}
</style>
<g>
	<path d="M837.8,872.8C787.1,950,736.5,988.2,686.4,988.2c-20,0-47.1-6.5-82.5-18.8c-34.7-13-64.8-18.8-88.9-18.8
		c-23.6,0-51.8,6.5-83.6,19.4c-32.4,13.5-58.3,20-77.7,20c-60.7,0-119-51.2-177.3-152.5c-57.1-101.3-86.6-199.6-86.6-296.2
		c0-90.1,22.4-163.1,66.6-220.3c44.2-56.5,99.5-84.8,167.3-84.8c28.9,0,63,5.9,104.2,17.7c40.6,11.8,67.7,17.7,81.3,17.7
		c17.1,0,45.3-6.5,84.2-20c38.9-13,73-20,101.9-20c47.1,0,88.9,13,125.4,38.3c20.6,14.1,41.2,34.2,61.2,58.9
		c-30.6,25.9-53,48.9-67.1,69.5c-25.3,36.5-38.3,77.2-38.3,121.9c0,48.3,13.5,92.5,40.6,131.3c27.1,38.9,58.3,63.6,93.1,74.2
		C895.5,772.1,871.9,821.6,837.8,872.8z M671.7,114.8c-11.8,29.4-30,56.5-54.8,81.3c-21.2,21.2-42.4,35.3-63.6,42.4
		c-13.5,4.1-33.6,7.7-61.2,10c1.2-58.3,16.5-109,45.9-151.4s78.9-71.3,147.2-87.2c1.2,5.3,2.4,9.4,2.9,13c0,4.1,0.6,7.7,0.6,11.8
		C688.8,58.9,682.9,86,671.7,114.8z"/>
</g>
<path class="st0" d="M0,0h1000v1000H0V0z"/>
</svg>
