<?xml version="1.0" encoding="utf-8"?>
<!-- Svg Vector Icons : http://www.onlinewebfonts.com/icon -->
<!DOCTYPE svg PUBLIC "-//W3C//DTD SVG 1.1//EN" "http://www.w3.org/Graphics/SVG/1.1/DTD/svg11.dtd">
<svg version="1.1" xmlns="http://www.w3.org/2000/svg" xmlns:xlink="http://www.w3.org/1999/xlink" x="0px" y="0px" viewBox="0 0 1000 1000" enable-background="new 0 0 1000 1000" xml:space="preserve">
<metadata> Svg Vector Icons : http://www.onlinewebfonts.com/icon </metadata>
<g><g id="_x37_935ec95c421cee6d86eb22ecd13295e"><path d="M213.6,109.6c0,0,195.9-106.5,363.4,21.8l-93.8,322.2c0,0-105-72.2-182.9-64.4c-77.9,7.8-180.5,45.1-180.5,45.1L213.6,109.6z M10,815.6c43.2-22.3,108.1-33.7,182.9-39.9c74.8-6.2,180.1,62.3,180.1,62.3l94.7-325.6c-15-10.8-84.7-57.7-172-64c-87.3-6.2-192.5,42.7-192.5,42.7L10,815.6z M423.5,866.6c17.1,6.7,73.3,60.2,166.8,64.9c93.5,4.6,196.7-43.6,196.7-43.6s91.9-321.4,93.7-322.7c0.6-0.3-1.2,0.9-1.9,1.2c-87.4,34.2-132.1,39.3-196.6,40.9c-65.5,1.6-165.4-63.5-165.4-63.5L423.5,866.6z M626.6,165.5l-94,320.3c0,0,76.3,74.8,183.9,68.6c107.6-6.3,166-40.2,180.2-45L990,186.3c0,0-123.9,51.7-204.9,42.4C704,219.3,653.6,184.8,626.6,165.5z"/></g></g>
</svg>