<?xml version="1.0" encoding="utf-8"?>
<!-- Svg Vector Icons : http://www.onlinewebfonts.com/icon -->
<!DOCTYPE svg PUBLIC "-//W3C//DTD SVG 1.1//EN" "http://www.w3.org/Graphics/SVG/1.1/DTD/svg11.dtd">
<svg version="1.1" xmlns="http://www.w3.org/2000/svg" xmlns:xlink="http://www.w3.org/1999/xlink" x="0px" y="0px" viewBox="0 0 1000 1000" enable-background="new 0 0 1000 1000" xml:space="preserve">
<metadata> Svg Vector Icons : http://www.onlinewebfonts.com/icon </metadata>
<g><path d="M827.3,501.4c86.4,93.2,125.1,184.9,91.5,243.6c-33.5,58.6-131.2,70.7-253.9,42c-36.7,122.8-96.2,203-163.6,203c-67.4,0-126.9-80.4-163.5-203.6C213.7,816,114.9,804.1,81.1,745c-33.6-58.8,5.2-150.6,91.6-243.9C84.6,407.1,45,314.3,78.9,255c33.9-59.4,133.7-71.1,258.6-41C374.2,90.7,433.9,10,501.4,10c67.4,0,126.9,80.4,163.6,203.5C788.8,184.1,887.5,196,921.2,255C955,314.3,915.3,407.2,827.3,501.4L827.3,501.4z M113.8,275.5c-25.9,45.4,9.8,119.7,85.5,198.4c30.9-30.1,66.4-60,106-88.7c4.8-47.7,12.2-93,22.2-134.1C221.8,223.8,139.8,229.9,113.8,275.5z M301,438.2c-27.1,20.6-51.9,41.6-74.1,62.5c22.5,21,46.8,42.1,74.2,62.9c-1.1-20.9-1.9-42.1-1.9-63.7C299.3,479,299.9,458.5,301,438.2z M305.3,616.6c-39.6-28.6-75-58.4-106-88.4c-74.3,77.9-108.9,151.4-83.2,196.4c25.9,45.3,106.9,51.5,211.8,24.9C317.8,708.6,310,664.1,305.3,616.6z M654,644.5c-16.8,11-34,21.9-51.9,32.3c-18.2,10.6-36.3,20.3-54.4,29.6c31,13.2,61.3,24.7,90.1,33.5C644.6,710.4,649.9,678.2,654,644.5z M501.3,949.2c51.6,0,97.4-67.3,127-171.7c-40.9-11.8-84.1-28.1-128.1-48c-43.2,19.6-85.5,35.4-125.7,47.2C404,881.4,449.7,949.2,501.3,949.2L501.3,949.2z M365.2,739c28-8.7,57.2-19.5,87.3-32.3c-18.2-9.3-36.4-19.1-54.7-29.8c-16.9-9.9-33.2-20.1-49.1-30.5C352.7,679.4,358.6,709.9,365.2,739z M348.7,355.2c16.6-10.9,33.6-21.6,51.3-32c17.4-10.2,34.9-19.6,52.3-28.6c-30.2-12.9-59.7-24.3-87.8-33C357.9,290.6,352.9,322.2,348.7,355.2z M501.3,50.8c-51.7,0-97.7,67.9-127.3,173.1c40.2,11.8,82.6,28.1,125.7,47.7c44.2-20.2,87.3-36.4,128.5-48.4C598.6,118.7,552.9,50.8,501.3,50.8L501.3,50.8z M637.5,260.9c-28.9,9-59.2,20.2-90.4,33.6c17.5,9,35.1,18.5,52.7,28.8c18.9,11,37,22.5,54.7,34.2C650.4,323,644.4,291.1,637.5,260.9z M659.7,409.7c-25.2-17.6-51.9-34.7-80.1-51.1c-27-15.8-53.7-29.5-80.2-42.4c-26.1,12.7-52.6,26.9-79.2,42.4c-26.9,15.6-52.5,32-76.7,48.6c-2.3,30-3.9,60.8-3.9,92.8c0,32.3,1.3,63.8,3.7,94.2c23.6,16.2,48.6,32.1,74.6,47.3c27.7,16.2,55.2,30.3,82.4,43.4c26.9-13,54.1-27.5,81.5-43.4c27.1-15.8,52.8-32.2,77.2-49.1c2.3-29.9,3.9-60.6,3.9-92.4C663,469.1,661.9,438.9,659.7,409.7L659.7,409.7z M883.8,724.6c25.7-44.9-9.1-118.3-83.3-196.1c-30.2,29.2-64.7,58.1-103.1,85.9c-4.8,48.3-12.3,94.2-22.5,135.8C778.3,776.1,858.2,769.5,883.8,724.6z M701.7,561.4c26-19.8,49.8-39.9,71.3-60c-21.6-20.3-44.8-40.8-71.1-61c0.9,19.6,1.6,39.3,1.6,59.5C703.4,520.9,702.7,541.3,701.7,561.4z M886.1,275.5c-25.8-45.2-106.6-51.6-211.2-25.1c10.3,42.1,18.2,88.1,23,137.2c38.4,28.1,72.7,57.3,102.8,86.6C876.5,395.4,912.1,320.9,886.1,275.5z M507.5,577.7c-44.4,0-80.3-36.3-80.3-81.1c0-44.8,35.9-81.1,80.3-81.1c44.3,0,80.3,36.3,80.3,81.1C587.8,541.4,551.8,577.7,507.5,577.7z"/></g>
</svg>