<?xml version="1.0" encoding="utf-8"?>
<!-- Generator: Adobe Illustrator 25.2.1, SVG Export Plug-In . SVG Version: 6.00 Build 0)  -->
<svg version="1.1" id="Ebene_1" xmlns="http://www.w3.org/2000/svg" xmlns:xlink="http://www.w3.org/1999/xlink" x="0px" y="0px"
	 viewBox="0 0 105.7 107.9" style="enable-background:new 0 0 105.7 107.9;" xml:space="preserve">
<style type="text/css">
	.st0{fill-opacity:0;stroke:#000000;stroke-width:5;}
	.st1{fill:none;}
</style>
<g id="Layer_1">
	<path class="st0" d="M51.9,79.8"/>
	<path class="st0" d="M51.9,27"/>
	<path class="st0" d="M89.1,72.1"/>
	<path class="st0" d="M51.8,34.8"/>
	<path class="st0" d="M51.8,34.8"/>
	<path class="st0" d="M14.5,72.1"/>
</g>
<path class="st1" d="M-1,0h108v108H-1V0z"/>
<path d="M96.7,30.7H81.9v7.4h14.8v7.4h7.4v-7.4C104.1,34,100.8,30.7,96.7,30.7z"/>
<rect x="96.7" y="52.9" width="7.4" height="22.2"/>
<path d="M96.7,97.3h-7.4v7.4h7.4c4.1,0,7.4-3.3,7.4-7.4V82.5h-7.4V97.3z"/>
<path d="M7.9,1.1h59.2c4.1,0,7.4,3.3,7.4,7.4v59.2c0,4.1-3.3,7.4-7.4,7.4H7.9c-4.1,0-7.4-3.3-7.4-7.4V8.5C0.5,4.4,3.8,1.1,7.9,1.1z"
	/>
<rect x="59.7" y="97.3" width="22.2" height="7.4"/>
<path d="M37.5,82.5h-7.4v14.8c0,4.1,3.3,7.4,7.4,7.4h14.8v-7.4H37.5V82.5z"/>
</svg>
