<?xml version="1.0" encoding="utf-8"?>
<!-- Generator: Adobe Illustrator 25.2.1, SVG Export Plug-In . SVG Version: 6.00 Build 0)  -->
<svg version="1.1" id="Capa_1" xmlns="http://www.w3.org/2000/svg" xmlns:xlink="http://www.w3.org/1999/xlink" x="0px" y="0px"
	 viewBox="0 0 60 60" style="enable-background:new 0 0 60 60;" xml:space="preserve">
<style type="text/css">
	.st0{fill:none;}
</style>
<g>
	<path d="M55.2,15.5h-8.5l-4-10H17.3l-4,10H12v-5H6v5H4.8c-2.6,0-4.8,2.2-4.8,4.8v29.4c0,2.7,2.2,4.8,4.8,4.8h50.3
		c2.7,0,4.8-2.2,4.8-4.8V20.3C60,17.7,57.8,15.5,55.2,15.5z M8,12.5h2v3H8V12.5z M58,49.7c0,1.6-1.3,2.8-2.8,2.8H4.8
		c-1.6,0-2.8-1.3-2.8-2.8V20.3c0-1.5,1.3-2.8,2.8-2.8H6h6h2.7l4-10h22.6l4,10h9.9c1.5,0,2.8,1.3,2.8,2.8C58,20.3,58,49.7,58,49.7z"
		/>
	<path d="M30,14.5c-9.9,0-18,8.1-18,18s8.1,18,18,18s18-8.1,18-18S39.9,14.5,30,14.5z M30,48.5c-8.8,0-16-7.2-16-16s7.2-16,16-16
		s16,7.2,16,16S38.8,48.5,30,48.5z"/>
	<path d="M30,20.5c-6.6,0-12,5.4-12,12s5.4,12,12,12s12-5.4,12-12S36.6,20.5,30,20.5z M30,42.5c-5.5,0-10-4.5-10-10s4.5-10,10-10
		s10,4.5,10,10S35.5,42.5,30,42.5z"/>
	<path d="M52,19.5c-2.2,0-4,1.8-4,4s1.8,4,4,4s4-1.8,4-4S54.2,19.5,52,19.5z M52,25.5c-1.1,0-2-0.9-2-2s0.9-2,2-2s2,0.9,2,2
		S53.1,25.5,52,25.5z"/>
</g>
<path class="st0" d="M0-0.4h60v60H0V-0.4z"/>
</svg>
