<?xml version="1.0" encoding="utf-8"?>
<!-- Generator: Adobe Illustrator 25.2.1, SVG Export Plug-In . SVG Version: 6.00 Build 0)  -->
<svg version="1.1" id="Ebene_1" xmlns="http://www.w3.org/2000/svg" xmlns:xlink="http://www.w3.org/1999/xlink" x="0px" y="0px"
	 viewBox="0 0 1000 1000" style="enable-background:new 0 0 1000 1000;" xml:space="preserve">
<style type="text/css">
	.st0{fill:none;}
</style>
<g>
	<path d="M731.6,223.9c0,77,0,552.3,0,552.3c-350.9,0-331.9-230-458.3-230H10v-92.3h263.2C400.6,453.8,378.1,223.9,731.6,223.9
		L731.6,223.9z"/>
	<path d="M990,367.2c0-23.3-18.9-42.1-42.1-42.1H788.8v84.2h159.1C971.1,409.3,990,390.4,990,367.2z"/>
	<path d="M947.9,589H788.8v84.2h159.1c23.3,0,42.1-18.9,42.1-42.1C990,607.8,971.1,589,947.9,589L947.9,589z"/>
</g>
<path class="st0" d="M0,0h1000v1000H0V0z"/>
</svg>
