<?xml version="1.0" encoding="utf-8"?>
<!-- Generator: Adobe Illustrator 25.2.1, SVG Export Plug-In . SVG Version: 6.00 Build 0)  -->
<svg version="1.1" id="Ebene_1" xmlns="http://www.w3.org/2000/svg" xmlns:xlink="http://www.w3.org/1999/xlink" x="0px" y="0px"
	 viewBox="0 0 1000 1000" style="enable-background:new 0 0 1000 1000;" xml:space="preserve">
<style type="text/css">
	.st0{fill:none;}
</style>
<g>
	<path d="M500,867.5C132.5,867.5,10,500,10,500s122.5-367.5,490-367.5S990,500,990,500S867.5,867.5,500,867.5z M500,255
		c-134.7,0-245,110.3-245,245s110.3,245,245,245c134.8,0,245-110.3,245-245S634.8,255,500,255z M500,622.5
		c-67.4,0-122.5-55.1-122.5-122.5v-6.1c12.2,6.1,18.4,6.1,30.6,6.1c49,0,91.9-42.9,91.9-91.9c0-12.3,0-18.4-6.1-30.6h6.1
		c67.4,0,122.5,55.1,122.5,122.5S567.4,622.5,500,622.5z"/>
</g>
<path class="st0" d="M-7,0H993v1000H-7V0z"/>
</svg>
