<?xml version="1.0" encoding="utf-8"?>
<!-- Generator: Adobe Illustrator 25.2.1, SVG Export Plug-In . SVG Version: 6.00 Build 0)  -->
<svg version="1.1" id="Capa_1" xmlns="http://www.w3.org/2000/svg" xmlns:xlink="http://www.w3.org/1999/xlink" x="0px" y="0px"
	 viewBox="0 0 536.7 536.7" style="enable-background:new 0 0 536.7 536.7;" xml:space="preserve">
<style type="text/css">
	.st0{fill:none;}
</style>
<g>
	<path d="M524.6,169.5H227.3c-23-20.1-53.1-32.3-86.1-32.3c-33,0-63.1,12.2-86.1,32.3h-43c-6.7,0-12.1,5.4-12.1,12.1v173.5
		c0,6.7,5.4,12.1,12.1,12.1h20.2v32.3h56v-11.3c16.2,7.2,34.1,11.3,53,11.3c33,0,63.1-12.2,86.1-32.3h221.1v32.3h56v-32.3h20.2
		c6.7,0,12.1-5.4,12.1-12.1V181.6C536.7,174.9,531.2,169.5,524.6,169.5z M137.2,367.2c-54.6,0-98.9-44.3-98.9-98.9
		c0-54.6,44.3-98.9,98.9-98.9s98.9,44.3,98.9,98.9C236.1,322.9,191.8,367.2,137.2,367.2z M501.4,325.3H375.8v-18.2h125.6
		L501.4,325.3L501.4,325.3z M501.4,270.8H375.8v-18.2h125.6L501.4,270.8L501.4,270.8z M501.4,219.4H375.8v-18.2h125.6L501.4,219.4
		L501.4,219.4z M163.2,204.7c4.2,2.6,7.9,5.5,11.3,8.7c-29-10.1-62.2,0.9-78.9,28.1c-16.7,27.3-11.5,61.8,10.7,83.1
		c-4.4-1.5-8.8-3.5-12.9-6.1c-31.4-19.3-41.3-60.4-22-91.8C90.7,195.3,131.8,185.4,163.2,204.7z M452.9,165.4h-44.4v-5h44.4V165.4z
		 M508.4,165.4H464v-5h44.4V165.4z"/>
</g>
<path class="st0" d="M-2.7-2.7h539.3v539.3H-2.7V-2.7z"/>
</svg>
