<?xml version="1.0" encoding="utf-8"?>
<!-- Generator: Adobe Illustrator 25.2.1, SVG Export Plug-In . SVG Version: 6.00 Build 0)  -->
<svg version="1.1" id="Layer_1" xmlns="http://www.w3.org/2000/svg" xmlns:xlink="http://www.w3.org/1999/xlink" x="0px" y="0px"
	 viewBox="0 0 455 455" style="enable-background:new 0 0 455 455;" xml:space="preserve">
<style type="text/css">
	.st0{fill:none;}
</style>
<g>
	<path d="M325,175c-19.3,0-35,15.7-35,35s15.7,35,35,35s35-15.7,35-35S344.3,175,325,175z"/>
	<path d="M455,90H0v240h35v35h30v-35h325v35h30v-35h35V90z M225,265H59.5v-30H225V265z M225,195H59.5v-30H225V195z M325,275
		c-35.8,0-65-29.2-65-65s29.2-65,65-65s65,29.2,65,65S360.8,275,325,275z"/>
</g>
<path class="st0" d="M0,0h454v454H0V0z"/>
</svg>
