<?xml version="1.0" encoding="utf-8"?>
<!-- Svg Vector Icons : http://www.onlinewebfonts.com/icon -->
<!DOCTYPE svg PUBLIC "-//W3C//DTD SVG 1.1//EN" "http://www.w3.org/Graphics/SVG/1.1/DTD/svg11.dtd">
<svg version="1.1" xmlns="http://www.w3.org/2000/svg" xmlns:xlink="http://www.w3.org/1999/xlink" x="0px" y="0px" viewBox="0 0 1000 1000" enable-background="new 0 0 1000 1000" xml:space="preserve">
<metadata> Svg Vector Icons : http://www.onlinewebfonts.com/icon </metadata>
<g><path d="M340.4,482.3c9.5-1.7,19.4-2.7,29.6-2.7l-8,0h265c11.5,0,22.5-1.6,32.9-4.5c49.4-13.7,85.1-57.5,85.1-111.4V285V141.1c0-63.4-54-111-118.1-121.5c-40.7-6.7-100.2-9.8-140.6-9.6c-40.4,0.2-79.1,3.6-113,9.6C273.2,37,255,73.6,255,141.1v73.1h245V255H175.4C84.5,255,10.7,363.6,10,498.1c0,0.6,0,1.3,0,1.9c0,24.3,2.4,47.8,6.9,69.9C37.2,671.2,100.5,745,175.4,745h38.7v-6.8V627.8C214.2,559.3,265.6,495.7,340.4,482.3z M366.4,170.8c-24.5,0-44.4-19.9-44.4-44.4c0-24.7,19.8-44.7,44.4-44.7c24.4,0,44.4,20,44.4,44.7C410.8,150.9,390.9,170.8,366.4,170.8z"/><path d="M979.7,414.6c-23.4-93.2-84-159.6-155.1-159.6h-38.7v6.7v97.1c0,86.6-56.9,149.2-126.3,160c-7,1.1-14,1.6-21.2,1.6H373.3c-11.5,0-22.7,1.5-33.3,4.3c-48.8,12.8-85,53.4-85,106.1v84v138.6c0,63.4,63.7,100.6,126.3,118.8c74.8,21.8,156.4,25.7,245.9,0c59.5-17,117.8-51.4,117.8-118.8v-67.5H500V745h324.6c64.4,0,120.2-54.5,147.5-134.1c11.4-33.3,17.9-71,17.9-110.9C990,470,986.3,441.2,979.7,414.6z M632.4,823.7c24.5,0,44.4,19.9,44.4,44.4c0,24.6-19.9,44.7-44.4,44.7c-24.4,0-44.4-20.1-44.4-44.7C588,843.5,607.9,823.7,632.4,823.7z"/></g>
</svg>