<?xml version="1.0" encoding="utf-8"?>
<!-- Svg Vector Icons : http://www.onlinewebfonts.com/icon -->
<!DOCTYPE svg PUBLIC "-//W3C//DTD SVG 1.1//EN" "http://www.w3.org/Graphics/SVG/1.1/DTD/svg11.dtd">
<svg version="1.1" xmlns="http://www.w3.org/2000/svg" xmlns:xlink="http://www.w3.org/1999/xlink" x="0px" y="0px" viewBox="0 0 1000 1000" enable-background="new 0 0 1000 1000" xml:space="preserve">
<metadata> Svg Vector Icons : http://www.onlinewebfonts.com/icon </metadata>
<g><path d="M327,305.7H126.4v-60.3H327V305.7z M990,431.4v475.3c0,46-37.3,83.3-83.3,83.3H93.3c-46,0-83.3-37.3-83.3-83.3V431.4c0-46,37.3-83.3,83.3-83.3h813.5C952.7,348.2,990,385.4,990,431.4z M106.3,548.2h491V444.7h-491V548.2z M264.5,648.7v42.8h471.7v-42.8H264.5z M735.5,842.5h-471v21.4v21.4h471V842.5z M803.9,746.2H196.1V789h607.7V746.2z M893.7,444.7H644.9v103.5h248.8V444.7z M423.2,51.6l103.5,74.3l27.1-37.2L450.3,14.4c-10.3-7.5-24.7-5.2-32.2,5C410.6,29.7,412.9,44.1,423.2,51.6z M760.5,305.7h103.3l-281-206.9l-37.6,51.5L760.5,305.7z"/></g>
</svg>