<?xml version="1.0" encoding="utf-8"?>
<!-- Generator: Adobe Illustrator 25.2.1, SVG Export Plug-In . SVG Version: 6.00 Build 0)  -->
<svg version="1.1" id="Capa_1" xmlns="http://www.w3.org/2000/svg" xmlns:xlink="http://www.w3.org/1999/xlink" x="0px" y="0px"
	 viewBox="0 0 388.2 388.2" style="enable-background:new 0 0 388.2 388.2;" xml:space="preserve">
<style type="text/css">
	.st0{fill:none;}
</style>
<g>
	<path d="M107.4,388.2h173.3c21.2,0,38.3-17.2,38.3-38.3v-269h-250v269C69.1,371.1,86.3,388.2,107.4,388.2z M254,129.6
		c0-7.2,5.8-13,13-13c7.2,0,13,5.9,13,13V338c0,7.2-5.8,13-13,13c-7.2,0-13-5.8-13-13V129.6z M181.5,129.6c0-7.2,5.8-13,13-13
		c7.2,0,13,5.9,13,13V338c0,7.2-5.8,13-13,13c-7.2,0-13-5.8-13-13V129.6z M109,129.6c0-7.2,5.8-13,13-13s13,5.9,13,13V338
		c0,7.2-5.9,13-13,13c-7.2,0-13-5.8-13-13C109,338,109,129.6,109,129.6z"/>
	<path d="M294.4,20.5h-52.8C240.4,9,230.8,0,219,0h-49.7c-11.9,0-21.5,9-22.7,20.5H93.8c-25.9,0-46.8,21-46.9,46.8h294.5
		C341.3,41.4,320.3,20.5,294.4,20.5z"/>
</g>
<path class="st0" d="M0,0h388v388H0V0z"/>
</svg>
