<?xml version="1.0" encoding="utf-8"?>
<!-- Generator: Adobe Illustrator 25.2.1, SVG Export Plug-In . SVG Version: 6.00 Build 0)  -->
<svg version="1.1" id="Ebene_1" xmlns:serif="http://www.serif.com/"
	 xmlns="http://www.w3.org/2000/svg" xmlns:xlink="http://www.w3.org/1999/xlink" x="0px" y="0px" viewBox="0 0 416 416"
	 style="enable-background:new 0 0 416 416;" xml:space="preserve">
<style type="text/css">
	.st0{fill:none;}
</style>
<g transform="matrix(0.147582,0,0,0.147582,25.5,25.5)">
	<path d="M1700.7,684.8c0-24.4-9.7-48.1-27.1-65.5l-379.5-379.8c-17.4-17.4-41.1-27.1-65.9-27.1h-23.6v496.1h496.1V684.8z
		 M2425.5,1406.1l-370.9-373.6c-39.1-39.1-106.2-11.6-106.2,43.8v252.3h-248.1v248.1h248.1v252.7c0,55.4,67.1,82.9,106.2,43.8
		l370.9-374C2451.1,1473.6,2451.1,1431.7,2425.5,1406.1z M956.5,1514.7v-124c0-34.1,27.9-62,62-62h682.2V832.5h-527.1
		c-51.2,0-93-41.9-93-93V212.3H305.4c-51.6,0-93,41.5-93,93v1798.4c0,51.6,41.5,93,93,93h1302.3c51.6,0,93-41.5,93-93v-527.1h-682.2
		C984.4,1576.7,956.5,1548.8,956.5,1514.7z"/>
</g>
<path class="st0" d="M0,0h414v414H0V0z"/>
</svg>
