<?xml version="1.0" encoding="utf-8"?>
<!-- Svg Vector Icons : http://www.onlinewebfonts.com/icon -->
<!DOCTYPE svg PUBLIC "-//W3C//DTD SVG 1.1//EN" "http://www.w3.org/Graphics/SVG/1.1/DTD/svg11.dtd">
<svg version="1.1" xmlns="http://www.w3.org/2000/svg" xmlns:xlink="http://www.w3.org/1999/xlink" x="0px" y="0px" viewBox="0 0 1000 1000" enable-background="new 0 0 1000 1000" xml:space="preserve">
<metadata> Svg Vector Icons : http://www.onlinewebfonts.com/icon </metadata>
<g><g transform="translate(0.000000,511.000000) scale(0.100000,-0.100000)"><path d="M5309.1,4803.9C5190,4607,5178.6,4597.9,5103,4597.9c-43.5,0-151.1-16-238.1-34.3l-158-34.3l-178.6,162.6L4349.7,4852l-206.1-121.4c-114.5-66.4-208.4-137.4-208.4-155.7s25.2-128.2,55-245c52.7-206.1,52.7-210.6,11.4-249.6c-25.2-20.6-91.6-107.6-148.8-192.3l-105.3-153.4l-231.3-16c-128.2-9.2-235.8-20.6-240.4-25.2c-18.3-18.3-119.1-451.1-109.9-467.1c6.9-9.2,100.7-71,208.4-137.4c187.8-116.8,194.6-123.6,194.6-203.8c0-45.8,16-155.7,34.3-242.7l34.3-158l-148.8-167.2C3406.4,2228,3340,2141,3340,2125c0-45.8,231.3-412.1,258.7-412.1c16,0,121.4,25.2,235.8,54.9l206.1,52.7l80.1-68.7c41.2-36.6,130.5-100.8,194.6-142c109.9-73.3,116.8-82.4,130.5-199.2c9.2-66.4,16-174,16-238.1v-119.1l242.7-59.5c135.1-34.4,245-57.2,249.6-55c2.3,4.6,57.2,93.9,121.4,201.5l116.8,194.6l190,29.8c105.3,13.7,215.2,32.1,247.3,38.9c45.8,11.5,89.3-16,229-137.4c93.9-82.4,180.9-148.8,192.3-148.8c38.9,0,403,233.6,403,258.7c0,16-20.6,121.4-48.1,235.8l-50.4,208.4l116.8,158c66.4,87,132.8,176.3,148.8,201.5c22.9,34.3,71,45.8,249.6,57.2c123.6,6.9,231.3,25.2,242.7,36.6c18.3,20.6,119.1,393.8,119.1,444.2c0,11.4-91.6,75.6-206.1,142c-196.9,116.8-206.1,125.9-206.1,203.8c0,43.5-16,151.1-34.4,238.1l-34.3,158l80.1,93.9c43.5,52.7,114.5,135.1,158,185.5l80.1,91.6l-128.2,208.4l-128.2,208.4l-233.5-55l-235.8-55l-144.2,109.9c-80.1,59.5-169.5,125.9-196.9,144.2c-43.5,29.8-52.6,64.1-68.7,272.5l-18.3,240.4l-206.1,52.7c-112.2,27.5-222.1,52.7-240.4,52.7C5451.1,5010,5377.8,4918.4,5309.1,4803.9z M5460.2,4016.3c286.2-75.6,558.7-290.8,682.4-535.8c222.1-437.3,148.8-922.8-192.3-1263.9c-425.9-425.9-1085.3-425.9-1511.2,0c-586.2,583.9-320.6,1577.6,478.5,1799.7C5059.5,4055.2,5316,4055.2,5460.2,4016.3z"/><path d="M7681.2,2056.3c-64.1-142-93.9-183.2-130.5-183.2c-25.2,0-112.2-16-190.1-38.9l-144.2-36.6l-151.1,107.6l-151.1,107.6l-148.8-109.9c-82.4-59.5-148.8-121.4-151.1-137.4c0-13.7,27.5-100.7,59.5-190c52.7-144.2,55-169.4,25.2-201.5c-18.3-22.9-66.4-96.2-105.3-167.2l-73.3-130.5l-178.6-27.5c-203.8-32.1-194.6-20.6-222.1-277.1l-13.8-148.8l162.6-73.3c91.6-41.2,167.1-87,171.7-103c4.6-13.7,27.5-103,52.7-194.6l45.8-164.9L6431.1-68.6l-109.9-155.7l100.7-135.1c57.2-75.6,109.9-144.2,121.4-153.4c9.2-11.4,93.9,9.2,190.1,41.2l176.3,57.3l151.1-91.6c84.7-50.4,162.6-93.9,174-98.5c9.2-4.6,32.1-89.3,48.1-190c34.3-203.8,18.3-192.3,302.2-226.7l116.8-16l84.7,169.4l82.4,169.4l146.5,36.6c77.8,20.6,164.9,43.5,190.1,50.4c32.1,9.2,89.3-18.3,190-91.6c80.1-59.5,160.3-100.8,178.6-93.9c61.8,22.9,283.9,201.5,283.9,229c0,13.7-27.5,98.5-59.5,187.7l-59.6,164.9l68.7,91.6c36.7,52.7,80.1,125.9,96.2,164.9c29.8,71,36.6,75.5,261,114.5c75.6,11.5,139.7,27.5,144.2,32.1c11.5,11.4,52.7,265.6,52.7,329.7c0,41.2-34.3,66.4-167.1,132.8l-167.1,84.7L8991,886.2c-20.6,82.4-43.5,167.2-50.4,185.5c-9.1,20.6,29.8,96.2,98.5,192.3l114.5,158l-105.3,139.7c-59.5,77.8-112.2,146.5-119.1,155.7c-6.9,9.2-96.2-13.7-194.6-48.1l-183.2-64.1l-130.5,82.4c-71,45.8-146.6,93.9-167.2,105.3c-22.9,13.7-45.8,89.3-66.4,206.1l-29.8,183.2l-112.2,16c-64.1,9.2-151.1,20.6-196.9,27.5l-82.5,13.7L7681.2,2056.3z M7901.1,1435.7c267.9-57.2,485.4-226.7,606.8-474c57.2-116.8,64.1-155.7,64.1-359.5c0-212.9-4.6-240.4-73.3-380.1c-89.3-180.9-233.5-320.5-414.4-405.3c-112.2-52.7-160.3-61.8-348-61.8c-187.8,0-235.8,9.2-348,61.8c-659.4,309.1-682.3,1215.8-38.9,1541C7539.3,1454.1,7701.9,1477,7901.1,1435.7z"/><path d="M3307.9,1170.1c-48.1-148.8-98.5-311.4-114.5-361.8c-25.2-82.4-38.9-93.9-160.3-128.2c-71-22.9-224.4-84.7-338.9-137.4L2485.9,442l-327.4,171.7l-329.7,171.7l-265.6-265.6L1295.2,252L1467-75.4l174-329.7l-103-206.1c-55-112.2-116.8-265.6-137.4-338.9l-36.6-130.5l-364.1-116.8l-361.8-114.5l4.6-370.9l6.9-370.9l350.3-114.5l350.3-114.5l59.5-178.6c34.3-98.4,98.5-254.2,142-343.4l84.7-162.6L1467-3297.1l-169.4-329.7l263.3-265.6l263.3-263.3l327.4,171.7l329.7,171.7L2605-3881c68.7-38.9,222.1-103,343.5-146.6l219.8-73.3l109.9-345.7L3388-4790l380.1,4.6l382.4,6.9l105.3,338.9l103,338.9l217.5,73.3c119.1,41.2,274.8,107.6,343.5,144.2l125.9,71l329.7-171.7l327.4-171.7l267.9,267.9l265.6,265.6L6067-3299.4l-167.1,320.5l91.6,199.2c50.4,109.9,112.2,267.9,139.7,350.3l48.1,151.1l354.9,109.9l354.9,109.9v373.2v373.2l-359.5,114.5l-361.8,114.5l-41.2,144.2c-22.9,80.1-82.4,229-132.8,332c-48.1,103-89.3,196.9-89.3,206.1c0,11.4,73.3,158,160.3,325.1C6154,94,6225,238.2,6225,245.1c0,9.2-119.1,132.8-263.3,277.1l-261,261l-327.4-169.4l-327.4-167.1l-194.6,93.9c-107.6,50.4-261,112.2-338.9,135.1L4368,716.8l-114.5,361.8L4139.1,1438h-373.2h-373.2L3307.9,1170.1z M4125.3-86.9C4709.2-215.1,5206.1-696,5354.9-1277.6c61.8-238.1,61.8-581.6,0-819.7c-144.3-567.8-613.6-1037.2-1181.5-1181.5c-217.5-55-574.7-59.5-787.7-9.2c-199.2,45.8-485.4,187.8-652.6,322.9c-707.5,574.7-810.6,1618.8-229,2324.1C2888.9-171.6,3527.7,45.9,4125.3-86.9z"/></g></g>
</svg>
