<?xml version="1.0" encoding="utf-8"?>
<!-- Svg Vector Icons : http://www.onlinewebfonts.com/icon -->
<!DOCTYPE svg PUBLIC "-//W3C//DTD SVG 1.1//EN" "http://www.w3.org/Graphics/SVG/1.1/DTD/svg11.dtd">
<svg version="1.1" xmlns="http://www.w3.org/2000/svg" xmlns:xlink="http://www.w3.org/1999/xlink" x="0px" y="0px" viewBox="0 0 1000 1000" enable-background="new 0 0 1000 1000" xml:space="preserve">
<metadata> Svg Vector Icons : http://www.onlinewebfonts.com/icon </metadata>
<g><g transform="translate(0.000000,511.000000) scale(0.100000,-0.100000)"><path d="M5702.5,4637.3c-693-175.1-968.2-255.2-1113.3-325.2c-182.6-90.1-252.7-157.6-1961.5-1861.4C781.3,609.3,703.7,524.2,553.6,166.4C468.5-36.2,80.7-1702.5,100.7-1780c7.5-27.5,37.5-57.5,67.5-65.1c32.5-7.5,435.3,82.6,900.7,200.2c900.7,225.2,1088.3,295.2,1376,500.4c85.1,62.5,953.2,913.2,1931.5,1896.5c1621.2,1626.2,1786.4,1798.9,1858.9,1949c97.6,197.6,610.4,2056.6,590.4,2126.6c-12.5,35-37.5,47.5-107.6,45C6668.3,4872.5,6210.4,4765,5702.5,4637.3z"/><path d="M7659,2911c-557.9-245.2-878.2-400.3-1000.8-485.4C6393,2243,2965.4-1197.1,2792.8-1454.8c-170.1-250.2-227.7-372.8-557.9-1158.4c-285.2-680.5-310.2-770.6-207.7-798.1c25-7.5,345.3,125.1,710.5,290.2c365.3,167.6,723,330.3,795.6,362.8c332.8,147.6,490.4,290.2,1791.4,1573.7C7346.3,814.4,7644,1117.2,7769.1,1309.8c132.6,200.2,895.7,1788.9,895.7,1863.9c0,52.5-70,102.6-142.6,97.6C8497.1,3271.3,8109.3,3108.7,7659,2911z"/><path d="M9037.6,1627.6c-380.3-242.7-773.1-507.9-875.7-585.5C7901.7,842,4271.4-2803.3,4131.3-3006c-232.7-332.8-945.7-1503.6-945.7-1551.2c0-62.5,112.6-120.1,165.1-85.1c17.5,12.5,310.2,197.7,650.5,410.3c337.8,212.7,708,452.8,820.6,532.9c142.6,102.6,623,567.9,1648.8,1601.2c795.6,800.6,1661.3,1681.3,1924,1954l477.9,497.9l502.9,765.6c280.2,420.3,512.9,783.1,520.4,805.6c22.5,60-47.5,147.6-112.6,145.1C9753.1,2070.4,9417.8,1870.2,9037.6,1627.6z"/></g></g>
</svg>