<?xml version="1.0" encoding="utf-8"?>
<!-- Generator: Adobe Illustrator 25.2.1, SVG Export Plug-In . SVG Version: 6.00 Build 0)  -->
<svg version="1.1" id="Ebene_1" xmlns="http://www.w3.org/2000/svg" xmlns:xlink="http://www.w3.org/1999/xlink" x="0px" y="0px"
	 viewBox="0 0 1000 1000" style="enable-background:new 0 0 1000 1000;" xml:space="preserve">
<style type="text/css">
	.st0{fill:none;}
	.st1{fill-rule:evenodd;clip-rule:evenodd;}
</style>
<path class="st0" d="M-7,0H993v1000H-7V0z"/>
<g>
	<g>
		<path class="st1" d="M799.5,619.1c-1.7-1.3-3.1-3.4-4.8-4.8c-4.2-3.5-8.4-7.3-12.8-10.4c-6.3-4.5-13.5-7.7-20.2-11.9
			c-15.4-9.7-30.8-23.8-40.7-38.9c-2.3-3.5-3.7-7-5.9-10.4c-3.5-5.4-7.4-11.4-10.1-17.5c-3.8-8.6-5.5-18.5-8.3-28.2
			c-1.1-3.9-0.7-7.3-1.8-11c-1.9-6.6-4.3-13.9-6.2-20.2c-2-6.5-2.9-13.1-4.8-19.3c-0.3-2.3-0.6-4.6-0.9-6.8
			c-2.4-9.1-2.8-20.2-5.1-29.7c-0.3-4.1-0.6-8.1-0.9-12.2c-1.1-4.9-1-11-2.1-16.1v-4.5c-2.6-11.2-1.5-24.4-4.8-35.1
			c-0.9-2.8-0.2-5.2-0.9-8c-3.6-13.8-6.8-27.7-11.3-40.7c-3-8.9-4.4-17.8-8.3-25.6c-2.2-4.3-4.6-8.7-7.1-12.8
			c-0.9-1.4-2.4-2.8-3.3-4.2c-1.7-2.8-3.2-5.8-5.4-8.3c-2.8-3.3-6.2-6.7-8.6-10.4c-1.9-2.9-3-6.6-4.8-9.5c-0.9-1.5-0.4-3-0.9-4.8
			c-0.6-2.1-1.5-5.2-2.1-7.7v-3c-1.3-4.3-0.8-9.5-1.8-14v-3.6c-0.8-3.3-0.3-7.2-1.2-11c-1.5-6.4-2.8-13.2-5.6-18.4
			c-6.2-11.2-17.7-18.6-28.8-25c-1.4-0.8-3.1-2.4-4.5-3.3c-0.9-0.3-1.8-0.6-2.7-0.9c-0.1-0.3-0.2-0.6-0.3-0.9
			c-0.9-0.6-1.8-0.3-2.7-0.9c-1.3-0.9-3-2.3-4.5-3c-0.8-0.4-1.4-0.1-2.1-0.6c-9-5.9-19.3-10.9-28.2-16.6c-0.9-0.3-1.8-0.6-2.7-0.9
			c-3.7-2.5-7.7-5.1-11.3-7.7c-0.8-0.6-1.9-0.3-2.7-0.9c-5.1-4-11-7.5-16.1-11.6c-1.4-1.2-3.4-1.5-4.8-2.7
			c-6.3-5.4-12.9-10.5-19.6-15.5c-0.9-0.7-1.5-2.2-2.4-3c-2.6-2.1-5.4-3.9-7.7-6.2c-2.2-2.2-4.1-5.2-6.8-6.8v-0.9
			c-2.7-0.7-8.7-9.3-10.7-11.6c-5.2-6-10.7-12.4-15.2-19c-2.7-4.1-4.9-8.8-8.9-11.6h-1.2c-0.6-0.3-1.3-1.2-1.8-1.5
			c-0.4,0.2-1.9,0.1-2.1,0c-0.5,0.1-3.2,1.1-3,2.4c-0.3-0.1-0.6-0.2-0.9-0.3c0.2,1.2-0.4,2.6-0.3,3.9c0.3,2.4,0.3,5.1,0.3,9.2v5.6
			c0.8,3.2-0.3,6.1,0.6,9.2c1.7,6,1.8,12.5,3.3,18.4c0.9,3.4,1,6.3,1.8,9.5c0.1,1.2,0.2,2.4,0.3,3.6h0.6c1.1,2.2,0.2,5,1.2,7.4
			c1.5,3.7,1.7,7.1,3,11.6c3.4,11.7,9.5,33.2,7.4,44.9v4.2c-2,9.2-5.5,18.1-11.9,23.8c0.2,0.2-3.1,5.1-3.9,5.9
			c-0.7,0.8-2,1.5-2.7,2.4c-0.1,0.4-0.2,0.8-0.3,1.2c-0.2,0.2-1,0.3-1.2,0.6c-4.3,5.5-8.4,10.9-12.8,16.4c-2.7,3.3-6.4,6.4-8.6,10.1
			c-6,10.2-5.5,27.4-10.4,38.7c-8,18.3-23,29.8-31.2,48.8c-8.6,19.9-10.9,44.3-17.5,66.3c-0.4,2.4-0.8,4.8-1.2,7.1
			c-0.8,2.6-1.6,6-2.4,8.6c-0.2,1.5-0.4,3-0.6,4.5c-2.2,6.2-3.1,13-5.4,19.6c-4.9,14.3-8,29.7-12.8,44c-1.7,5.1-2,9.8-3.9,14.9
			c-4.4,12.2-9.7,24.4-14.6,36c-5.3,12.6-7.5,26.5-14.6,37.2c-4.2,6.3-10,11.2-14.3,17.2c-5,7.1-8.3,14.8-15.5,19.6
			c-11.2,7.6-27.5,9.6-38.7,17.2c-4,2.7-7,6.8-10.7,9.8c-6.2,5-12.2,9.9-18.4,14.9c-2.8,2.2-4.8,5.8-7.7,7.7v1.2
			c5.3,0.4,11.3,1.4,16.4,2.4c0.7,0.1,1.9-0.4,2.7-0.3c2.9,0.5,5.5,0.7,8.9,1.2c2.4,0.4,3.8-0.7,6.2-0.3c6.2,0.9,14.8,0,22.3,1.8
			c1.3,0.1,2.6,0.2,3.9,0.3c9.5,2.7,18.7,4.7,27.1,8.6c1.9,0.9,4.1,2.4,5.9,3.3c3.6,1.6,6.9,3.2,10.1,4.8c2,1,4.8,1.1,6.2,2.7
			c0.2,0.1,1.1,2.7,1.2,3.6c-0.3,0.4-1.1,1.5-0.6,2.7c0.3,0.7,1.5,2.1,1.8,3c0.3,2.6,0.6,5.2,0.9,7.7c1.6,5.2,4.7,10,6.2,15.2
			c1.4,4.9,1.8,9.9,4.2,14c1.5,2.6,1.4,7,3.3,8.3c-0.3,0.2-0.1,0.1-0.6,0.3c0.2,1.5,1.1,3.1,1.5,4.5v3c0.4,1,1.6,2,1.8,3.3
			c0.8,4.9,1.7,10.9,3.3,14.9c0.1,1,0.2,2,0.3,3c0.3,0.2,0.6,0.4,0.9,0.6c-0.1,0.5-0.2,1-0.3,1.5c0.4,1.6,0.8,3.8,1.2,5.1
			c0.4,1.5,1.6,3.2,2.1,4.5v2.1c0.2,0.7,0.5,2,0.9,3l0.9,0.9c-0.1,0.6-0.2,1.2-0.3,1.8c0.3,1.2,1.4,2.6,1.8,3.6
			c0.1,1.3,0.2,2.6,0.3,3.9c0.2,0.4,1.3,1.4,1.5,1.8c0.4,0.8-0.1,1.9,0,2.1h0.6c0.1,0.1-0.3,1.1,0,1.8c0.3,0.6,1.2,1.3,1.5,1.8v1.8
			c0.5,1.2,1.6,3.1,2.1,4.5c0.1,0.3-0.6,0.6-0.3,1.2c0,0,1.4,1.1,1.5,1.2v1.8h0.6c0.6,1,0.5,2.1,1.2,3c0.4,0.2,0.8,0.4,1.2,0.6
			c0.8,1,0.2,1.3,0.9,2.4c0.6,0.5,1.2,1,1.8,1.5c1.1,2,1.3,3.9,2.4,5.9c0.7,0.6,1.4,1.2,2.1,1.8c1.1,1.7,1.6,3.3,2.7,5.1
			c0.6,0.9,2.1,1.4,3,2.1c0.5,0.4-0.1,1.4,0.6,2.1c0.5,0.1,1,0.2,1.5,0.3v0.3c0.6,0.5,0.9,1.3,1.5,1.8c0.4,0.1,0.8,0.2,1.2,0.3
			c0.1,0.6,0.2,1.2,0.3,1.8c1,2.4,2.8,5.2,3.9,7.4c0.4,0.9,0.1,1.6,0.6,2.4c0.7,0.7,1.4,1.4,2.1,2.1c0.4,0.7,0.1,1.7,0.6,2.4
			c0.3,0.4,1.3,0.4,1.5,0.9c0.2,0.5-0.1,1.9,0.6,3c1.2,1.8,3.2,3.3,4.5,5.1c0.2,0.7,0.4,1.4,0.6,2.1c0.5,0.8,2,1.1,2.4,1.8
			c0.1,0.7,0.2,1.4,0.3,2.1h0.6c0.8,1.3,0.7,2.4,1.5,3.6c0.8,0.7,1.6,1.4,2.4,2.1c0.8,1.1,1.2,2.4,2.1,3.6c0.5,0.3,1,0.6,1.5,0.9
			c0.8,1,0.7,2.6,1.5,3.6c0.7,0.9,2.4,2.5,3,3.6v1.5c0.4,0.2,0.8,0.4,1.2,0.6c0.3,1.3,0.6,2.6,0.9,3.9c0.6,0.1,0.6,0.1,0.9,0.3
			c1.4,0.7,3.2,5.1,4.2,6.5c0.4,0.6,1.4,0.9,1.8,1.5c1.4,2.2,2.1,4.1,3.6,6.2c1.5,2.2,4.4,4.1,5.6,6.5v1.5c0.3,0.6,1.4,0.7,1.8,1.2
			c0.5,0.6,0.2,1.4,0.6,2.1c0.7,1.2,2.7,3.1,3.6,4.2c1.1,1.3,1.7,3.8,2.7,5.4c0.5,0.4,1,0.8,1.5,1.2c0.2,0.9,0.4,1.8,0.6,2.7
			c0.2,0.3,1,0.3,1.2,0.6c0.6,0.9,0.5,2.1,1.2,3c0.2,0.3,1,0.5,1.2,0.9c2.4,4.3,3.2,9.2,5.6,13.4c0.3,0.1,0.6,0.2,0.9,0.3
			c0.1,1.1,0.2,2.2,0.3,3.3c0.6,1.7,2.6,3.7,3.3,5.4c0.1,0.9,0.2,1.8,0.3,2.7c0.3,0.1,0.6,0.2,0.9,0.3c0.1,0.7,0.2,1.4,0.3,2.1
			c0.2,0.2,1,0.3,1.2,0.6c0.5,0.8,0.2,1.5,0.6,2.4c0.5,1.2,1.9,2.6,2.4,3.9c0.5,1.2,0.2,2.3,0.9,3.3c0.3,0.1,0.6,0.2,0.9,0.3
			c0.8,1.5,0.9,3.3,1.8,4.8c0.3,0.5,1.5,1.2,1.8,1.8c0.4,0.9-0.5,2.2-0.3,2.7c0.3,0.1,0.6,0.2,0.9,0.3c0.6,1.1,0,2.1,0.6,3.3
			c0.4,0.7,1.8,1.8,2.1,2.7c-0.1,0.4-0.2,0.8-0.3,1.2c0.4,1.6,1.8,5,3,5.9c-0.3,0.6-0.5,2-0.9,2.7c0.1,1.2,0.1,1.3,0.9,1.8
			c-1.1,2.9-0.6,6.8,1.2,9.2c0.4,0.5,1.4,0.6,1.8,1.2c0.5,0.9-0.5,1,0,2.1c0.6,1.2,2.8,2.4,3.9,3.3c1.1,1,1.7,2.4,2.7,3.6
			c0.4,0.4,1,0.3,1.5,0.6c0.4,0.7,0.8,1.4,1.2,2.1h1.2c0.4,0.2,0.5,1.3,0.9,1.5h1.2c0.6,0.3,1,1.4,1.5,1.8h0.9
			c1.1,0.6,2.8,2,3.9,2.4c0.5,0.2,1.5,0,2.4,0.6c0.5,0.3,0.5,1.5,0.9,1.8h1.2c0.6,0.3,1.3,1.5,1.8,1.8h2.4c0.3,0.6,0.6,1.2,0.9,1.8
			h1.5c2.5,0.8,6.1,2.2,8,0.9c0.6,1,1.4,1.3,1.8,2.4c4.2-0.3,6.9-1.2,10.4-2.1c1.9-0.5,3.7,1,5.4,0c0.1-0.3,0.2-0.6,0.3-0.9
			c1.2,1.1,1.7-0.2,2.7,0c0.5,0.1,1.9,0.8,2.4,0.9c1.1,0.2,2.3-0.6,3-0.9c0.8,0.3,3.5,0.1,5.1-0.6c0.4-0.2,1-1.1,1.5-1.2
			c1.7-0.4,3.7,1.2,4.8,1.5c1,0.3,0.9-0.5,1.2-0.6c0.1,0,4.8,0.3,4.8,0.3c1.8,0.4,3.6,2,5.1,2.4c1.8,0.5,3.7-0.6,5.1-0.9
			c1.3-0.3,3,0.7,3.9,0.9c0.9,0.2,2.5-0.3,2.7-0.3c1.9,0,3-1.5,4.2,0c2-0.3,4.9-1.9,6.5-3c0.2-0.3,0.4-0.6,0.6-0.9h2.1
			c0.8-0.3,1.1-1.4,1.8-1.8h1.5c0.1-0.4,0.2-0.8,0.3-1.2c0.4-0.4,1.4-0.5,1.8-0.9c0.2-0.3,0.2-0.3,0.3-0.9c1.8-0.3,1.7-1.2,3.3-1.5
			c0.6-3.4,2.8-2.4,3.9-3.9c0.1-0.5,0.2-1,0.3-1.5c0.6-0.9,2.2-1.8,2.7-2.7V969c0.4-1.2,1.7-2.6,2.4-3.9h1.2c0.5-3,2.3-5.7,3.3-8
			c1.1-2.5-0.2-4.8,0.9-6.5c0.9-0.7,1.8-1.4,2.7-2.1c-0.1-0.4-0.2-0.8-0.3-1.2c0.3-0.6,1.4-0.4,1.8-0.9c0.7-1-0.5-2.3,0-3.3
			c0.3-0.1,0.6-0.2,0.9-0.3c0.7-1.3,1.4-4.4,1.2-5.6c0.5-0.2,0.5-0.2,1.2-0.3c0.3-2.3,2.3-4.4,3.3-6.2c0.8-1.6,0.4-3.5,1.2-5.1
			c0.3-0.5,1.6-1.3,1.8-1.8c0.4-1.1-0.8-1.4-0.3-3c0.3-1.1,1.4-1.3,1.8-2.1v-2.1c0.3-0.6,0.9-1.9,1.5-2.7c0.3-0.2,0.3-0.2,0.9-0.3
			c0.4-2.5,1.7-3.9,2.7-5.6c0.7-1.3-0.1-2.5,0.6-3.9c0.5-1.1,2.1-2.2,2.7-3.3c0.3-1.1,0.6-2.2,0.9-3.3c0.5-0.3,1-0.6,1.5-0.9
			c0.6-0.8,0.8-2,1.5-2.7c0.4-0.3,0.9,0.1,1.2-0.3v-1.2c0.3-0.6,1-1.9,1.5-2.7c0.3-0.1,0.6-0.2,0.9-0.3c1.6-1.9,1.7-5,3.6-6.8
			c0.5-0.3,0,0,0.9,0c0.5-2.2,1.8-4.5,3-6.2c0.5-0.3,1-0.6,1.5-0.9c0.4-0.7,0.1-1.5,0.6-2.1c0.2-0.3,1-0.3,1.2-0.6
			c0.3-0.9,0.6-1.8,0.9-2.7c0.5-0.7,1.9-1.1,2.4-1.8v-0.9c0.4-0.6,1.3-0.4,1.8-0.9c0.1-0.5,0.2-1,0.3-1.5c0.3-0.4,1.2-0.5,1.5-0.9
			c0.1-0.8,0.2-1.6,0.3-2.4c0.9-1.9,2.8-4,3.9-5.9c0.6-0.2,0.6,0,1.2-0.3c0.3-0.5,0,0,0-0.9c2.1-1.3,5-2.2,6.8-3.9
			c0-0.1,1.3-2.8,1.8-3.6c0.3-0.2,0.3-0.2,0.9-0.3c0.3-1.5,1.1-1.4,1.8-2.4h0.9c0.6-2.3,2.6-2,3.6-3.6c0.9-1.5,1.7-3.5,3-4.5v-0.3
			c-3.4,0.2-4.9,3.1-7.7,3.9v0.9c-0.3,0.1-8.3,5-8.6,5.4c-0.6,0.6-0.5,1.6-1.2,2.1c-0.8,0.5-1.5,0.1-2.4,0.6
			c-0.4,0.6-0.8,1.2-1.2,1.8c-0.7,0.6-2.3,0.7-3,1.2c-0.1,0.4-0.2,0.8-0.3,1.2c-0.7,0.2-1.4,0.4-2.1,0.6c-1.1,1.2-1.2,2.6-2.7,3.6
			v0.9c-2.7,0.5-2.2,2.7-3.6,4.5c-0.8,1.1-2.2,1.7-3,3h-0.9v1.2c-3.9,1.9-5.7,4.7-8.6,7.4c-0.9,0.9-2.3,1.2-3.3,2.1
			c-0.6,0.5-0.7,1.7-1.5,2.1c-1,0.6-2.2,0.4-3,1.2c-1.5,1.6-2.2,4.5-3.6,6.2c-0.9,1.2-2.7,1.4-3.6,2.7h-0.9v0.9
			c-0.8,0.4-0.6,1.1-1.2,1.5c-0.9,0.6-1.5,0.3-2.4,0.9c-1.3,0.9-1.9,3-3,4.2c-3.3,3.4-8.3,3-10.4,8H562v1.2h-1.2v1.2
			c-0.9,0.9-1.5,2.1-2.4,3c-0.3,0.3-1.3,0.5-1.5,0.9v1.5h-0.3c-0.8,0.7-1.6,1.4-2.4,2.1c-0.1,0.4-0.2,0.8-0.3,1.2
			c-0.7,0.6-1.5,0.2-2.1,0.9c-0.6,0.8-1.7,3.7-2.4,4.2h-1.2c-0.5,0.4-0.2,1.2-0.6,1.8c-1.5,2.2-4.5,2-5.1,5.4h-0.9
			c-1,2.4-3.2,3.3-5.4,4.5v0.9h-0.9c-0.6,0.7-1.8,1.4-2.7,1.8v0.9c-3,0-3.3,1.3-5.4,1.8c-0.7-0.1-1.4-0.2-2.1-0.3
			c-0.3,0.5-0.6,1-0.9,1.5c-0.8,0.3-4.8-0.3-5.9,0c-0.5,0.1-1.1,1.1-1.5,1.2c-1.1,0.4-8.5-1.9-10.4-2.1c-0.2,1.1-0.8,2.1-1.5,2.7
			c-0.1,2.4-0.1,4,2.1,4.2c-0.3,0.8-0.2,1.2,0,2.1c0.5,0.1,1,0.2,1.5,0.3v1.8c2.1,0.3,6.9,5,8.3,6.5c0.2,0.3,0.2,0.3,0.3,0.9h0.9
			c0.8,1.9,1.9,1.8,2.7,3c0.8,1.3,0.9,2.7,1.8,3.9c-0.1,0.3-0.2,0.6-0.3,0.9h-1.8c0.1,1,0.4,1.1,0,1.8c-0.1,0.3-0.2,0.6-0.3,0.9
			c-1.1,0.2-3.5,0.2-4.2,0.6c-0.2,0.3-0.2,0.3-0.3,0.9c-3.3-0.1-5.6,0.3-8-0.3c-1.3-0.3-1.9,0.4-2.7,0c-1.1,0.1-1.1,0.2-1.8,0.6
			c0.2,1,0.4,0.7,0.6,1.8c1.5,0.2,1.8,0.6,3.6,0.6v-0.9c1.5,0.4,2,1.1,3.6,1.5c-1.3,2.3-4.9,2.2-6.5,2.1c-1.6-0.1-1.3,1.2-2.7,0.9
			c-0.1,0-1-0.8-1.2-0.9c-1.1-0.3-3.1,0.4-3.6,0.3c-0.2-0.3-0.4-0.6-0.6-0.9c-1.4-0.1-2.8-0.2-4.2-0.3v-0.9
			c-2.2,0.1-4.4,0.3-5.6,0.3c-0.2,0.5-0.2,0.5-0.3,1.2H485c-0.1-1.2-0.3-1-0.6-1.8c-1.2,0.3-0.8,0.8-1.2,0.9
			c-0.7,0.2-2.7-0.8-3.9-0.9v-1.2h-1.2c-0.1-0.8-0.2-1.6-0.3-2.4h-2.1v-0.9c-1.3-0.1-2.3-0.3-3-0.9c-2.6-0.2-3.7-2.4-4.8-4.2
			c-0.4-0.7,0-1.6-0.6-2.1c-0.5-0.5-1.7-0.3-2.1-0.9v-2.1c-0.5-1.4-1.2-3.3-2.1-4.5c-0.5-0.7-1.6-0.7-2.4-1.2
			c-0.9-0.6-0.5-1.8-1.2-2.7c-1-0.7-2-1.4-3-2.1c-0.4-0.7-1.4-5.2-1.5-5.9h-1.5c-0.5-2.3-1.3-5-2.1-6.8v-2.7c-0.4-0.9-1.9-1.6-1.2-3
			c-0.3-1.1-0.3-1-1.5-1.2c0.4-2.3-0.6-2.4-1.2-4.2v-1.8c-0.3-0.1-0.6-0.2-0.9-0.3c-0.5-0.9-0.2-3.1-0.6-4.2
			c-1.4-3.4-3.5-6.6-4.8-10.4h-1.2c-0.2-2-1.2-1.7-1.8-3c-0.1-0.6-0.2-1.2-0.3-1.8c-0.2-0.2-1-0.4-1.2-0.6c-0.4-0.5-1.3-2-1.5-2.4
			c-0.7-1.3-0.5-2.3-1.2-3.6c-0.6-1.1-1.7-1.9-2.1-3.3c-0.5-0.1-1-0.2-1.5-0.3v-2.4c-1.5-1.2-1.8-2.9-3-4.5c-0.5-0.3-1-0.6-1.5-0.9
			c-0.4-0.6-0.2-1.2-0.6-1.8c-0.8-0.6-1.6-1.2-2.4-1.8c-0.1-0.2,0.5-0.6,0.3-1.2c-0.4-1-1.2-1-1.5-2.4c-1.3-0.3-1.7-0.9-2.7-1.5
			c-0.1-1.4-0.5-1.8-0.6-3.3c-2.5-0.3-2.6-2.7-3.9-4.2c-0.4-0.5-1.4-0.4-1.8-0.9c-0.1-0.5-0.2-1-0.3-1.5c-0.6-0.9-2.1-1.3-2.7-2.4
			v-1.2l-1.8-0.9v-1.5c-0.4-0.8-1.6-1.9-2.1-2.7c-0.1-0.6-0.2-1.2-0.3-1.8c-1.2-2-4.8-3.9-5.9-5.9c-0.1-0.6-0.2-1.2-0.3-1.8
			c-1.9-3.4-4.6-6.7-6.8-9.8c-0.6-0.9-0.5-2.2-1.2-3c-0.9-1-2.5-2.1-3.3-3.3v-0.9c-0.5-0.3-1-0.6-1.5-0.9c-0.1-0.4-0.2-0.8-0.3-1.2
			c-0.3-0.1-0.6-0.2-0.9-0.3c-0.1-0.6-0.2-1.2-0.3-1.8c-0.5-1-1.6-1.8-2.1-2.7c-0.9-1.7-1.1-3.1-2.1-4.8c-0.7-0.6-1.4-1.2-2.1-1.8
			V815c-1.2-1.6-4.3-5.4-4.8-7.4c-0.6-0.1-0.6-0.1-0.9-0.3c-0.3-0.6,0.4-0.6,0-1.5l-3.3-3.3c-0.1-0.2,0.6-0.9,0.3-1.5
			c-0.5-0.3-1-0.6-1.5-0.9c-0.9-1.3-0.5-2.7-1.2-4.2c-0.8-1.9-2.5-4.2-3.3-6.2c-1-2.7,1.8-3.8,0.9-6.5c-0.2-0.6-1.2-1.2-1.5-1.8
			c-0.9-1.9-0.9-8.3-0.9-8.3c-0.2-1.5-1.4-2.6-1.5-3.9c0-0.2,0.6-1.1,0.6-1.2c-0.1-1.2-0.2-2.4-0.3-3.6c0.8-3.4,1.4-6.9,2.4-9.8
			v-1.5h0.6c0.2-0.7,0.4-1.4,0.6-2.1c0.4-0.6,1.3-1,1.8-1.5c1.3-1.4,2.1-3.5,3.3-5.1c0.6-0.4,1.2-0.8,1.8-1.2v-0.9
			c0.3-0.1,0.6-0.2,0.9-0.3c0.7-0.8,1.3-2,2.1-2.7c1.3-1.1,3.6-0.8,5.1-1.8c1-0.6,1.5-2.3,2.4-3c1-0.7,2.4-0.7,3.3-1.5
			c0.3-0.6,0.1-0.2,0-0.9c0.3,0,6.4,2.1,7.4,2.7c2.6,1.5,4.7,4.7,8,5.6c-0.2,2.2-1.1,3.6-1.5,5.4c-1.1,5.2-1.2,12.9-2.7,18.4
			c-1,3.7,1.7,14.2,2.4,16.4c0.8,2.5,0,4.3,1.2,6.2v6.8c0.2,0.1,0.4,0.2,0.6,0.3v2.1c0.1,0.2,1.1,0.6,1.2,0.9c0.7,1.5,0.2,5.6,0.9,8
			c0.7,2.7,2,4.7,3,7.1c0.6,1.5,0.3,3,0.9,4.5c0.9,2,4.8,4.3,5.1,6.2c0.9,0.2,2,0.6,2.7,1.2c3.1,0,3.4-0.9,5.1-2.1
			c0-3.6-0.3-8.3-1.8-11c0.2-0.5,0.8-0.6,0.6-1.5c-0.3-1.3-1.7-2.9-2.1-4.2v-3.6c-0.3-0.6-1.3-1.8-1.5-2.7c-0.1-0.7,0.6-1.4,0.3-2.4
			c-0.2-0.6-1-1.9-1.2-2.7c0.1-0.6,0.2-1.2,0.3-1.8c-0.1-0.4-1.5-2.8-1.5-3c-0.3-1.1,1-2.7,0.6-4.5c-0.9-3.7-1.8-8.2-2.7-11.9
			c-0.4-1.8,0.3-4,0.6-5.4c0.1-2.2,0.2-4.4,0.3-6.5c0.6-1.4,1.4-4.3,1.8-5.6v-2.7c0.7-2.2,2-4.2,2.4-6.8c0.7-0.3,1.3-0.6,1.8-1.2
			c3.5,0,6.5,1.2,9.8,0.6c0.6-0.1,2.2-0.7,3.6-0.6c3.5,0.2,5.4,0.5,8-0.6c2-0.8,3.6-0.1,5.1-1.2c3.7,0,3.3-2.6,5.4-4.2
			c0.1-2.2,0.1-4,0-6.2c-1.9-0.4-2.7-2.2-4.2-3c-1.3-0.7-2.2-0.5-3.6-1.2c-0.1-0.3-0.2-0.6-0.3-0.9c-2.6-1.4-8.6,1.5-10.4,1.8
			c-1.7,0.3-4-0.3-5.6,0c-2.1,0.4-8-0.9-9.5,0c-1.3-0.3-1.2-1.1-2.1-1.8c0.7-6,0.1-12.8,2.4-17.8c0.9-1.9-0.5-5.5-1.2-6.2
			c0.1-0.7,0.1-0.8,0.3-1.2c0,0,6.9,1.9,7.7,2.4c0.7,0.4,1.2,1.8,1.8,2.1h1.8c1.4,0.5,3.2,1.5,4.5,2.1c1.6,0.8,3.7,0.5,5.4,1.2
			c1.7,0.8,3.5,2.6,5.1,3.6c2,1.2,4.3,1.5,6.2,2.7l5.1,4.5c0.5,0.8,0.4,1.6,0.9,2.4c0.9,1.3,2.6,2.1,3.6,3.3
			c1.1,1.3,1.1,2.9,2.1,4.5c0.3,0.2,0.6,0.4,0.9,0.6c1.1,1.9,1.2,4.7,2.4,6.5c-0.3,1.9-3.5,6.1-4.8,7.1c-0.5,0.4-1.2,0.4-1.5,0.9
			c-0.6,1.1-0.5,2.3-1.2,3.3c0.1,2.8,1.9,4.2,3,6.2c6.7,1.3,11.5,3.7,14,9.2c0.6,1.2,2.1,4.6,0.9,6.5c-0.6,3-4.9,4.6-6.8,6.5
			c-3.2,3.2-6,6.5-8.6,10.4c-0.6,0.9-1.9,1.3-2.4,2.4c-0.1,1.1-0.2,2.2-0.3,3.3l-0.9,0.9c-0.3,0.6-1.8,7.5-1.8,7.7
			c0.3,1.2,2.3,5.1,2.4,5.6c0,0.3-0.5,0.8-0.3,1.5c0.2,0.7,1.2,2.2,1.5,3c0.2,1,0.4,2,0.6,3c0.6,1.2,5,4.8,6.2,5.9
			c0.7,0.7,0.6,1.8,1.2,2.7c0.8,1.3,3.3,2.2,3.9,3.6c-0.1,0.5-0.2,1-0.3,1.5c0.3,0.1,0.6,0.2,0.9,0.3c0.6,0.7,1.1,2.1,1.5,3h1.2
			c0.1,0.6,0.1,0.6,0.3,0.9c0.8,1.7,2.5,1.6,3.9,2.7c0.2,0.3,0.2,0.3,0.3,0.9c3.4,0.6,5.9,4.5,7.7,6.8c0.6,0.7,2.1,0.5,2.7,1.2
			c0.9,1.1,1,2.9,2.1,3.9c0.5,0.4,1.1,0.1,1.5,0.6c0.2,0.6,0.4,1.2,0.6,1.8c1.7,1.3,4.1,1.3,5.9,2.4c1.1,0.6,2.3,2.5,3.6,3
			c0.6-0.1,1.2-0.2,1.8-0.3c0.5,0.1,1.7,1,2.1,1.2h2.1v0.6c0.7,0.7,2.5,1.6,4.2,1.2c2.2-0.5,3.2-2.1,5.4-2.4c-0.2-2,1.2-4.2,0.6-6.5
			c-1.9-7.7-3.5-13.5-0.9-20.8c0.1-0.8,0.2-1.6,0.3-2.4c1.7-3.8,5.3-5.7,6.5-10.1c0.4-1.4-2.1-9.2-2.7-10.7
			c-0.1-0.4-0.7-0.1-0.6-0.9c0.1-0.7,0.8-2.3,0.9-3c-0.1-1-0.2-2-0.3-3c0.6-2.9,0.3-7.3-0.3-9.8c-0.3-1.4,0.4-2.6,0.6-3.3
			c0.5-1.5-0.5-4.1-0.6-5.4c-0.3-3.1,1-7.9,0.3-11v-7.4c-0.3-5.4,0.2-11.6,0-17.5c-0.1-2.9,2.1-8.9,0.6-11.3
			c-0.3-5.3-5.8-4.2-9.5-5.9c-1.7-0.8-3.7-2.5-5.4-3.3c-1.8-0.8-3.2-0.8-4.8-1.8c-0.8-0.5-1.1-1.7-2.1-2.1c-1.8-0.7-3.5-0.3-5.1-1.2
			c-0.6-0.3-1.4-1.5-2.1-1.8c-0.9-0.1-1.8-0.2-2.7-0.3c-0.6-0.3-1.3-1.4-1.8-1.8c-0.5-0.1-1-0.2-1.5-0.3c-0.7-0.7-1.4-1.4-2.1-2.1
			H482c-0.9-0.5-1.1-1.6-1.8-2.4c-0.7-0.8-2.1-0.8-3-1.5c-0.6-0.5-1.2-1.5-1.8-2.1c-2.2-1.9-6.5-3.8-9.2-5.4c-1.1-0.6-1.5-2-2.4-2.7
			c-1.9-1.5-4.3-2-6.2-3.6c-1.6-1.3-3.2-2.9-4.8-4.2c-1.4-1.1-3.2-1.2-4.5-2.4c-0.8-0.7-1.4-1.8-2.4-2.4c-1-0.6-1.9-0.4-2.7-1.2
			c-2-2-4.1-4.8-6.5-6.2c-0.5-0.1-1-0.2-1.5-0.3c-0.6-0.4-0.6-1.6-1.2-2.1c-0.9-0.7-1.9-0.7-2.7-1.5h-0.3v-0.3
			c9.5,1.3,19,2.6,28.5,3.9c8,1.8,17.1,0.6,25,2.4c11.8,0.6,23.6,1.2,35.4,1.8h5.9c6.1,0,13,0.3,18.1-0.9h7.1
			c4.4-1.1,9.8-0.4,14.6-1.5c5.6-1.3,12.6-1.7,18.1-3h3.3c4.9-1.2,10.8-2.1,16.1-2.7c-0.4,0.3-6.6,3-6.8,3c-0.8,0-2.2-0.3-3.3,0.3
			c-3.7,2.1-8.3,3.9-12.2,5.6c-1.1,0.1-2.2,0.2-3.3,0.3c-0.1,0.3-0.2,0.6-0.3,0.9c-1,0.7-2.2,0.3-3.3,0.9c-1.7,0.9-3.7,2.3-5.4,3.3
			c-0.7,0.2-1.4,0.4-2.1,0.6c-1.4,1-3.7,3.1-5.1,3.9c-2.2,1.2-4.3,1.5-6.2,3c-1.5,1.1-2.7,2.9-3.9,4.5c-2.2,2.9-5.8,5-8.3,7.7
			c-2.1,2.3-6.9,6.1-8.3,8.6c-1.1,2-0.5,4.1-1.2,6.5c-0.4,1.4-2.1,4.1-0.9,5.9c0.4,0.7,0.7,0.7,1.2,1.2c4.8-0.2,12.8-6.5,16.6-8.6
			c1.2-0.7,3.2-0.4,4.5-1.2c1-0.6,1.9-2.2,3-2.7c1.1-0.1,2.2-0.2,3.3-0.3c1.3-0.6,2.7-2.3,3.9-3h1.2c1.6-0.8,3.2-2.5,5.4-3
			c0.5,0.1,1,0.2,1.5,0.3c0.9-0.4,2.1-1.9,3-2.4c1.1-0.6,3-1.5,3.9-1.8h1.8c0.3-0.1,1.2-1.1,1.5-1.2c1-0.3,4.7,0.8,5.4,0.6
			c2.6-0.6,5.4-0.7,9.2-0.6c-0.2,1.3-1.1,2.9-0.3,4.8c0.2,0.5,1,1.3,1.2,2.1c0.8,3.4-1.2,10.5-2.1,12.8c-0.9,2.3-0.3,4.8-2.7,5.6
			c-1.4,0.9-4.3,0-6.2,0.3c-1.5,0.2-9-0.5-11.3-1.5c-0.7-0.3-1.1-1.7-1.8-2.1c-0.8-0.5-1.5-0.1-2.4-0.6c-0.3-0.4-0.6-0.8-0.9-1.2
			c-1.3-0.8-2.9,0.5-4.2-0.3c-3.4-0.1-4,2.8-3.9,6.2c1.4,1.5,2.1,3.2,3.3,5.1c0.9,0.7,1.8,1.4,2.7,2.1c0.1,0.6,0.2,1.2,0.3,1.8
			c0.2,0.3,8.8,4.8,9.5,5.1c1.8,0.1,3.6,0.2,5.4,0.3c2.6,0.9,6.7,0.7,9.8,1.2c1.4,0.2,1.3-0.8,2.4-0.3c1.1,0,2,0.1,2.7,0.3
			c0.6,1.4,1.1,3.6,1.5,5.1v3.6c0.2,0.6,0.9,1.4,1.2,1.8c0.7,1.1,1.4,4.5,1.8,5.6v4.2c1.3,4.6,2,15.1,0.6,20.8c-0.5,2-0.1,4.5,0,5.9
			c0.2,3-0.7,5.6-1.5,7.7c-0.7,2,0,4.3-0.3,5.6c-0.4,1.9-1.3,5.7-1.8,6.8c-0.1,1.5-0.2,3-0.3,4.5c-0.5,0.3-1,0.6-1.5,0.9
			c0.1,0.6,0.2,1.2,0.3,1.8c-0.2,0.1-0.4,0.2-0.6,0.3c-0.1,0.7-0.2,1.4-0.3,2.1c-1.7,3.4-4.8,7-4.8,12.2c5.6-0.1,6.8-3.1,12.2-2.7
			c1.1,1,2.2,2,3.3,3c-0.4,4-4.7,5.3-7.4,7.1c-1.2,0.8-2.4,2.3-3.6,3c-0.7,0.1-1.4,0.2-2.1,0.3c-1.5,0.8-2.5,3.3-4.2,4.2
			c-1.3,0.7-3,0.5-4.2,1.2c-1.7,1-2.9,3-4.5,4.2c-1.8,1.3-3.8,2.1-5.1,3.9c-1.4-0.2-2.8-0.4-4.2-0.6c-4.8,1.1-10,3.2-14,5.4
			c-1.1,0.1-2.2,0.2-3.3,0.3c-1,0.3-1.9,1.5-3,1.8c-0.6-0.1-1.2-0.2-1.8-0.3c-0.2,0.3-0.4,0.6-0.6,0.9c-0.8,0.2-1.4-0.8-2.7-0.9v0.9
			c-1.6,0.5-2.9,1.7-4.2,2.4c-1.4,0.8-2.9,0.3-4.5,0.9c-0.4,0.2-1.1,1-1.5,1.2c-2.3,0.9-3.7-0.7-6.2,0.3c-0.5,0.5-1,1-1.5,1.5h-2.4
			c-0.3,0.1-0.7,1.1-0.9,1.2H526c-0.2,0.3-0.4,0.6-0.6,0.9c-0.2,0.1-1.1-0.6-1.8-0.3c-0.4,0.4-0.8,0.8-1.2,1.2
			c-0.8,0.1-1.6,0.2-2.4,0.3c-0.1,0.3-0.2,0.6-0.3,0.9H518c-0.4,0.4-0.8,0.8-1.2,1.2c-0.7-0.1-1.4-0.2-2.1-0.3c-1.5,0.6-5.2,2-6.5,3
			c-1.8,0.1-2.5,0.3-2.7-1.5c-3.6-0.7-7-1.3-10.1-2.7c-1.4-0.6-3.1-2.1-4.8-2.7c-1.8-0.6-3,0.4-4.5,0c-0.6-0.2-1.3-1-1.8-1.2
			c-1.7-0.5-3.2,0.6-4.8,0.3c-0.9-0.2-1.8-1.2-2.4-1.5h-1.8c-0.6-0.2-1.4-1-1.8-1.2c-0.6,0.1-1.2,0.2-1.8,0.3
			c-0.1-0.1-1.9-2.3-2.1-2.4c-0.6,0.1-1.2,0.2-1.8,0.3c-0.4-0.4-0.8-0.8-1.2-1.2h-1.2l-0.6-1.2c-0.6-0.1-1.2-0.2-1.8-0.3
			c-1.2-0.5-2.9-2.2-4.2-2.7c-1.2-0.4-3.8-0.1-4.2-0.3c-2.5-1.3-2.5-3.6-6.8-3.6c-0.5-4.2-5.2-3.8-7.7-5.9c-2.6-2.3-5.2-4.4-8-6.5
			c-1.3-1-1.9-2.7-3-3.9c-0.4-0.4-1.2-0.4-1.5-0.9c-0.7-1.2-0.9-2.5-1.8-3.6c-0.3-0.4-1.1-0.2-1.5-0.6c-0.7-0.5-2.4-3.1-3-3.9
			c-2.1-2.8-2.9-6.6-7.7-5.1c-0.2-0.3-0.6-1.5-0.9-1.8c-0.5-0.4-1.1-0.1-1.5-0.6c-1.3-1.6-1.7-3.7-3-5.4c-0.5-0.6-2.9-1.7-3.3-2.4
			v-1.5c-0.3-0.4-0.8,0-1.2-0.3c-0.8-0.5-1.1-1.9-1.8-2.4c-0.7-0.5-1.4-0.2-2.1-0.6l-3-3c-0.7-0.4-1.2-0.2-1.8-0.6
			c-0.7-0.5-0.6-1.8-1.2-2.4c-0.6-0.5-1.9-0.3-2.4-0.9v-1.2c-0.5-0.4-1-0.8-1.5-1.2c-0.9-1.4-1-3.1-2.1-4.5c-1.3-1.7-3.6-3-4.8-4.8
			c-1-1.4-1-3.2-2.1-4.5c-0.9-1.1-3.2-2.5-3.9-3.6c-3.8,0.3-2,4-1.5,5.6v3c0.9,2.4,3.6,4.1,4.8,6.2c0.7,1.3,1.5,5.5,2.4,6.2
			c3,2.8,8.3,4.4,9.2,9.2c2.2,0.4,1.5,1.5,2.7,2.7c0.6,0.6,1.9,0.7,2.4,1.5c-0.6,1.4,0.2,3.3,0.9,4.5c0.6,0.9,1.9,1.1,2.7,1.8
			c0.5,0.4,0.5,1.5,0.9,2.1c0.4,0.3,0.8,0.6,1.2,0.9c1.3,2.1,1.1,4.7,2.4,6.8c1.2,2.1,4.4,3,5.6,5.1c0.2,1.3,0.4,2.6,0.6,3.9
			c0.4,0.8,1.9,0.9,2.7,1.5c1,0.8,1.2,2.6,2.4,3.3c0.6,0.1,1.2,0.2,1.8,0.3c2.1,1.3,4,5.2,5.6,7.1c0.7,0.8,2,1.2,2.7,2.1
			c0.9,1.2,1.6,4,2.4,5.1c0.3,0.1,0.6,0.2,0.9,0.3c0.6,0.9,0.6,2,1.2,3c0.5,0.4,1,0.8,1.5,1.2c0.1,0.7,0.2,1.4,0.3,2.1
			c0.7,0.8,2.3,0.7,3,1.5c0.7,0.8,0.3,1.6,0.9,2.7c0.5,0.9,1.9,1.1,2.7,1.8c0.6,0.5,0.4,1.5,0.9,2.1c0.2,0.3,2.9,1.9,3.3,2.1
			c-0.2,0.5-0.2,0.5-0.3,1.2c0.7,0.1,0.8,0.1,1.2,0.3c1.7,0.9,2.9,4.9,4.8,6.2c0.8,0.3,1.6,0.6,2.4,0.9c0.7,0.5,0.6,1.4,1.2,2.1
			c0.4,0.5,1.4,0.4,1.8,0.9c0.8,1,1.3,3.5,2.4,4.2h1.2c0.2,0.1,0.8,1.7,0.9,1.8c0.7,0.7,2.4,0.9,3,1.8c0.4,0.6,0.2,1.2,0.6,1.8
			c0.3,0.1,0.6,0.2,0.9,0.3c-0.1,0.5-0.2,1-0.3,1.5c0.5,0.3,1,0.6,1.5,0.9c0.6,0.9,0.4,1.5,1.2,2.1c0.4,0.1,0.8,0.2,1.2,0.3v0.9
			c0.5,0.8,1.6,1.6,2.1,2.4c0.1,0.5,0.2,1,0.3,1.5c1,1.2,8.9,5.1,11.3,4.8c1.1-0.2,1.2,0.7,2.7,0.6c0.8,0,1.4-0.7,2.1-0.9h0.3
			c1-0.1,1.7,0.4,2.4,0.6c1.4,0.3,1.8-0.7,2.7-0.6l0.9,0.6c0.8,0.1,2.4-0.7,3.3-0.9c2.1-0.5,5.5,0.2,6.8,0.6
			c1.9,0.6,3.9-1.2,6.2-0.3c1.9,0.7,6,1,8.3,1.5h3.6c0.4,0.1,0.3,0.8,1.2,0.6c0.1-0.2,0.2-0.4,0.3-0.6c1.3-0.3,2.4,0.7,3.6,0.3
			c0.3-0.3,0.6-0.6,0.9-0.9c0.9,0.1,1.8,0.2,2.7,0.3c0.1,0,0.4-0.8,0.6-0.9h2.7c0.2-0.3,0.4-0.6,0.6-0.9c1.3,0.7,2.1-0.3,3-0.6h2.7
			c1.6-0.6,3-2.2,4.5-3c0.9-0.4,2,0.3,2.7-0.3c0.1-0.4,0.2-0.8,0.3-1.2c0.4-0.5,1.5-1.4,2.1-1.8c1.6-1.2,3.4-0.6,4.2-2.7h1.2
			c0.2-0.9,4.2-8.6,4.8-8.9h1.5c0.5-0.3,0.5-1.3,0.9-1.8c0.6-0.8,2.1-1.3,2.7-2.1c0.6-0.8,0.1-1.9,0.6-2.7c0.5-0.8,1.9-1.3,2.4-2.1
			c1.4-2.5,2.4-5.7,5.1-6.8v-0.9h0.9c0.2-0.8,0.2-0.9,0-1.8c1.3-0.5,1.8-0.8,2.7-1.5c0.1-0.7,0.2-1.4,0.3-2.1
			c1.7-0.2,1.1-0.5,1.8-1.5c2.2-1.4,5.5-1.1,7.4-2.7c0.2-0.3,0.2-0.3,0.3-0.9c2.2-0.3,1.9-1.3,3-2.7c1,1.4,5-1.9,5.6-2.1
			c0-0.8,0-1.1-0.3-1.5c0.1-2.5,1.5-2.2,2.1-4.2c1.3-0.1,1.2-0.4,2.4-0.6v-1.2c0.9-0.1,1-0.2,1.5-0.6c0.7-0.4,0.6-0.6,0.6-1.8
			c1.6-0.4,3.4-1.2,5.1-1.5c-0.1-0.6-0.1-0.6-0.3-0.9c0.7-0.7,1.4-0.3,2.4-0.9c0.6-0.3,0.2-0.9,0.6-1.5c0.8-1.2,2.9-1.9,3.9-3
			c0.2-0.3,0.2-0.3,0.3-0.9h1.2v-0.9h0.9c0.7-1.4,1.9-2.8,3-3.9c0.3-0.1,0.6-0.2,0.9-0.3v-1.2c0.9-1.1,3-1.2,3.9-2.4V843
			c0.3-0.5,1.5-0.8,1.8-1.5c0.6-1.2,0.1-2.1,0.9-3c1-1.2,3.5-1.4,4.5-2.7c1.3-1.8,1.9-3.8,3.3-5.6c0.3-0.1,0.6-0.2,0.9-0.3
			c0.1-0.6,0.2-1.2,0.3-1.8c0.4-0.6,1.6-1.4,1.8-2.1c0.4-1.4-0.5-2.8,0.3-3.9c0.6-0.2,1.2-0.4,1.8-0.6c0.5-0.4,0.5-1.3,0.9-1.8h0.6
			l0.3-4.5c0.4-0.9,2-1.1,2.7-1.8c0.6-0.6,0.7-1.6,1.2-2.4c0.7-0.5,1.4-1,2.1-1.5c0.5-0.8-0.2-2.2,0.3-3.3c0.3-0.6,1.5-0.7,1.8-1.2
			c0.5-0.9-0.1-2,0.6-2.7c0.3-0.3,1.1-0.3,1.5-0.6c3.3-3.1,7.3-4.9,6.8-11c-0.5-0.5-0.4-0.8-1.2-1.2c-0.6-1.2-5.7-2.6-7.1-0.9
			c-3.7,0.3-2.8,3.8-4.2,6.5c-0.4,0.9-2,1.9-2.4,2.7c-0.6,1.4,0.2,4.3,0,5.1c-0.3,1.3-1.5,1.8-2.1,2.7c-1.1,1.8-0.7,4-1.8,5.9
			c-0.6,1.1-2.6,1.1-3.3,2.1c-0.8,1.1-0.3,1.5-1.8,2.1c0,2.3-0.1,3.1-0.3,5.1c-1.4,0.5-3.3,0.2-4.8,0.9c-1.4,0.6-2.2,2.8-3.3,3.9
			c-1.1,1.2-4.9,2.5-5.9,3.9c-0.1,0.7-0.2,1.4-0.3,2.1c-1.3,2.3-4.1,4.1-5.9,5.9c-2-0.3-2.2-2.5-3.6-3.6c0-4.2,2.9-5.2,4.5-8.3
			c0.2-0.9,0.4-1.8,0.6-2.7c1-2.3,2.3-5.4,3-8c-0.1-0.6-0.2-1.2-0.3-1.8c0.1-0.4,1-0.9,1.2-1.5c0.4-1.7-0.9-6-0.6-8.3
			c0.1-0.9,1-1.9,1.2-2.4c-0.1-1.1-0.2-2.2-0.3-3.3c0.3-1.4,1-3.8,1.5-5.1c0.3-1-0.2-2.7-0.3-3.3c-0.3-1.6,0.4-3,0.6-3.9
			c-0.1-1.3-0.2-2.6-0.3-3.9c0.3-1.3,1.1-5.7,0.9-6.5c-0.2-1.1-0.9-4.5-1.5-5.6c-0.3-0.1-0.6-0.2-0.9-0.3c-0.4-0.9,1.3-5.8,0.9-7.4
			c-0.2-0.8-1-2.3-1.2-3c-0.2-1.6-0.4-3.2-0.6-4.8c-0.2-0.4-1-1.1-1.2-1.5c-0.9-2.2-0.5-4.8-0.9-6.8c0.9-0.8,2-2.4,3.3-2.7
			c0.5,0.1,1,0.2,1.5,0.3c0.7-0.2,1.2-1.3,1.8-1.5c1.8-0.2,3.6-0.4,5.4-0.6c0.1,0,1-1.4,1.2-1.5c0.9-0.6,1.9-0.3,3-0.9
			c0.3-0.4,0.6-0.8,0.9-1.2c1.6-0.8,3.5-0.1,4.8-1.2c0.8-0.7,1.2-1.9,1.8-2.7c0.3-0.3,0.9-0.3,1.2-0.6c1.3-1.3,2-2.9,3-4.5
			c0.3-0.1,0.6-0.2,0.9-0.3c0.9-1.3,0-3.4,0.3-3.9c0-2.8-1.2-2.5-2.1-4.2c-0.2-0.3-0.2-0.5-0.3-1.2c-2.1-0.2-1.4-1.2-3-1.8
			c-1.9-1.3-5.3-0.7-7.7-0.6c-3.2,3.4-9.5,8.8-15.5,9.2c0.3-4.5-0.5-9.2-1.8-12.2H611c-0.6-3.1-3.3-4.4-5.1-6.2
			c-0.1-0.1-0.2-0.2-0.3-0.3h0.3c1.3-2.3,4.7-0.6,7.1-1.5c1.7-0.6,5.8-1.8,8.3-1.8c0.4,0,1,0.6,1.8,0.3c2.3-0.8,5.7-1.7,8.3-2.4
			c2.8-0.7,6.4-0.2,8.9-1.2c0.9-0.4,2.1-1.4,3-1.8c1.8-0.7,3.3-0.4,5.1-1.2c0.8-0.3,1.6-1.5,2.4-1.8c1.3-0.5,2.1-0.1,3.3-0.6
			c1.3-0.5,3-1.9,4.2-2.7c0.7-0.5,1.4-0.1,2.1-0.6c0.4-0.3,0.7-1.2,1.2-1.5c1.9-1.1,3.7-1.7,5.4-3c0.6-0.8,1.2-1.6,1.8-2.4
			c0.6-0.2,1.2-0.4,1.8-0.6c5.3-3.6,8.4-10.6,12.2-15.8c0.3-0.4,0.8-0.3,1.2-0.6c1.4-1.1,2.3-3.6,3.9-4.5c1.6-0.8,3.7-0.3,5.1-1.2
			c0.6-0.7,0.8-2.4,0.9-3.6c2.2-0.3,3.5-1.3,5.4-1.8c7.4-2.1,14.3-3.7,21.1-5.9c7-2.3,13.7-3.3,20.5-5.6c11.3-3.9,23-7.9,34.8-11
			h2.7c2.7-0.7,5.1-0.8,8.3-1.2c1.2-0.1,3.1,0.5,4.2,0.3c0.6-0.1,2.9-0.9,3.3-0.9c1.5,0,4.7,0.1,6.5-0.3c0.7,0.1,1.4,0.2,2.1,0.3
			c2.5-0.5,6-1.4,8.9-1.5C810.7,627.9,802.5,621.3,799.5,619.1z M403.8,701.1c-0.1,0.6-0.2,1.2-0.3,1.8c-0.3,0.3-0.6,0.6-0.9,0.9
			c-1.8,3.8-1.8,13.6-3.9,15.8c-0.7,0.1-2.5-1.1-3.6-1.5c-1-0.4-2.3-0.6-3-0.3c-0.6-0.8-1.2-1.6-1.8-2.4c-3.8-2.7-8.6-7.8-14.6-7.7
			c-0.6,0.7-1.1,1.4-2.1,1.8c-1.8-2.3-4-5.1-5.4-7.7c-1-2-1.2-3.7-2.4-5.4c-1-1.5-2.9-2.7-3.9-4.2c-1.4-2.1-1.9-3.7-3.6-5.9
			c-0.5-0.3-1-0.6-1.5-0.9c-0.6-1-0.3-1.9-0.9-3c-0.4-0.6-1.4-1.4-1.8-2.1c0.3-0.7,0-2.1-0.3-2.7v-0.9c0.8,0.3,1.8,1,2.4,1.2
			c0.6-0.1,1.2-0.2,1.8-0.3c0.5,0.2,0.8,1.5,1.2,1.8c0.9,0.6,2.5,0.8,3.6,0.9v0.9c0.3,0.1,0.6,0.2,0.9,0.3c0.3,0.5,0.7-0.3,1.2-0.6
			c1.6,2.4,4,1.8,5.4,4.2c1.6-0.1,1.4,0.2,3.3,0.3v0.9c0.7,0.1,1.4,0.2,2.1,0.3c0.2,0.9,0.3,0.9,0.6,1.5h2.1v0.9
			c2,0.6,3.4,0,4.5,2.1c1.7,0,1.5-0.3,1.5,0.9c0.8-0.1,1.6-0.2,2.4-0.3v-0.9c1.9,2.2,9.6,5.8,12.2,4.5c1.4,1.4,5.3,3.1,7.1,3.3
			C405.9,700.6,404.6,699.8,403.8,701.1z M590.2,675.6h-0.6V675h1.5C590.9,675.2,590.5,675.4,590.2,675.6z M596.5,674.4h-2.1
			c0.3-0.2,1.2-0.4,1.5-0.6h1.5C597.1,674,596.7,674.2,596.5,674.4z"/>
	</g>
</g>
</svg>
