<?xml version="1.0" encoding="utf-8"?>
<!-- Generator: Adobe Illustrator 25.2.1, SVG Export Plug-In . SVG Version: 6.00 Build 0)  -->
<svg version="1.1" id="Ebene_1" xmlns="http://www.w3.org/2000/svg" xmlns:xlink="http://www.w3.org/1999/xlink" x="0px" y="0px"
	 viewBox="0 0 1000 1000" style="enable-background:new 0 0 1000 1000;" xml:space="preserve">
<style type="text/css">
	.st0{fill:none;}
	.st1{fill-rule:evenodd;clip-rule:evenodd;}
</style>
<path class="st0" d="M-7,0H993v1000H-7V0z"/>
<g>
	<g>
		<path class="st1" d="M782.3,602.6c-8.7-6.2-18.8-9.8-27.5-16c-20.8-14.6-40.1-39.2-50.5-63.8c-5-11.9-4.9-24.5-8.9-38.1
			c-3.3-11.3-7.2-24.1-10.6-35.5c-2.4-14.5-4.7-29-7.1-43.4c-0.3-5.6-0.6-11.2-0.9-16.8c-3.8-16-2.3-38.4-7.1-56.7
			c-5.7-21.7-12.6-56.5-23-73.6c-8.1-13.2-21-24-26.6-39c-6.8-18.1-1.3-39.9-8.9-57.6c-12-28.1-59.4-44-85.1-60.3
			c-22.3-14.1-48.1-31.6-65.6-50.5C447.3,36.9,436.8,19.9,423.3,6c-4,0.2-4.3,0.9-7.1,1.8c0.2,29.3,3.1,54.1,10.6,78.9
			c3.2,10.6,11.6,34.6,8,49.6c-6.3,26-27.4,39.4-40.8,58.5c-7.3,10.5-6.1,29.2-11.5,41.7c-7.9,18.2-23.9,30-31.9,48.8
			c-9.5,22.3-10.2,47.9-17.7,72.7c-8.8,29-14.3,58.9-23.9,87.8c-4.7,14.2-11.3,28.3-16.8,41.7c-5.9,14.2-8,28.2-16,39.9
			c-3.2,3.2-6.5,6.5-9.8,9.8c-6.4,8.6-10.5,18.9-19.5,24.8c-11.7,7.6-27.9,8.9-39,16.8c-4.1,4.1-8.3,8.3-12.4,12.4
			c-6,4.5-11.7,8.7-17.7,13.3c-2.2,1.6-2.6,4-5.3,5.3c0.6,1.5,0.2,0.9,0.9,1.8c9.5,6.2,35.1,0.5,48.8,3.5c10.3,2.3,21,3.3,30.1,7.1
			c5.8,2.4,12.2,6.4,17.7,8.9c4.5,2,9,2.4,12.4,5.3c3.1,4.3,1.6,13.6,4.4,20.4c3.9,9.4,8.6,22.5,12.4,31.9c0.3,3.2,0.6,6.5,0.9,9.8
			c5,15.4,7.8,32.9,13.3,48.8c3.8,11,12.6,30,19.5,38.1c1.8,2.1,6.3,4.2,8,6.2c3.6,4.3,5.9,14.3,8.9,19.5c4.4,7.8,12,14.9,16.8,22.2
			c2.8,4.3,3.2,8.9,6.2,13.3c10.8,16.1,25.5,31.1,33.7,49.6c1.9,4.2,1.5,7.1,3.5,11.5c5.3,11.6,13,23.2,17.7,35.5
			c1.8,4.8,2.6,8.2,2.7,12.4c0,1.1-1.5,2.2-0.9,4.4c1.5,5.8,8.9,14.4,13.3,17.7c3.7,2.8,7.3,2.9,11.5,5.3c2.4,1.4,5.2,5,8,6.2
			c12.3,5.1,31,0.6,40.8-1.8c3.8-0.9,12.6,2.6,16,3.5c2.1,0.6,4.7-0.8,5.3-0.9c2.1,0.3,4.1,0.6,6.2,0.9c5.7-0.2,9.9-1.6,15.1-4.4
			c20.3-11.2,26.8-43.1,36.3-65.6c11-25.9,37.1-66.4,58.5-81.6v-1.8c-4.2,1.1-25.2,15.6-27.5,18.6c-2.3,3-3.6,6.2-6.2,8.9
			c-3.3,3.3-11.7,11.8-15.1,14.2c-1.3,0.9-2.6-0.2-3.5,0.9c-1.7,1.9-1.8,5.2-3.5,7.1c-4.9,5.2-12.7,9-18.6,13.3
			c-3.4,2.5-13.1,14-16,17.7c-6,7.7-26.9,28.7-39,20.4c-2.7,0-4.5,0.3-6.2,0.9c0.2,7.8,12,18.7,16.8,22.2c-0.7,3.1-1.1,2.2-1.8,5.3
			c-5.2,1.2-11.9,1.5-16.8,1.8c0.6,1.5,0.2,0.9,0.9,1.8c1.8,1.1,2.5,0.6,4.4,0c0.3,0.3,0.6,0.6,0.9,0.9v1.8c-5,1-27.3,0.6-30.1-0.9
			c-1.8-0.9-3.1-4.2-5.3-5.3c-2-1-4-0.4-5.3-1.8c-2.7-2.8-2.4-7.1-4.4-10.6c-1.3-2.2-6.5-5.1-8-7.1l-3.5-7.1
			c-0.6-3.2-1.2-6.5-1.8-9.8c-2-5.9-5.3-17.2-9.8-23.9c-19.8-30.3-41.6-57.1-60.3-88.6c-3.6-6.1-9.8-12.3-13.3-18.6
			c-1.4-2.5-2.9-6.7-3.5-8.9c0.3-2.4,0.6-4.7,0.9-7.1c-4.5-16.5-5.5-22.7,4.4-37.2c1.6-2.3,3-5.7,5.3-7.1c1.5-0.3,3-0.6,4.4-0.9
			c2.4-1.6,2.5-3.5,6.2-4.4c4.8-2.3,10.6,4.7,15.1,6.2c-0.4,7.5-2,15.2-3.5,22.2c-2.6,11.7,3.9,31.1,6.2,39.9
			c2.5,9.8,2.6,19,11.5,22.2c0.9,0.7,0.2,0.3,1.8,0.9c1-1.1,2.3-1.9,3.5-2.7c-0.3-9.6-1.8-15.7-4.4-25.7c-0.3-1.2-2.7-6.3-2.7-7.1
			c0.2-4.4-0.7-9.5-1.8-14.2c-2.5-11,3.2-20.7,4.4-29.3c7.2-2.4,20.7,1.1,26.6-2.7c4.8-0.2,10.3-5.1,7.1-9.8
			c-1.3-3.5-7.2-7-11.5-7.1c-1.7,0-4.8,2.4-6.2,2.7c-3.8,0.7-11.1-1.9-15.1,0h-1.8c-1.4-8.1,3.8-20.7,0-25.7v-1.8
			c10.1,2.6,26.7,9.4,34.6,15.1c6.1,4.4,8.1,13.2,13.3,18.6c-0.5,5.9-3.8,9.4-7.1,12.4c0.2,3.1,0.3,3.7,1.8,5.3
			c2.7,6,12,3.3,15.1,12.4h0.9c-0.3,13.8-18.4,18.1-21.3,35.5c-1.5,9,8,16.6,11.5,21.3c2.2,3,3,6.7,5.3,9.8
			c2.5,3.2,7.4,4.5,10.6,7.1c4.1,3.3,6.7,9,10.6,12.4c4.4,3.8,12.9,3.8,16.8,8c4.1-0.2,4.9-1,8-1.8c1.4-7.2-2.6-14.3-1.8-20.4
			c1.4-9.8,7.4-13.7,8.9-19.5c1-4.2-2.6-8.9-3.5-11.5c2.8-13.3-0.1-32.8,0-46.1c0.1-6.6,4.3-21.9,0.9-27.5c-2-5.1-24-12.1-30.1-15.1
			c-13.1-6.3-24.6-18.4-36.3-26.6c-6.8-4.7-15.2-8-19.5-15.1h-1.8v-0.9c17.1,2.1,34.3,4.1,51.4,6.2c11,2.4,23.4-0.4,33.7,1.8
			c5.4,1.2,14.6,0,18.6-0.9c8.3-0.3,16.5-0.6,24.8-0.9c13.6-2.1,27.2-4.1,40.8-6.2v0.9c-24.3,6.1-67.8,26.6-68.3,55
			c7.1-0.6,10.4-4.3,15.1-7.1c4.7-2.8,9-2.9,14.2-5.3c12.2-5.8,17.9-11.9,35.5-11.5c0.4,7.9,3.2,16.7-1.8,23
			c-0.3,0.9-0.6,1.8-0.9,2.7c-10.9,0.2-17.9-0.1-23-5.3h-7.1c-0.6,1.5-0.2,0.9-0.9,1.8c0.1,7.4,2,7,5.3,10.6c2.9,3.2,5.3,6.4,9.8,8
			c6.8,2.3,16.2-0.6,20.4,1.8c7.9,11.1,6.4,43.5,3.5,55c-1.1,4.5,0.1,13.2-1.8,16.8c-2.7,5.2-6.2,9.6-7.1,16.8c6-0.6,10.6-5,14.2,0
			h1.8c-0.7-2.6-1.6-4-2.7-6.2c11.3-8.6,12.7-49,9.8-62.9c-1.3-6.3,1.9-12.9-2.7-18.6c0.5-12.7,23.7-8.8,28.4-23.9
			c0.6-1.3,1.1-0.4,0-1.8c-0.6-4.6-2.5-5-4.4-8c-12-0.5-9.3,2.4-16.8,7.1c-1.6,1-4,0.8-5.3,1.8c-3-2.1-0.6-3.9-1.8-8
			c-1.2-4.2-4.6-7.6-8-9.8c2.7-4.1,11.4-2,16.8-3.5c10.3-2.8,21.8-4.8,31-8.9c7.5-3.3,18.4-10.4,23-16.8c3.5-4.8,5.5-12.1,10.6-15.1
			c1.8-0.3,3.5-0.6,5.3-0.9c0.6-1.5,1.2-3,1.8-4.4c4-2.7,19.1-4.3,24.8-6.2c18.6-5.9,37.2-11.8,55.8-17.7
			c10.5-2.8,26.8,1.6,35.5-3.5h1.8V630C801.7,622.4,793.2,610.4,782.3,602.6z M399.4,708.9c-1.1,3.9,0,7-1.8,9.8
			c-2.3,1.4-17-9-19.5-11.5c-3.2,0.3-3,0.1-4.4,1.8c-3.2-1.5-20-27.2-20.4-31.9c19,4.9,29.8,17.8,50.5,20.4l0.9,0.9
			C403.3,701.7,400.5,705.2,399.4,708.9z"/>
	</g>
</g>
</svg>
