<?xml version="1.0" encoding="utf-8"?>
<!-- Generator: Adobe Illustrator 25.2.1, SVG Export Plug-In . SVG Version: 6.00 Build 0)  -->
<svg version="1.1" id="Ebene_1" xmlns="http://www.w3.org/2000/svg" xmlns:xlink="http://www.w3.org/1999/xlink" x="0px" y="0px"
	 viewBox="0 0 1000 1000" style="enable-background:new 0 0 1000 1000;" xml:space="preserve">
<style type="text/css">
	.st0{fill:none;}
</style>
<g>
	<g transform="translate(0.000000,511.000000) scale(0.100000,-0.100000)">
		<path d="M1466.3,1609.1c-360-128.3-618.5-432.8-1129.8-1327C206.3,54.2,108.6-139.2,102.9-179.4C66.5-443.7,386.3-616,585.4-439.9
			c26.8,23,155.1,231.7,289.2,461.5c296.8,519,440.4,733.4,589.8,886.6c181.9,183.8,258.5,183.8,442.4,0
			C2060,755,2201.7,540.5,2521.5-18.6c377.2-658.8,517-863.6,733.4-1080c229.8-229.8,373.4-306.4,595.5-319.8
			c266.2-13.4,482.6,91.9,727.7,356.2C4752.3-878.4,4930.4-606.5,5248.3-53c321.7,561,474.9,790.8,631.9,951.7
			c191.5,195.3,264.3,197.2,450,7.6c151.3-155.1,306.4-388.7,633.8-959.4c501.7-877,723.9-1152.8,1055.1-1307.9
			c95.8-44.1,136-51.7,294.9-51.7c172.3,0,189.6,3.8,325.5,70.9C8967.1-1179,9172-920.5,9690.9-14.7
			c226,392.6,245.1,461.5,168.5,591.7c-61.3,103.4-153.2,149.4-275.7,139.8c-59.4-3.8-118.7-23-153.2-46
			c-34.5-26.8-137.9-183.8-275.8-429c-289.1-509.4-457.7-764-610.9-921.1c-193.4-195.3-266.2-197.2-451.9-7.7
			c-151.3,153.2-306.4,388.7-622.4,940.2c-490.2,857.9-725.8,1156.6-1028.3,1306c-139.8,68.9-157,72.8-329.4,72.8
			c-170.4,0-193.4-3.8-327.4-68.9c-170.4-80.4-338.9-229.8-497.9-438.5c-151.3-199.2-239.4-340.8-545.8-871.3
			c-327.5-570.6-494.1-815.8-653-965.1c-97.7-91.9-136-116.8-183.8-116.8c-176.2,0-390.6,271.9-857.9,1091.5
			c-499.8,873.2-725.8,1154.7-1053.2,1307.9C1835.9,1645.5,1615.6,1660.8,1466.3,1609.1z"/>
	</g>
</g>
<path class="st0" d="M0,0h999.7v1000H0V0z"/>
</svg>
