<?xml version="1.0" encoding="utf-8"?>
<!-- Generator: Adobe Illustrator 25.2.1, SVG Export Plug-In . SVG Version: 6.00 Build 0)  -->
<svg version="1.1" id="Ebene_1" xmlns="http://www.w3.org/2000/svg" xmlns:xlink="http://www.w3.org/1999/xlink" x="0px" y="0px"
	 viewBox="0 0 123 123" style="enable-background:new 0 0 123 123;" xml:space="preserve">
<style type="text/css">
	.st0{fill:none;}
</style>
<g id="Layer_1" transform="translate(-130, -283)">
	<path d="M242,310.5c6.1,0,11,4.9,11,11v56c0,6.1-4.9,11-11,11H141c-6.1,0-11-4.9-11-11v-56c0-6.1,4.9-11,11-11H242z M191.5,322.5
		c-14.9,0-27,12.1-27,27s12.1,27,27,27s27-12.1,27-27S206.4,322.5,191.5,322.5z"/>
	<path d="M191.5,364.5c-8.3,0-15-6.7-15-15s6.7-15,15-15s15,6.7,15,15S199.8,364.5,191.5,364.5z"/>
	<path d="M173.5,300.5h36c4.4,0,8,3.6,8,8v2c0,4.4-3.6,8-8,8h-36c-4.4,0-8-3.6-8-8v-2C165.5,304.1,169.1,300.5,173.5,300.5z"/>
</g>
<path class="st0" d="M0,0h123v123H0V0z"/>
</svg>
