<?xml version="1.0" encoding="utf-8"?>
<!-- Svg Vector Icons : http://www.onlinewebfonts.com/icon -->
<!DOCTYPE svg PUBLIC "-//W3C//DTD SVG 1.1//EN" "http://www.w3.org/Graphics/SVG/1.1/DTD/svg11.dtd">
<svg version="1.1" xmlns="http://www.w3.org/2000/svg" xmlns:xlink="http://www.w3.org/1999/xlink" x="0px" y="0px" viewBox="0 0 1000 1000" enable-background="new 0 0 1000 1000" xml:space="preserve">
<metadata> Svg Vector Icons : http://www.onlinewebfonts.com/icon </metadata>
<g><path d="M806.3,377.5c-54.2,0-101.8,28.2-129,70.6L324.3,243.2c14.3-23.3,22.6-50.7,22.6-80.1C346.9,78.6,278.3,10,193.8,10C109.2,10,40.6,78.6,40.6,163.1s68.6,153.1,153.1,153.1c3.4,0,6.8-0.1,10.2-0.3v370.9c-69.9,14.2-122.5,76-122.5,150.1C81.5,921.4,150,990,234.6,990c84.6,0,153.1-68.6,153.1-153.1c0-11.4-1.3-22.5-3.6-33.1l303.6-176.3c28.1,34.3,70.8,56.3,118.6,56.3c84.6,0,153.1-68.6,153.1-153.1C959.4,446.1,890.8,377.5,806.3,377.5z M360.6,749.9c-22.1-31.9-56-55.1-95.4-63.1V298.6c6.6-3.5,13-7.5,19-11.9l370.9,219.2c-1.3,8.1-2,16.4-2,24.8c0,14.9,2.1,29.2,6.1,42.8L360.6,749.9z"/></g>
</svg>