<?xml version="1.0" encoding="utf-8"?>
<!-- Generator: Adobe Illustrator 25.2.1, SVG Export Plug-In . SVG Version: 6.00 Build 0)  -->
<svg version="1.1" id="Ebene_1" xmlns="http://www.w3.org/2000/svg" xmlns:xlink="http://www.w3.org/1999/xlink" x="0px" y="0px"
	 viewBox="0 0 1000 1000" style="enable-background:new 0 0 1000 1000;" xml:space="preserve">
<style type="text/css">
	.st0{fill:none;}
</style>
<g>
	<path d="M222.9,287v425.7h-142c-39.1,0-70.9-32-70.9-70.3V357.3c0-38.8,31.4-70.3,70.9-70.3H222.9z M450,116.7
		c31.3-23.5,56.8-10.2,56.8,28.6v709.2c0,39.3-25.2,52.2-56.8,28.6L222.9,712.8V287L450,116.7z M849.7,838.6
		c187.1-187.1,187.1-490.3,0-677.4c-20.8-20.8-54.5-20.8-75.3,0s-20.8,54.5,0,75.3c145.5,145.5,145.5,381.4,0,526.8
		c-20.8,20.8-20.8,54.5,0,75.3C795.2,859.4,828.9,859.4,849.7,838.6 M699.2,688.1c103.9-103.9,103.9-272.4,0-376.3
		c-20.8-20.8-54.5-20.8-75.3,0s-20.8,54.5,0,75.3c62.3,62.3,62.3,163.4,0,225.8c-20.8,20.8-20.8,54.5,0,75.3
		C644.7,708.9,678.4,708.9,699.2,688.1"/>
</g>
<path class="st0" d="M0,4h990v990H0V4z"/>
</svg>
