<?xml version="1.0" encoding="utf-8"?>
<!-- Svg Vector Icons : http://www.onlinewebfonts.com/icon -->
<!DOCTYPE svg PUBLIC "-//W3C//DTD SVG 1.1//EN" "http://www.w3.org/Graphics/SVG/1.1/DTD/svg11.dtd">
<svg version="1.1" xmlns="http://www.w3.org/2000/svg" xmlns:xlink="http://www.w3.org/1999/xlink" x="0px" y="0px" viewBox="0 0 1000 1000" enable-background="new 0 0 1000 1000" xml:space="preserve">
<metadata> Svg Vector Icons : http://www.onlinewebfonts.com/icon </metadata>
<g><g transform="translate(0.000000,512.000000) scale(0.100000,-0.100000)"><path d="M6441,4269.4l-3241.6-750.6V687c0-2688.2-1.9-2829.9-34.5-2816.5c-262.3,107.2-478.7,147.4-788.9,149.3c-308.3,1.9-526.5-34.5-804.2-130.2c-346.6-122.5-562.9-250.8-806.1-482.5c-237.4-225.9-371.5-444.2-440.4-710.4c-229.8-898,708.4-1623.7,1876.4-1451.3c731.4,109.1,1353.7,515,1614.1,1055c135.9,283.4,130.2,160.8,130.2,2747.6v2328.3l2473.8,570.6c1359.4,314,2489.1,576.3,2508.2,582.1c32.6,7.7,34.5-67,34.5-1878.3v-1887.9l-120.6,45.9c-597.4,224-1395.8,124.5-1998.9-250.8c-178.1-111-440.4-356.1-545.7-511.2c-155.1-227.9-243.2-488.2-245.1-714.2c0-128.3,63.2-367.6,128.3-492.1c28.7-55.5,126.4-172.3,216.3-262.3c134-135.9,195.3-180,344.6-254.6c861.6-425.1,2075.5-145.5,2678.7,618.4c103.4,130.2,195.3,314,248.9,490.2l40.2,135.9v3727.9c0,2048.7-5.7,3726-13.4,3724.1C9686.4,5020,8221.7,4681.1,6441,4269.4z"/></g></g>
</svg>