<?xml version="1.0" encoding="utf-8"?>
<!-- Generator: Adobe Illustrator 25.2.1, SVG Export Plug-In . SVG Version: 6.00 Build 0)  -->
<svg version="1.1" id="Capa_1" xmlns="http://www.w3.org/2000/svg" xmlns:xlink="http://www.w3.org/1999/xlink" x="0px" y="0px"
	 viewBox="0 0 288 288" style="enable-background:new 0 0 288 288;" xml:space="preserve">
<style type="text/css">
	.st0{fill:none;}
</style>
<g>
	<path d="M258.8,0h-85.2C165.3,0,158,6.4,158,14.7v186.7c0,8.3,7.3,14.6,15.6,14.6H201v42h-17.1c-8.3,0-15,6.7-15,15s6.7,15,15,15
		h64.6c8.3,0,15-6.7,15-15s-6.7-15-15-15H231v-42h27.8c8.3,0,14.2-6.4,14.2-14.6V14.7C273,6.4,267,0,258.8,0z M216.2,39.2
		c9.7,0,17.6,7.9,17.6,17.6s-7.9,17.6-17.6,17.6c-9.7,0-17.6-7.9-17.6-17.6S206.4,39.2,216.2,39.2z M216.2,175.2
		c-16.9,0-30.5-13.7-30.5-30.5c0-16.9,13.7-30.5,30.5-30.5s30.5,13.7,30.5,30.5C246.7,161.5,233,175.2,216.2,175.2z"/>
	<path d="M115.1,0H29.9C21.6,0,15,6.4,15,14.7v186.7c0,8.3,6.6,14.6,14.9,14.6H57v42H40.2c-8.3,0-15,6.7-15,15s6.7,15,15,15h64.6
		c8.3,0,15-6.7,15-15s-6.7-15-15-15H87v-42h28.1c8.3,0,14.9-6.4,14.9-14.6V14.7C130,6.4,123.4,0,115.1,0z M72.5,39.2
		c9.7,0,17.6,7.9,17.6,17.6s-7.9,17.6-17.6,17.6c-9.7,0-17.6-7.9-17.6-17.6C54.9,47,62.8,39.2,72.5,39.2z M72.5,175.2
		c-16.9,0-30.5-13.7-30.5-30.5c0-16.9,13.7-30.5,30.5-30.5s30.5,13.7,30.5,30.5C103,161.5,89.4,175.2,72.5,175.2z"/>
</g>
<path class="st0" d="M0,0h288v288H0V0z"/>
</svg>
