<?xml version="1.0" encoding="utf-8"?>
<!-- Generator: Adobe Illustrator 25.2.1, SVG Export Plug-In . SVG Version: 6.00 Build 0)  -->
<svg version="1.1" id="Capa_1" xmlns="http://www.w3.org/2000/svg" xmlns:xlink="http://www.w3.org/1999/xlink" x="0px" y="0px"
	 viewBox="0 0 54.6 54.6" style="enable-background:new 0 0 54.6 54.6;" xml:space="preserve">
<style type="text/css">
	.st0{fill:none;}
</style>
<path id="XMLID_59_" d="M37.2,36.5c0,5.5-4.4,9.9-9.9,9.9c-5.5,0-9.9-4.4-9.9-9.9s4.4-9.9,9.9-9.9C32.8,26.6,37.2,31.1,37.2,36.5z
	 M27.3,17.5c2.8,0,5-2.2,5-5s-2.2-5-5-5s-5,2.2-5,5S24.6,17.5,27.3,17.5z M46.6,5.5v43.5c0,3.1-2.5,5.5-5.5,5.5H13.6
	c-3.1,0-5.5-2.5-5.5-5.5V5.5c0-3.1,2.5-5.5,5.5-5.5H41C44.1,0,46.6,2.5,46.6,5.5z M19.3,12.5c0,4.4,3.6,8,8,8s8-3.6,8-8s-3.6-8-8-8
	S19.3,8.1,19.3,12.5z M40.2,36.5c0-7.1-5.8-12.9-12.9-12.9c-7.1,0-12.9,5.8-12.9,12.9s5.8,12.9,12.9,12.9
	C34.4,49.4,40.2,43.6,40.2,36.5z"/>
<path class="st0" d="M0,0h54v54H0V0z"/>
</svg>
