<?xml version="1.0" encoding="utf-8"?>
<!-- Svg Vector Icons : http://www.onlinewebfonts.com/icon -->
<!DOCTYPE svg PUBLIC "-//W3C//DTD SVG 1.1//EN" "http://www.w3.org/Graphics/SVG/1.1/DTD/svg11.dtd">
<svg version="1.1" xmlns="http://www.w3.org/2000/svg" xmlns:xlink="http://www.w3.org/1999/xlink" x="0px" y="0px" viewBox="0 0 1000 1000" enable-background="new 0 0 1000 1000" xml:space="preserve">
<metadata> Svg Vector Icons : http://www.onlinewebfonts.com/icon </metadata>
<g><path d="M817.3,292.5l78.1-77.5l-93.5-93.3l-85.9,86.1c-44.9-26.9-95.2-45.7-148.8-54.2l-3.7-49.7H435.4l-3.4,49.7c-53.5,8.8-103.8,27.5-148.7,54.6l-83.2-86.3l-95.7,91.1l77.8,79.9C118,366.8,79.1,463.3,79.1,569c0,232.5,188.4,421,420.9,421c232.5,0,420.8-188.6,420.8-421C920.8,463.3,881.8,366.4,817.3,292.5z M500,878.7C328.9,878.7,190.2,740,190.2,569c0-171.1,138.7-309.7,309.7-309.7c171.1,0,309.7,138.7,309.7,309.7C809.7,740,671,878.7,500,878.7z M526,289.9h-74.1V604h268.6v-86.9H526.1L526,289.9L526,289.9z M409.2,87.3h181.6c18.1,0,33-14.7,33-32.9V37.9c0-18.3-14.9-27.9-33-27.9H409.2c-18.1,0-33,9.5-33,27.9v16.5C376.2,72.6,391,87.3,409.2,87.3z"/></g>
</svg>