<?xml version="1.0" encoding="utf-8"?>
<!-- Generator: Adobe Illustrator 25.2.1, SVG Export Plug-In . SVG Version: 6.00 Build 0)  -->
<svg version="1.1" id="Ebene_1" xmlns="http://www.w3.org/2000/svg" xmlns:xlink="http://www.w3.org/1999/xlink" x="0px" y="0px"
	 viewBox="0 0 1000 1000" style="enable-background:new 0 0 1000 1000;" xml:space="preserve">
<style type="text/css">
	.st0{stroke:#000000;stroke-width:31;stroke-miterlimit:10;}
</style>
<g>
	<path d="M686.9,202.5H569V8.8h117.9V202.5L686.9,202.5z M30.1,991.2h937.5c11.2,0,22.5-11.2,22.5-22.5V157.6L841.2,8.8h-67.4l0,0
		v33.7v252.6H322V8.8l0,0l0,0H32.9C21.7,8.8,10.4,20,10.4,31.3v937.5C7.6,980,18.9,991.2,30.1,991.2L30.1,991.2z M164.8,497.2h668
		v440.7h-668L164.8,497.2L164.8,497.2z M686.9,11.6H569l0,0H686.9L686.9,11.6L686.9,11.6z"/>
</g>
<polygon class="st0" points="648,710.4 505.9,710.4 505.9,568.4 491.7,568.4 491.7,710.4 349.6,710.4 349.6,724.7 491.7,724.7 
	491.7,866.7 505.9,866.7 505.9,724.7 648,724.7 "/>
</svg>
