<?xml version="1.0" encoding="utf-8"?>
<!-- Generator: Adobe Illustrator 25.2.1, SVG Export Plug-In . SVG Version: 6.00 Build 0)  -->
<svg version="1.1" id="Capa_1" xmlns="http://www.w3.org/2000/svg" xmlns:xlink="http://www.w3.org/1999/xlink" x="0px" y="0px"
	 viewBox="0 0 54.6 54.6" style="enable-background:new 0 0 54.6 54.6;" xml:space="preserve">
<style type="text/css">
	.st0{fill:none;}
</style>
<path class="st0" d="M0,0h54v54H0V0z"/>
<g id="Artboard">
	<path id="Shape" d="M39.4,14.9c2.7,0,4.9,2.2,4.9,4.9v4.9l9.7,0v4.9l-9.7,0v4.8c0,2.7-2.2,4.9-4.9,4.9H15.2c-2.7,0-4.9-2.2-4.9-4.9
		v-4.9H0.6v-4.9h9.7v-4.9c0-2.7,2.2-4.9,4.9-4.9H39.4z M39.4,19.7H15.2v4.9H20v4.9h-4.9v4.9h24.3v-4.8l-4.9,0v-4.9l4.9,0V19.7z"/>
</g>
</svg>
