<?xml version="1.0" encoding="utf-8"?>
<!-- Generator: Adobe Illustrator 25.2.1, SVG Export Plug-In . SVG Version: 6.00 Build 0)  -->
<svg version="1.1" id="Capa_1" xmlns="http://www.w3.org/2000/svg" xmlns:xlink="http://www.w3.org/1999/xlink" x="0px" y="0px"
	 viewBox="0 0 17.8 17.8" style="enable-background:new 0 0 17.8 17.8;" xml:space="preserve">
<style type="text/css">
	.st0{fill:none;}
</style>
<g>
	<g id="c98_play">
		<path d="M15.4,14.6c-0.1,0.1-0.2,0-0.2,0L8.3,9.2C8.2,9.1,8.2,9,8.2,8.9c0-0.1,0.1-0.1,0.1-0.2l6.9-5.4c0.1-0.1,0.1-0.1,0.1-0.1
			h0.1c0.1,0.1,0.1,0.1,0.1,0.2v10.9C15.5,14.4,15.4,14.5,15.4,14.6z"/>
	</g>
	<g id="Capa_1_78_">
	</g>
</g>
<path class="st0" d="M0,0h17.8v17.8H0V0z"/>
<g>
	<g id="c98_play_1_">
		<path d="M8.1,14.6c-0.1,0.1-0.2,0-0.2,0L1,9.2C0.9,9.1,0.9,9,0.9,8.9C0.9,8.9,1,8.8,1,8.7l6.9-5.4C7.9,3.2,7.9,3.2,8,3.2h0.1
			c0.1,0.1,0.1,0.1,0.1,0.2v10.9C8.2,14.4,8.2,14.5,8.1,14.6z"/>
	</g>
	<g id="Capa_1_1_">
	</g>
</g>
</svg>
