<?xml version="1.0" encoding="utf-8"?>
<!-- Generator: Adobe Illustrator 25.2.1, SVG Export Plug-In . SVG Version: 6.00 Build 0)  -->
<svg version="1.1" id="Capa_1" xmlns="http://www.w3.org/2000/svg" xmlns:xlink="http://www.w3.org/1999/xlink" x="0px" y="0px"
	 viewBox="0 0 17.8 17.8" style="enable-background:new 0 0 17.8 17.8;" xml:space="preserve">
<style type="text/css">
	.st0{fill:none;}
</style>
<g>
	<g id="c98_play">
		<path d="M10.2,3.3c0.1-0.1,0.2,0,0.2,0l6.9,5.4c0.1,0.1,0.1,0.1,0.1,0.2c0,0.1-0.1,0.1-0.1,0.2l-6.9,5.4c-0.1,0.1-0.1,0.1-0.1,0.1
			h-0.1c-0.1-0.1-0.1-0.1-0.1-0.2V3.5C10.1,3.4,10.2,3.3,10.2,3.3z"/>
	</g>
	<g id="Capa_1_78_">
	</g>
</g>
<path class="st0" d="M0,0h17.8v17.8H0V0z"/>
<g>
	<g id="c98_play_1_">
		<path d="M2.9,3.3c0.1-0.1,0.2,0,0.2,0l6.9,5.4c0.1,0.1,0.1,0.1,0.1,0.2c0,0.1-0.1,0.1-0.1,0.2l-6.9,5.4c-0.1,0.1-0.1,0.1-0.1,0.1
			H2.9c-0.1-0.1-0.1-0.1-0.1-0.2V3.5C2.8,3.4,2.9,3.3,2.9,3.3z"/>
	</g>
	<g id="Capa_1_1_">
	</g>
</g>
</svg>
