<?xml version="1.0" encoding="utf-8"?>
<!-- Generator: Adobe Illustrator 25.2.1, SVG Export Plug-In . SVG Version: 6.00 Build 0)  -->
<svg version="1.1" id="Capa_1" xmlns="http://www.w3.org/2000/svg" xmlns:xlink="http://www.w3.org/1999/xlink" x="0px" y="0px"
	 viewBox="0 0 17.8 17.8" style="enable-background:new 0 0 17.8 17.8;" xml:space="preserve">
<style type="text/css">
	.st0{fill:none;}
</style>
<g>
	<g id="c98_play">
		<path d="M16.4,14.6c-0.1,0.1-0.2,0-0.2,0L9.6,9.2C9.6,9.1,9.6,9,9.6,8.9c0-0.1,0.1-0.1,0.1-0.2l6.5-5.4c0.1-0.1,0.1-0.1,0.1-0.1
			h0.1c0.1,0.1,0.1,0.1,0.1,0.2v10.9C16.5,14.4,16.4,14.5,16.4,14.6z"/>
	</g>
	<g id="Capa_1_78_">
	</g>
</g>
<path class="st0" d="M0,0h17.8v17.8H0V0z"/>
<g>
	<g id="c98_play_1_">
		<path d="M9.5,14.6c-0.1,0.1-0.2,0-0.2,0L2.7,9.2C2.7,9.1,2.7,9,2.7,8.9c0-0.1,0.1-0.1,0.1-0.2l6.5-5.4c0.1-0.1,0.1-0.1,0.1-0.1
			h0.1c0.1,0.1,0.1,0.1,0.1,0.2v10.9C9.6,14.4,9.5,14.5,9.5,14.6z"/>
	</g>
	<g id="Capa_1_1_">
	</g>
</g>
<g>
	<path d="M2.6,3.3H1.1c0,0,0,0.2,0,0.4v10.5c0,0.2,0,0.4,0,0.4h1.5c0,0,0-0.2,0-0.4V3.7C2.7,3.4,2.6,3.3,2.6,3.3z"/>
</g>
</svg>
