<?xml version="1.0" encoding="utf-8"?>
<!-- Generator: Adobe Illustrator 25.2.1, SVG Export Plug-In . SVG Version: 6.00 Build 0)  -->
<svg version="1.1" id="Capa_1" xmlns="http://www.w3.org/2000/svg" xmlns:xlink="http://www.w3.org/1999/xlink" x="0px" y="0px"
	 viewBox="0 0 17.8 17.8" style="enable-background:new 0 0 17.8 17.8;" xml:space="preserve">
<style type="text/css">
	.st0{fill:none;}
</style>
<g>
	<path d="M7.4,2H4.2C4.1,2,4.1,2.2,4.1,2.5v12.7c0,0.3,0.1,0.5,0.1,0.5h3.2c0.1,0,0.1-0.2,0.1-0.5V2.5C7.5,2.2,7.5,2,7.4,2z"/>
</g>
<path class="st0" d="M0,0h17.8v17.8H0V0z"/>
<g>
	<path d="M14,2h-3.2c-0.1,0-0.1,0.2-0.1,0.5v12.7c0,0.3,0.1,0.5,0.1,0.5H14c0.1,0,0.1-0.2,0.1-0.5V2.5C14.1,2.2,14,2,14,2z"/>
</g>
</svg>
