<?xml version="1.0" encoding="utf-8"?>
<!-- Generator: Adobe Illustrator 25.2.1, SVG Export Plug-In . SVG Version: 6.00 Build 0)  -->
<svg version="1.1" id="Capa_1" xmlns="http://www.w3.org/2000/svg" xmlns:xlink="http://www.w3.org/1999/xlink" x="0px" y="0px"
	 viewBox="0 0 17.8 17.8" style="enable-background:new 0 0 17.8 17.8;" xml:space="preserve">
<style type="text/css">
	.st0{fill:none;}
</style>
<g>
	<g id="c98_play">
		<path d="M8.7,3.3c0.1-0.1,0.2,0,0.2,0l6.5,5.4c0.1,0.1,0.1,0.1,0.1,0.2c0,0.1-0.1,0.1-0.1,0.2l-6.5,5.4c-0.1,0.1-0.1,0.1-0.1,0.1
			H8.7c-0.1-0.1-0.1-0.1-0.1-0.2V3.5C8.6,3.4,8.7,3.3,8.7,3.3z"/>
	</g>
	<g id="Capa_1_78_">
	</g>
</g>
<path class="st0" d="M0,0h17.8v17.8H0V0z"/>
<g>
	<g id="c98_play_1_">
		<path d="M1.8,3.3c0.1-0.1,0.2,0,0.2,0l6.5,5.4c0.1,0.1,0.1,0.1,0.1,0.2C8.6,9,8.5,9,8.5,9.1L2,14.5c-0.1,0.1-0.1,0.1-0.1,0.1H1.8
			c-0.1-0.1-0.1-0.1-0.1-0.2V3.5C1.7,3.4,1.8,3.3,1.8,3.3z"/>
	</g>
	<g id="Capa_1_1_">
	</g>
</g>
<g>
	<path d="M17,3.2h-1.4c0,0,0,0.2,0,0.4v10.5c0,0.2,0,0.4,0,0.4H17c0,0,0-0.2,0-0.4V3.6C17,3.4,17,3.2,17,3.2z"/>
</g>
</svg>
