<?xml version="1.0" encoding="utf-8"?>
<!-- Svg Vector Icons : http://www.onlinewebfonts.com/icon -->
<!DOCTYPE svg PUBLIC "-//W3C//DTD SVG 1.1//EN" "http://www.w3.org/Graphics/SVG/1.1/DTD/svg11.dtd">
<svg version="1.1" xmlns="http://www.w3.org/2000/svg" xmlns:xlink="http://www.w3.org/1999/xlink" x="0px" y="0px" viewBox="0 0 1000 1000" enable-background="new 0 0 1000 1000" xml:space="preserve">
<metadata> Svg Vector Icons : http://www.onlinewebfonts.com/icon </metadata>
<g><g><path d="M730.6,575.4c-8.4-2.5-17.3,2.4-19.8,10.8c-14.3,48.5-40.8,93.1-76.7,129c-118.7,118.7-311.7,118.6-430.4,0C85,596.6,85,403.5,203.7,284.8c118.6-118.7,311.7-118.7,430.4,0c39.6,39.7,67.5,89.3,80.6,143.6c2.1,8.6,10.7,13.8,19.2,11.8c8.6-2.1,13.8-10.7,11.8-19.2c-14.4-59.9-45.2-114.8-89-158.6c-131.1-131.1-344.4-131.1-475.5,0c-131.1,131.1-131.1,344.4,0,475.5c65.5,65.5,151.6,98.3,237.7,98.3c86.1,0,172.2-32.8,237.7-98.3c39.7-39.7,69-89,84.8-142.6C743.9,586.7,739,577.9,730.6,575.4z"/><path d="M513.1,500c0-52-42.3-94.3-94.3-94.3S324.6,448,324.6,500s42.3,94.3,94.3,94.3S513.1,552,513.1,500z M418.9,562.4c-34.4,0-62.4-28-62.4-62.4s28-62.4,62.4-62.4s62.4,28,62.4,62.4C481.3,534.4,453.3,562.4,418.9,562.4z"/><path d="M452.3,653.9c1.2,0,2.5-0.1,3.7-0.4c28.2-6.8,53.9-21.2,74.5-41.8c61.6-61.6,61.6-161.7,0-223.3c-61.6-61.6-161.8-61.5-223.3,0c-61.6,61.6-61.6,161.7,0,223.3c18.6,18.6,41.8,32.4,67,39.8c8.5,2.5,17.3-2.4,19.8-10.8c2.5-8.4-2.3-17.3-10.8-19.8c-20.1-5.9-38.6-16.9-53.4-31.8c-49.1-49.1-49.1-129.1,0-178.3c49.1-49.1,129.1-49.2,178.3,0c49.1,49.1,49.1,129.1,0,178.3c-16.4,16.4-37,28-59.5,33.4c-8.6,2.1-13.8,10.7-11.8,19.2C438.5,649,445.1,653.9,452.3,653.9z"/><path d="M914.5,97.6h-829c-41.6,0-75.5,33.9-75.5,75.5v653.7c0,41.6,33.9,75.5,75.5,75.5h829c41.6,0,75.5-33.9,75.5-75.5V173.2C990,131.5,956.1,97.6,914.5,97.6z M958.1,826.9c0,24.1-19.6,43.6-43.6,43.6h-829c-24.1,0-43.6-19.6-43.6-43.6V173.2c0-24.1,19.6-43.6,43.6-43.6h829c24.1,0,43.6,19.6,43.6,43.6L958.1,826.9L958.1,826.9z"/><path d="M761.6,318.4h39.1l-10.6,135.2L617.8,590.5c-8.1-4.6-17.3-7.5-27.2-7.5c-30.4,0-55.1,24.7-55.1,55.1s24.7,55.1,55.1,55.1s55.1-24.7,55.1-55.1c0-8.8-2.3-17-5.9-24.4l175.6-139.5c3.5-2.8,5.6-6.8,6-11.2l11.4-144.7h49.7c8.8,0,15.9-7.1,15.9-15.9V198.9c0-8.8-7.1-15.9-15.9-15.9s-15.9,7.1-15.9,15.9v87.6h-31.3l2.7-34.6c0.7-8.8-5.9-16.4-14.6-17.1c-8.7-0.6-16.4,5.9-17.1,14.6l-2.9,37.1h-25.7v-71.7H836c8.8,0,15.9-7.1,15.9-15.9c0-8.8-7.1-15.9-15.9-15.9h-74.4c-8.8,0-15.9,7.1-15.9,15.9v103.6C745.7,311.2,752.8,318.4,761.6,318.4z M590.6,661.4c-12.8,0-23.2-10.4-23.2-23.2c0-12.8,10.4-23.2,23.2-23.2c12.8,0,23.2,10.4,23.2,23.2C613.8,651,603.4,661.4,590.6,661.4z"/><path d="M849.8,546.4c-8.7,0-17.2,1.6-25.2,4.9c-8.2,3.3-12.1,12.6-8.8,20.7c3.3,8.2,12.6,12.1,20.7,8.8c4.2-1.7,8.7-2.5,13.3-2.5c19.8,0,36,16.1,36,36c0,19.8-16.1,36-36,36c-19.8,0-36-16.1-36-36c0-3.2,0.4-6.3,1.2-9.4c2.3-8.5-2.8-17.2-11.3-19.5c-8.5-2.3-17.2,2.8-19.5,11.3c-1.5,5.7-2.3,11.6-2.3,17.6c0,37.4,30.4,67.8,67.8,67.8s67.9-30.4,67.9-67.8S887.2,546.4,849.8,546.4z"/><path d="M849.8,704.6c-8.7,0-17.2,1.6-25.2,4.9c-8.2,3.3-12.1,12.6-8.8,20.7c3.3,8.2,12.6,12.1,20.7,8.8c4.2-1.7,8.7-2.5,13.3-2.5c19.8,0,36,16.1,36,36c0,19.8-16.1,36-36,36c-19.8,0-36-16.1-36-36c0-3.2,0.4-6.3,1.2-9.4c2.3-8.5-2.8-17.2-11.3-19.5c-8.5-2.3-17.2,2.8-19.5,11.3c-1.5,5.7-2.3,11.6-2.3,17.6c0,37.4,30.4,67.8,67.8,67.8s67.9-30.4,67.9-67.8S887.2,704.6,849.8,704.6z"/></g><g></g><g></g><g></g><g></g><g></g><g></g><g></g><g></g><g></g><g></g><g></g><g></g><g></g><g></g><g></g></g>
</svg>