<?xml version="1.0" encoding="utf-8"?>
<!-- Svg Vector Icons : http://www.onlinewebfonts.com/icon -->
<!DOCTYPE svg PUBLIC "-//W3C//DTD SVG 1.1//EN" "http://www.w3.org/Graphics/SVG/1.1/DTD/svg11.dtd">
<svg version="1.1" xmlns="http://www.w3.org/2000/svg" xmlns:xlink="http://www.w3.org/1999/xlink" x="0px" y="0px" viewBox="0 0 1000 1000" enable-background="new 0 0 1000 1000" xml:space="preserve">
<metadata> Svg Vector Icons : http://www.onlinewebfonts.com/icon </metadata>
<g><g><g><circle cx="500" cy="500" r="64.1"/><path d="M500,10C229.4,10,10,229.4,10,500s219.4,490,490,490s490-219.4,490-490S770.6,10,500,10z M313.2,131.9c56.1-28.5,119.6-44.6,186.8-44.6c3.9,0,7.9,0.1,11.8,0.2c6.5,0.2,11,16.3,10,35.9l-5,100.5c-1,19.5-5.1,35.2-9.3,35c-2.5-0.1-5-0.1-7.5-0.1c-35.4,0-69,7.6-99.2,21.3c-17.8,8.1-39.2,3.3-49.1-13.6l-51.3-86.7C290.4,162.9,295.7,140.7,313.2,131.9z M293.1,316.3L217.4,250c-14.7-12.9-16.3-35.3-2.1-48.8c0.3-0.3,0.7-0.6,1-0.9c14.2-13.5,36.5-10.7,48.5,4.7l61.9,79.4c12,15.4,14.8,33.5,6.9,41C325.6,333,307.9,329.2,293.1,316.3z M326.6,500c0-95.8,77.6-173.4,173.4-173.4S673.4,404.2,673.4,500S595.8,673.4,500,673.4S326.6,595.8,326.6,500z M686,868.5c-55.9,28.3-119.1,44.2-186,44.2c-4.4,0-8.8-0.1-13.1-0.2c-7.2-0.2-12.3-16.5-11.2-36l5.5-100.5c1.1-19.5,5.7-35.1,10.4-34.9c2.8,0.1,5.6,0.1,8.4,0.1c32.5,0,63.4-6.4,91.7-18c18.1-7.4,40.3-2.6,51,13.8l54.9,84.5C708.3,837.9,703.5,859.7,686,868.5z M782.5,800.9c-13.6,12.8-35.5,9.8-47.9-5.4l-63.6-78.1c-12.4-15.2-15.5-32.7-7.7-39.9c7.8-7.2,25.6-3.2,40.3,9.7l75.8,66.3C794.2,766.4,796.1,788.1,782.5,800.9z"/></g></g><g></g><g></g><g></g><g></g><g></g><g></g><g></g><g></g><g></g><g></g><g></g><g></g><g></g><g></g><g></g></g>
</svg>