<?xml version="1.0" encoding="utf-8"?>
<!-- Svg Vector Icons : http://www.onlinewebfonts.com/icon -->
<!DOCTYPE svg PUBLIC "-//W3C//DTD SVG 1.1//EN" "http://www.w3.org/Graphics/SVG/1.1/DTD/svg11.dtd">
<svg version="1.1" xmlns="http://www.w3.org/2000/svg" xmlns:xlink="http://www.w3.org/1999/xlink" x="0px" y="0px" viewBox="0 0 1000 1000" enable-background="new 0 0 1000 1000" xml:space="preserve">
<metadata> Svg Vector Icons : http://www.onlinewebfonts.com/icon </metadata>
<g><g><path d="M410.3,898.3v-87.6c-23.6,0-44.1-8.7-61.5-26.1c-17.4-17.4-26.1-37.9-26.1-61.5v-45.9L108,464.6c-5.6,22.2-8.3,48.7-8.3,79.2c0,90.4,29.9,169.2,89.7,236.7C249.1,847.9,322.8,887.1,410.3,898.3z M808.6,500h89.7c1.4,9.7,2.1,24.3,2.1,43.8c0,123.7-43.4,229-130.3,315.9S578.5,990,456.2,990c-123.7,0-229-43.4-315.9-130.3C53.4,772.8,10,667.5,10,543.8C10,421.5,53.4,316.9,140.3,230c86.9-86.9,192.2-130.3,315.9-130.3c43.1,0,87.6,7,133.4,20.9v112.6c0,23.6-9,44.5-27.1,62.6c-18.1,18.1-38.9,27.1-62.6,27.1h-89.7v87.6c0,12.5-4.2,23.3-12.5,32.3c-8.3,9-18.8,13.6-31.3,13.6h-89.7v87.6h266.9c12.5,0,23.3,4.5,32.3,13.6c9,9,13.6,19.8,13.6,32.3v133.4h43.8c43.1,0,71.6,20.2,85.5,60.5c61.2-65.3,91.7-145.3,91.7-239.8C810.7,524.3,810,509.7,808.6,500z M908.7,143.4v-20.9c0-20.9-7.3-38.9-21.9-54.2s-32.3-22.9-53.2-22.9c-20.9,0-38.6,7.6-53.2,22.9s-21.9,33.4-21.9,54.2v20.9H908.7z M944.1,143.4c12.5,0,23.3,4.5,32.3,13.6c9,9,13.6,19.8,13.6,32.3v177.2c0,12.5-4.5,22.9-13.6,31.3c-9,8.3-19.8,12.5-32.3,12.5h-221c-12.5,0-23.3-4.2-32.3-12.5c-9-8.3-13.6-18.8-13.6-31.3V189.3c0-12.5,4.5-23.3,13.6-32.3c9-9,19.8-13.6,32.3-13.6v-20.9c0-30.6,10.8-57,32.3-79.2C777,21.1,803,10,833.6,10s56.6,11.1,78.2,33.4c21.5,22.2,32.3,48.7,32.3,79.2V143.4z"/></g></g>
</svg>