<?xml version="1.0" encoding="utf-8"?>
<!-- Svg Vector Icons : http://www.onlinewebfonts.com/icon -->
<!DOCTYPE svg PUBLIC "-//W3C//DTD SVG 1.1//EN" "http://www.w3.org/Graphics/SVG/1.1/DTD/svg11.dtd">
<svg version="1.1" xmlns="http://www.w3.org/2000/svg" xmlns:xlink="http://www.w3.org/1999/xlink" x="0px" y="0px" viewBox="0 0 1000 1000" enable-background="new 0 0 1000 1000" xml:space="preserve">
<metadata> Svg Vector Icons : http://www.onlinewebfonts.com/icon </metadata>
<g><g transform="translate(0.000000,512.000000) scale(0.100000,-0.100000)"><path d="M197.6,4992c-101.5-57.4-95.7,241.2-97.6-4867.4c0-3644.3,5.7-4762.1,23-4800.4c51.7-112.9-290.9-105.3,4877-105.3c5167.9,0,4825.3-7.7,4877,105.3c17.2,38.3,23,1156.1,23,4796.6c0,5166,7.7,4823.4-105.3,4875.1C9718.1,5032.2,262.7,5028.3,197.6,4992z M3085.9,4389c-149.3-455.5-235.4-918.7-260.3-1383.8l-13.4-239.3l-241.2-11.5c-694.8-34.5-1389.6-258.4-1979.1-637.4c-70.8-45.9-134-84.2-137.8-84.2c-5.7,0-9.6,595.3-9.6,1320.7v1320.7h1366.6h1366.6L3085.9,4389z M6320.6,4662.7c0-5.7-24.9-80.4-55.5-166.5c-30.6-86.1-86.1-277.5-122.5-424.9c-172.3-666.1-218.2-1301.6-145.5-1958.1c11.5-99.5,17.2-183.8,11.5-187.6c-3.8-3.8-201,65.1-436.4,157c-1003,382.8-1554.2,543.6-2189.7,635.5l-229.7,32.5l5.7,153.1c15.3,438.3,103.4,934,241.2,1360.9c47.9,149.3,101.5,302.4,116.8,340.7l28.7,68.9H4933C5696.7,4674.2,6320.6,4668.5,6320.6,4662.7z M9555.4,3231V1787.9l-185.7-95.7c-403.9-206.7-723.5-279.5-1221.2-281.4c-484.2,0-884.3,74.6-1512.1,281.4l-248.8,82.3l-23,114.8c-72.7,361.7-78.5,1104.4-15.3,1521.7c57.4,373.2,155,756,279.4,1098.6l61.3,164.6h1431.7h1433.6V3231z M2825.6,2335.3c103.4-934.1,218.2-1395.3,631.6-2549.5c84.2-235.4,86.1-245,44-235.4c-141.6,36.4-516.8,55.5-872.8,45.9c-323.5-7.7-436.4-19.1-633.5-61.3c-474.7-99.5-916.8-273.7-1345.6-532.1l-204.8-124.4V245.1v1364.7l233.5,157c620.2,411.5,1307.3,639.3,1942.8,646.9l195.2,1.9L2825.6,2335.3z M3499.3,2358.3c524.4-90,1114-271.8,2065.3-637.4l514.9-197.2l91.9-361.7c49.7-201,178-612.5,281.4-918.7c103.3-304.3,258.4-758,342.6-1004.9c162.7-476.6,256.5-800.1,237.3-811.6c-24.9-13.4-746.5,233.5-1401.1,480.4c-725.4,273.7-1138.9,415.3-1471.9,501.5c-118.7,32.5-220.1,61.3-223.9,65.1c-3.8,3.8-80.4,210.5-168.4,457.5c-352.2,981.9-497.7,1521.7-576.1,2126.5c-42.1,325.4-40.2,338.8,26.8,338.8C3246.7,2396.5,3374.9,2379.3,3499.3,2358.3z M6693.9,1317c1096.7-338.8,1952.3-338.8,2687.3,0c78.5,36.4,149.3,65.1,156.9,65.1c9.6,0,15.3-608.7,13.4-1372.4l-5.7-1374.3l-172.3-90c-206.7-109.1-518.7-214.4-759.9-256.5c-246.9-44-671.8-44-964.7,0l-231.6,36.4l-63.2,258.4c-61.3,246.9-191.4,645-562.7,1713.1c-149.3,428.8-317.7,993.4-317.7,1060.4c0,17.2,13.4,23,34.5,17.2C6525.4,1368.7,6609.6,1343.8,6693.9,1317z M3133.8-742.5c116.8-11.5,285.2-32.5,375.2-49.8l164.6-30.6l78.5-250.7c201-641.2,262.2-1022.1,246.9-1529.3c-11.5-371.3-30.6-501.5-132.1-819.2c-70.8-227.8-268-627.8-413.4-842.2l-111-162.7l-1448.9-5.7l-1448.9-3.8v1445.1v1443.2l105.3,78.5c166.5,122.5,442.1,285.2,650.8,384.7C1815-796.1,2461.9-681.2,3133.8-742.5z M4492.7-1043c179.9-59.3,652.7-227.8,1052.7-379c704.4-264.1,1207.8-438.3,1456.6-499.6l118.7-30.6l17.2-147.4c30.6-279.4,15.3-757.9-30.6-978.1c-86.1-411.5-262.2-824.9-507.2-1190.5l-111-168.4H5120.5H3752l26.8,44c252.6,394.3,423,805.8,513,1228.8c53.6,245,72.7,777.1,40.2,1062.3c-38.3,325.4-174.2,926.4-262.2,1156.1C4054.4-903.3,4067.8-907.1,4492.7-1043z M9555.4-3096.8v-1339.8H8234.7c-725.4,0-1320.7,3.8-1320.7,9.6c0,3.8,34.5,65.1,76.6,134c237.3,388.5,411.5,855.6,480.4,1301.5c26.8,168.4,34.5,779,9.6,895.8c-13.4,74.7-13.4,74.7,40.2,63.2c281.4-61.3,840.3-67,1158-13.4c246.9,42.1,568.5,143.6,735,229.7c61.3,30.6,118.7,57.4,128.2,59.3C9549.6-1756.9,9555.4-2359.9,9555.4-3096.8z"/></g></g>
</svg>