<?xml version="1.0" encoding="utf-8"?>
<!-- Generator: Adobe Illustrator 25.2.1, SVG Export Plug-In . SVG Version: 6.00 Build 0)  -->
<svg version="1.1" id="Ebene_1" xmlns="http://www.w3.org/2000/svg" xmlns:xlink="http://www.w3.org/1999/xlink" x="0px" y="0px"
	 viewBox="0 0 168 168" style="enable-background:new 0 0 168 168;" xml:space="preserve">
<style type="text/css">
	.st0{fill-opacity:0;stroke:#000000;stroke-width:6;}
	.st1{fill:none;}
</style>
<g id="Layer_2">
	<path class="st0" d="M9,82.6h150"/>
	<path d="M33.4,82.6l5-14.8l7.8,3.5l6-10l5.6,10l7.3,7.5l8.3-33l5.1,3.7l4.5-26.2l10.8,22.5l6.2-8.5l4.8,15c0,0,6-2.3,6-2.5
		c0-0.2,2.2,14.5,2.2,14.5l6-3l4.5,13.8l19.2,7.5H33.4z"/>
	<path d="M33.4,85.4l109.3,0l-19.2,7.5l-4.5,13.8l-6-3c0,0-2.2,14.8-2.2,14.5c0-0.2-6-2.5-6-2.5l-4.8,15l-6.2-8.5l-10.7,22.5
		l-4.5-26.2l-5.1,3.7l-8.3-33l-7.3,7.5l-5.6,10l-6-10l-7.7,3.5L33.4,85.4z"/>
</g>
<path class="st1" d="M0,0h168v168H0V0z"/>
</svg>
