<?xml version="1.0" encoding="utf-8"?>
<!-- Generator: Adobe Illustrator 25.2.1, SVG Export Plug-In . SVG Version: 6.00 Build 0)  -->
<svg version="1.1" id="Ebene_1" xmlns="http://www.w3.org/2000/svg" xmlns:xlink="http://www.w3.org/1999/xlink" x="0px" y="0px"
	 viewBox="0 0 1000 1000" style="enable-background:new 0 0 1000 1000;" xml:space="preserve">
<style type="text/css">
	.st0{fill:none;}
</style>
<g>
	<path d="M954.3,593.7c-19.7,0-35.7-16-35.7-35.7V442c0-19.7,16-35.7,35.7-35.7s35.7,16,35.7,35.7v116
		C990,577.8,974,593.7,954.3,593.7z M876.4,638.7V361.3c0-19.7-16-35.7-35.7-35.7s-35.7,16-35.7,35.7v277.4
		c0,19.7,16,35.7,35.7,35.7C860.4,674.4,876.4,658.4,876.4,638.7z M762.9,857.5v-715c0-19.7-16-35.7-35.7-35.7s-35.7,16-35.7,35.7
		v715.1c0,19.7,16,35.7,35.7,35.7S762.9,877.3,762.9,857.5z M649.3,705.8V294.1c0-19.7-16-35.7-35.7-35.7s-35.7,16-35.7,35.7v411.7
		c0,19.7,16,35.7,35.7,35.7C633.3,741.6,649.3,725.6,649.3,705.8z M535.7,558V442c0-19.7-16-35.7-35.7-35.7s-35.7,16-35.7,35.7v116
		c0,19.7,16,35.7,35.7,35.7S535.7,577.8,535.7,558z M422.1,638.7V361.3c0-19.7-16-35.7-35.7-35.7s-35.7,16-35.7,35.7v277.4
		c0,19.7,16,35.7,35.7,35.7C406.2,674.4,422.1,658.4,422.1,638.7z M308.6,820.2V179.8c0-19.7-16-35.7-35.7-35.7s-35.7,16-35.7,35.7
		v640.5c0,19.7,16,35.7,35.7,35.7S308.6,840,308.6,820.2z M195,668.1V331.9c0-19.7-16-35.7-35.7-35.7s-35.7,16-35.7,35.7v336.2
		c0,19.7,16,35.7,35.7,35.7S195,687.8,195,668.1z M81.4,558V442c0-19.7-16-35.7-35.7-35.7S10,422.2,10,442v116
		c0,19.7,16,35.7,35.7,35.7S81.4,577.8,81.4,558z"/>
</g>
<path class="st0" d="M0,0h1000v1000H0V0z"/>
</svg>
