<?xml version="1.0" encoding="utf-8"?>
<!-- Svg Vector Icons : http://www.onlinewebfonts.com/icon -->
<!DOCTYPE svg PUBLIC "-//W3C//DTD SVG 1.1//EN" "http://www.w3.org/Graphics/SVG/1.1/DTD/svg11.dtd">
<svg version="1.1" xmlns="http://www.w3.org/2000/svg" xmlns:xlink="http://www.w3.org/1999/xlink" x="0px" y="0px" viewBox="0 0 1000 1000" enable-background="new 0 0 1000 1000" xml:space="preserve">
<metadata> Svg Vector Icons : http://www.onlinewebfonts.com/icon </metadata>
<g><path d="M10,477.5c4.5-12.1,13.3-16.3,25.9-16.2c65.3,0.2,130.7-0.1,196-0.3c2.9,0,5.9,0,8.8,0.2c9.5,0.7,13.8,4.1,16.7,13.2c9.2,28.4,18.3,56.9,27.5,85.3c0.7,2.3,1.6,4.5,3.8,6.6c3.7-19.2,7.5-38.4,11.2-57.6c19.4-100.5,38.8-201,58.1-301.6c5.7-29.4,11.3-58.7,16.9-88.1c2.4-12.7,9-18.3,21.9-18.5c15-0.3,29.9-0.7,44.8-1.2c10-0.3,18.1,5.7,20.3,16.3c8.2,39.2,16.2,78.5,24.2,117.8c23.3,114.5,46.7,229,70,343.5c7.1,34.6,14.2,69.2,21.3,103.8c0.4,1.7,0.9,3.4,2.6,5.2c2.8-13.2,5.7-26.4,8.5-39.7c25.6-121.9,51.1-243.8,76.8-365.7c1.1-5.4,3.3-11.2,6.8-15.2c2.9-3.3,8.3-5.6,12.8-6c13.5-0.9,27.2-0.4,40.7-1c10.9-0.4,18.6,4.7,22.2,16.1c17.7,55.7,35.3,111.4,53,167c2,6.4,2.6,15.2,7.1,18.5c4.5,3.3,13,1.3,19.8,1.4c46,0.1,92.1,0,138.1,0c16.7,0,24.1,7.4,24.1,24c0,11.6,0,23.1,0,34.7c0,14.3-7.8,22.3-22.3,22.3c-29.3,0.1-58.5,0-87.8-0.1c-35.8-0.1-71.7-0.2-107.5-0.2c-1.8,0-3.6,0.1-5.4,0.3c-13,1.3-20.5-3.7-24.5-16.3c-9.1-28.5-18.1-57-27.1-85.5c-0.7-2-1.5-4-3.6-6.1c-2.5,11.1-5,22.2-7.4,33.4c-28.9,134.8-57.9,269.7-86.8,404.5c-1.3,6-2.5,12-4.4,17.8c-2.1,6.5-6.7,9.5-13.9,9.5c-10.3-0.1-20.7,0.7-31.1,1.1c-3.2,0-6.4,0-9.5,0c-9.7-3.5-14.5-10.5-16.3-20.6c-3.1-17.6-7.1-35.1-10.6-52.6c-34.2-167.8-68.4-335.6-102.6-503.3c-1-4.9-2.2-9.7-3.3-14.5c-1.5,1.1-1.8,1.9-2,2.7c-19.5,91-39,182-58.5,273c-9.8,45.6-19.5,91.3-29.4,136.8c-2.9,13.4-12.3,19.9-25.4,19.4c-10.6-0.4-21.3-0.4-32,0.4c-15.9,1.2-22.6-2.8-27.4-17.8c-18.9-58.4-37.8-116.8-56.5-175.2c-1.7-5.2-3.8-6.9-9.4-6.9c-49.7,0.3-99.4-0.1-149,0.3c-12.6,0.1-21.6-4-26.1-16.1C10,510.1,10,493.8,10,477.5z"/></g>
</svg>