<?xml version="1.0" encoding="utf-8"?>
<!-- Svg Vector Icons : http://www.onlinewebfonts.com/icon -->
<!DOCTYPE svg PUBLIC "-//W3C//DTD SVG 1.1//EN" "http://www.w3.org/Graphics/SVG/1.1/DTD/svg11.dtd">
<svg version="1.1" xmlns="http://www.w3.org/2000/svg" xmlns:xlink="http://www.w3.org/1999/xlink" x="0px" y="0px" viewBox="0 0 1000 1000" enable-background="new 0 0 1000 1000" xml:space="preserve">
<metadata> Svg Vector Icons : http://www.onlinewebfonts.com/icon </metadata>
<g><path d="M500,10C229.8,10,10,229.8,10,500c0,270.2,219.8,490,490,490c270.2,0,490-219.8,490-490C990,229.8,770.2,10,500,10z M847.6,222l10.6-5.8l7.3,9.6c53.2,70.8,84.5,154.9,90.5,243.2l1,14.8H755l-0.4-13.4c-1.9-59.9-12.8-119.9-32.3-178.4l-4.3-13l12.9-4.5C770.6,260.6,809.9,242.9,847.6,222z M625.5,60.6c75.3,21.5,144.4,62.5,199.6,118.5l13,13.2l-16.2,8.8c-33.1,17.9-67.6,33.1-102.5,45.4l-12.2,4.3l-5.1-11.9c-23.6-55-54.4-107.6-91.4-156.5l-25.1-33.2L625.5,60.6z M516.8,43c5.8,0.3,11.9,0.8,18.4,1.4l5.5,5.7c24.1,25.2,85,94.5,129.4,194.7l6.7,15.1l-16,4c-42.7,10.6-86.3,16.9-129.5,18.6l-14.4,0.6L516.8,43L516.8,43z M516.8,314.1l13.3-0.5c48.1-2,96.9-9.4,144.9-22l13-2.1l4.1,12.3c18.4,55.2,28.7,111.7,30.7,167.7l0.5,14.4H516.8V314.1z M516.8,516.8h205.6l-1.1,14.9c-4.2,55.6-16.6,111.8-37.1,167.3l-4.3,11.7l-12.1-3c-45.4-11.4-91.7-18.1-137.7-20l-13.3-0.6V516.8L516.8,516.8z M531.2,718.7c40.5,1.6,81.1,7.1,120.7,16.4l16.6,3.9l-7.2,15.5c-29.1,62.4-69.4,125.9-119.9,188.7l-12,15c-4.4,0.3-8.6,0.6-12.7,0.8V718.1L531.2,718.7z M459.2,943.5c-49.4-61.5-89.3-124.3-118.6-186.7l-7.2-15.3l16.5-4c39.5-9.7,79.7-15.8,119.3-18.1l14.7-0.9v240.8c-4.5-0.1-8.6-0.3-12.5-0.6L459.2,943.5z M483.8,483.8h-207l0.4-14.3c1.6-57.3,11.9-114.5,30.6-170.1l4.1-12.3l12.6,3.4c48.2,12.9,97.3,20.5,146,22.9l13.2,0.6V483.8z M483.8,516.8v170.4l-13.2,0.6c-45.5,2.1-91.8,9.1-137.5,20.7l-12.1,3.1l-4.3-11.7c-20.7-55.8-33.4-112.4-37.9-168.1l-1.2-15H483.8z M467.1,42.5c5-0.3,10.5-0.4,16.7-0.5v240.7l-14.7-0.9c-42.9-2.5-86.5-9.5-129.6-20.8l-15.9-4.1l6.7-15C374.9,142.7,435.9,74.5,460,49.8L467.1,42.5z M176.6,177.4c55.2-55.3,123.9-95.7,198.8-117l40-11.3l-25.1,33.1c-36.5,48.1-66.9,99.9-90.4,153.9l-5.2,11.8l-12.2-4.3c-34.6-12.1-69.1-27-102.5-44.1l-16.9-8.7L176.6,177.4z M44.1,469c6-88.4,37.3-172.5,90.5-243.3l7.1-9.5l10.5,5.6c38.7,20.6,78.4,38,117.9,51.8l12.9,4.5l-4.4,13C259,349.9,248,410.2,246.1,470.4l-0.4,13.4H43.1L44.1,469z M152.9,779l-10.4,5.5l-7.1-9.4c-53.5-70.8-85.1-155-91.2-243.5l-1-14.8h203.1l0.9,13c3.9,59.1,16.6,118.9,37.8,177.8l4.8,13.3l-13.4,4.6C235.3,739.3,193.8,757.3,152.9,779z M385.8,942.6c-78.4-20.3-150.5-61.4-208.3-119.1L164,810l17-8.7c36.2-18.5,72.8-34.1,109-46.4l11.9-4l5.2,11.5c23.8,52.7,55.3,106,93.4,158.6l22.7,31.3L385.8,942.6z M824.4,821.6C766.5,880,694.1,921.8,615,942.3l-37.5,9.7l22.7-31.3c38.7-53.3,70.5-107.5,94.5-161.1l5.1-11.5l12,4c37.3,12.5,74.1,28.5,109.2,47.5l16.3,8.8L824.4,821.6z M955.8,531.6c-6.1,88.4-37.6,172.6-91,243.3l-7.3,9.6l-10.5-5.8c-39.4-21.8-80.6-40-122.3-54.3l-13.4-4.6l4.8-13.3c21-58.6,33.6-118.1,37.5-176.9l0.8-13h202.4L955.8,531.6z"/></g>
</svg>