<?xml version="1.0" encoding="utf-8"?>
<!-- Svg Vector Icons : http://www.onlinewebfonts.com/icon -->
<!DOCTYPE svg PUBLIC "-//W3C//DTD SVG 1.1//EN" "http://www.w3.org/Graphics/SVG/1.1/DTD/svg11.dtd">
<svg version="1.1" xmlns="http://www.w3.org/2000/svg" xmlns:xlink="http://www.w3.org/1999/xlink" x="0px" y="0px" viewBox="0 0 1000 1000" enable-background="new 0 0 1000 1000" xml:space="preserve">
<metadata> Svg Vector Icons : http://www.onlinewebfonts.com/icon </metadata>
<g><g transform="translate(0.000000,511.000000) scale(0.100000,-0.100000)"><path d="M4565.5,3511.1c-1092.8-65.8-2196.6-397.2-3148.9-948c-375.2-215-882.1-581.5-1185-858L100,1586.7L407.2,1286c169-166.8,337.9-331.4,377.4-366.5l70.2-63.6l204.1,171.2c928.2,779,2003.4,1248.6,3219.1,1402.2c368.7,48.3,1084,48.3,1452.7,0C6953,2273.5,8017.2,1810.5,8952,1027.1l206.3-173.4l370.9,368.7l370.8,370.8l-127.3,116.3c-193.1,175.5-539.8,441.1-796.6,612.2c-1081.8,717.5-2262.4,1110.3-3576.8,1191.5C5006.6,3537.5,4971.5,3537.5,4565.5,3511.1z"/><path d="M4576.5,1591.1c-1127.9-118.5-2069.3-498.1-2896.6-1171.8c-250.2-204.1-256.7-160.2,68-474c155.8-151.4,324.8-316,375.2-364.3l92.2-87.8l138.3,116.3C3295,395.1,4655.5,722.1,5882.1,458.8C6505.3,324.9,7190-2.1,7657.4-392.7L7795.6-509l373,373l373,373.1l-171.2,149.2c-390.6,333.5-1031.3,706.6-1549.2,897.5c-557.4,206.3-1073,298.4-1707.2,309.4C4866.2,1597.6,4624.8,1595.4,4576.5,1591.1z"/><path d="M4653.3-340c-636.4-81.2-1215.7-318.2-1696.2-693.4l-125.1-98.7l366.5-366.4c199.7-199.7,370.8-364.3,379.6-364.3c8.8,0,81.2,43.9,162.4,98.7c79,52.7,206.3,125.1,283.1,162.4c726.3,344.5,1579.9,283.1,2244.8-162.4c81.2-54.9,151.4-98.7,160.2-98.7c6.6,0,177.7,164.6,379.6,366.5l366.5,366.5l-136.1,105.3c-397.2,311.6-906.3,542-1419.8,642.9C5436.7-346.6,4820.1-320.3,4653.3-340z"/><path d="M4697.2-2290.8c-144.8-32.9-463-179.9-476.2-219.4c-4.4-13.2,169-197.5,384-412.5l388.4-388.4l403.8,403.8l403.8,403.8l-118.5,68C5414.7-2282,5006.6-2220.5,4697.2-2290.8z"/></g></g>
</svg>