<?xml version="1.0" encoding="utf-8"?>
<!-- Svg Vector Icons : http://www.onlinewebfonts.com/icon -->
<!DOCTYPE svg PUBLIC "-//W3C//DTD SVG 1.1//EN" "http://www.w3.org/Graphics/SVG/1.1/DTD/svg11.dtd">
<svg version="1.1" xmlns="http://www.w3.org/2000/svg" xmlns:xlink="http://www.w3.org/1999/xlink" x="0px" y="0px" viewBox="0 0 1000 1000" enable-background="new 0 0 1000 1000" xml:space="preserve">
<metadata> Svg Vector Icons : http://www.onlinewebfonts.com/icon </metadata>
<g><g transform="translate(0.000000,511.000000) scale(0.100000,-0.100000)"><path d="M572.4,4315.2c-174.9-54.3-349.8-209.1-428.2-379.9l-44.2-94.5v-3347v-3347l56.3-114.6c70.4-142.7,221.1-281.4,367.9-335.7c108.5-42.2,134.7-42.2,3043.5-42.2h2934.9v432.2v432.2H3728.4H954.3v2563v2563h3889.8h3889.8V1183.3V-280.1l237.2-144.7c128.7-80.4,323.7-199,432.2-265.3l195-122.6l-4,2337.9l-6,2335.9l-54.3,100.5c-64.3,120.6-195,249.3-317.6,313.6l-90.5,48.2l-4251.6,4C2536.4,4329.3,600.5,4323.2,572.4,4315.2z M1340.3,3836.8c34.2-20.1,90.5-70.4,122.6-112.6c52.3-62.3,64.3-98.5,70.4-205c8.1-112.6,2-140.7-44.2-219.1c-32.2-56.3-88.4-112.6-144.7-144.7c-78.4-46.2-106.5-52.3-219.1-44.2c-106.5,6-142.7,18.1-205,68.4c-88.4,70.4-166.8,211.1-166.8,295.5c0,166.9,118.6,343.8,261.3,392C1105.1,3897.1,1263.9,3881,1340.3,3836.8z M2659,3860.9c207.1-88.4,299.5-321.6,207.1-522.7c-70.4-152.8-191-231.2-353.8-231.2c-114.6,0-184.9,28.1-269.4,106.5c-82.4,78.4-122.6,168.9-122.6,275.4C2120.3,3772.5,2403.7,3967.4,2659,3860.9z M4098.3,3816.7c184.9-130.7,223.1-398,78.4-568.9c-229.2-275.4-689.5-118.6-689.5,233.2c0,128.6,26.1,201,96.5,277.4C3718.4,3903.1,3939.5,3927.2,4098.3,3816.7z"/><path d="M7190-193.7c-18.1-18.1-24.1-394-24.1-1563.9c0-1576,0-1588.1,74.4-1588.1c14.1,0,195,144.7,402.1,321.6c335.7,287.5,383.9,321.6,448.3,321.6c48.3,0,86.4-14.1,108.6-38.2c20.1-22.1,195-323.7,386-669.4c193-345.8,371.9-645.3,396-663.4c74.4-58.3,164.8-44.2,359.8,58.3c100.5,52.3,199,118.6,219.1,144.7c80.4,100.5,60.3,148.7-323.6,838.2c-233.2,420.1-361.8,669.4-361.8,705.6c2,108.6,40.2,128.7,526.7,287.5c474.4,154.8,530.7,184.9,486.5,255.3c-32.2,50.3-2583.1,1614.2-2631.4,1614.2C7232.2-169.6,7204.1-179.6,7190-193.7z"/></g></g>
</svg>