<?xml version="1.0" encoding="utf-8"?>
<!-- Svg Vector Icons : http://www.onlinewebfonts.com/icon -->
<!DOCTYPE svg PUBLIC "-//W3C//DTD SVG 1.1//EN" "http://www.w3.org/Graphics/SVG/1.1/DTD/svg11.dtd">
<svg version="1.1" xmlns="http://www.w3.org/2000/svg" xmlns:xlink="http://www.w3.org/1999/xlink" x="0px" y="0px" viewBox="0 0 1000 1000" enable-background="new 0 0 1000 1000" xml:space="preserve">
<metadata> Svg Vector Icons : http://www.onlinewebfonts.com/icon </metadata>
<g><path d="M285.1,455.9L285.1,455.9l99.1,102.8l34.3-35.5l-36.7-37.9l-17.1-17.1l85.7-89.3l11,1.2c2.4,0,6.1,0,8.6,0c6.1,0,12.2-1.2,17.1-2.4l-63.6-64.9c-1.2-1.2-2.4-2.4-3.7-3.7c19.6-72.2,1.2-153-53.8-210.5c-55.1-56.3-132.2-74.7-201.9-55.1l118.7,122.4L252,285.8l-116.3,31.8L17.1,195.3C-1.3,267.5,15.9,347,70.9,404.5C129.7,462.1,212.9,480.4,285.1,455.9L285.1,455.9L285.1,455.9z M633.9,528.1c-2.4,8.6-2.4,18.4-1.2,26.9l1.2,12.2l-8.6,8.6l-61.2,63.6L547,656.6l-53.8-56.3l-34.3,35.5l312.1,323.1c19.6,19.6,44.1,29.4,69.8,29.4c25.7,0,50.2-9.8,69.8-29.4c37.9-39.2,37.9-104,0-144.4L633.9,528.1L633.9,528.1L633.9,528.1z M875,925.9l-49,13.5l-40.4-41.6l13.5-51.4l49-13.5l40.4,41.6L875,925.9L875,925.9L875,925.9z M494.4,566.1l53.8,56.3l61.2-63.6c-3.7-30.6,6.1-62.4,29.4-86.9c23.3-23.3,53.8-34.3,83.2-30.6l268-275.4L840.7,10.5l-268,276.6c3.7,30.6-6.1,62.4-29.4,86.9c-23.3,23.3-53.8,34.3-83.2,30.6l-61.2,63.6l53.8,56.3L188.4,796.2l-9.8-9.8L128.4,828L42.8,967.5l22,22l134.6-88.1l40.4-52.6L230,839L494.4,566.1L494.4,566.1L494.4,566.1z"/></g>
</svg>