<?xml version="1.0" encoding="utf-8"?>
<!-- Generator: Adobe Illustrator 25.2.1, SVG Export Plug-In . SVG Version: 6.00 Build 0)  -->
<svg version="1.1" id="Ebene_1" xmlns="http://www.w3.org/2000/svg" xmlns:xlink="http://www.w3.org/1999/xlink" x="0px" y="0px"
	 viewBox="0 0 496.6 496.8" style="enable-background:new 0 0 496.6 496.8;" xml:space="preserve">
<style type="text/css">
	.st0{fill:none;}
</style>
<g id="Ebene_2_1_">
	<g id="Ebene_1-2">
		<path d="M262.6,0c9.2,1.3,18.5,2.2,27.6,3.8c66,11.8,119.2,44.7,158.8,98.7c34.8,47.5,50.5,101.3,47.1,160
			c-6.4,110.8-84,202.4-192,227.7C187.7,517.6,67,456.5,20.2,346.5C-38.6,208.4,35.9,51,179.8,10c16.5-4.7,34-6.2,51-9.2
			c1-0.2,1.9-0.5,2.9-0.8L262.6,0z M248.1,15.8C119.2,17.8,16.5,119.3,16.7,249C17,378.5,120.9,481.2,249.8,480.7
			c129.4-0.5,231.7-104.6,231.4-232.9C480.8,120.6,379.3,16.9,248.1,15.8z"/>
		<path d="M162.3,400.3L52.2,234c8.1-1.8,15.7-3.4,23.3-5c47-10,94.1-20,141.1-30c3.7-0.8,5.8-0.2,8.1,3.2
			c11.5,17.9,23.4,35.6,35.2,53.3c1.4,2.1,1.6,3.5,0.1,5.6c-32.3,46.1-64.5,92.2-96.7,138.3C163,399.8,162.7,400.1,162.3,400.3z"/>
		<path d="M340.1,171c34.5,16.6,68.8,33.1,103.7,49.9l-96.7,142.6c-9-13.6-17.8-26.7-26.5-39.9c-13.4-20.3-26.8-40.5-40.2-60.8
			c-1.5-2.2-2.4-3.8-0.4-6.5c19.7-27.9,39.2-55.9,58.7-83.8C339.2,172,339.6,171.5,340.1,171z"/>
		<path d="M270,270.9l66,99.7l-159.4,33.8L270,270.9z"/>
		<path d="M147.6,85.9l66,99.7L54.3,219.3L147.6,85.9z"/>
		<path d="M165.2,86.8l162.2,78L269.9,247L164.5,87.7L165.2,86.8z"/>
	</g>
</g>
<path class="st0" d="M0,0h496v496H0V0z"/>
</svg>
