<?xml version="1.0" encoding="utf-8"?>
<!-- Svg Vector Icons : http://www.onlinewebfonts.com/icon -->
<!DOCTYPE svg PUBLIC "-//W3C//DTD SVG 1.1//EN" "http://www.w3.org/Graphics/SVG/1.1/DTD/svg11.dtd">
<svg version="1.1" xmlns="http://www.w3.org/2000/svg" xmlns:xlink="http://www.w3.org/1999/xlink" x="0px" y="0px" viewBox="0 0 1000 1000" enable-background="new 0 0 1000 1000" xml:space="preserve">
<metadata> Svg Vector Icons : http://www.onlinewebfonts.com/icon </metadata>
<g><g transform="translate(0.000000,511.000000) scale(0.100000,-0.100000)"><path d="M4837.4,4997.5l-68.6-8.3l14.6-147.5c16.6-180.8,62.3-450.9,79-465.5c6.2-6.2,93.5,20.8,195.3,62.3c326.3,128.8,901.9,284.7,1242.7,336.7l103.9,16.6l-151.7,47.8C5847.3,4966.3,5194.8,5041.1,4837.4,4997.5z"/><path d="M3956.3,4837.5c-124.7-37.4-234.8-79-247.3-91.4c-33.2-33.2-45.7-592.2-18.7-876.9c114.3-1165.8,559-2094.7,1413.1-2952.9c423.9-423.9,827.1-737.7,1365.3-1059.8c313.8-187,922.7-486.3,1244.7-608.9c137.1-54,268.1-106,293-114.3c76.9-33.2,143.4-284.7,143.4-542.4c0-189.1-6.2-232.8-52-322.1c-78.9-164.2-253.5-324.2-457.2-421.8c-317.9-151.7-633.8-216.1-1282.1-263.9c-428.1-31.2-546.5-52-1492.1-249.4c-816.7-170.4-1342.4-245.2-2233.9-311.7c-700.3-54-885.2-85.2-1115.9-199.5c-272.2-130.9-401.1-336.7-401.1-638c0-135.1,10.4-180.8,62.3-288.9c108.1-232.7,328.3-399,681.6-517.4c421.9-139.2,1018.2-195.3,1693.6-155.9c417.7,24.9,1130.5,108.1,1253.1,149.6c106,33.3,164.2,112.2,164.2,220.3c0,79-10.4,101.8-70.7,155.9c-66.5,60.3-76.9,62.3-207.8,52c-74.8-6.2-230.7-24.9-345-43.7c-1120.1-172.5-2202.7-97.7-2612.1,178.7c-170.4,116.4-222.3,297.2-118.4,409.4c122.6,130.9,330.4,172.5,1296.7,251.4c1043.2,85.2,1500.4,153.8,2379.4,353.3c571.5,128.8,764.7,160,1180.3,187c914.3,58.2,1502.4,268.1,1849.5,656.7c255.6,286.8,349.1,681.6,261.9,1105.5c-39.5,193.2-133,442.6-205.7,548.6l-52,76.9l103.9,182.9c103.9,182.9,103.9,182.9,58.2,201.6c-239,99.8-746,347-982.9,480C5741.3,1383.8,4640,2778.1,4349,4378.2c-27,149.6-56.1,328.3-64.4,401.1C4268,4935.1,4272.1,4935.1,3956.3,4837.5z"/><path d="M2954.7,4367.8c-295.1-195.3-274.3-164.2-313.8-446.8c-51.9-347-51.9-1097.2-2.1-1413.1c126.8-804.2,407.3-1465,895.6-2119.6c230.7-309.6,746-827.1,1072.3-1078.5c538.2-415.6,1190.7-795.9,1841.1-1070.2l209.9-89.3l153.8,72.7c205.7,99.7,469.6,259.8,658.8,401.1l155.8,116.4l-226.5,93.5c-509.1,205.7-1120.1,534-1600.1,860.3C5269.6,53.8,4679.4,587.9,4332.4,1022.2c-766.8,955.9-1157.5,2059.4-1159.6,3258.4c0,116.4-6.2,212-16.6,212C3147.9,4492.5,3056.5,4436.4,2954.7,4367.8z"/><path d="M6954.9,4241.1c-615.1-54-1404.7-241.1-1810-430.2l-118.5-56.1l95.6-224.4c74.8-180.8,99.7-222.4,126.8-209.9c268.1,116.4,822.9,263.9,1238.5,332.5c251.4,39.5,1174.1,62.3,1402.7,33.3c85.2-10.4,160-16.6,164.2-12.5c14.5,14.5-394.8,409.4-519.5,502.9c-110.2,83.1-122.6,87.3-249.4,85.2C7212.6,4259.8,7063,4251.5,6954.9,4241.1z"/><path d="M1969.7,3428.6c-191.2-261.8-523.7-941.4-496.7-1016.2c4.2-10.4,85.2,35.3,182.9,97.7c97.7,64.4,236.9,149.6,311.7,189.1l135.1,74.8v411.5c0,228.6-2.1,413.5-4.2,413.5C2096.4,3599,2038.2,3522.1,1969.7,3428.6z"/><path d="M6996.5,3067c-39.5-4.2-162.1-18.7-270.2-29.1c-388.6-43.6-1163.7-234.8-1163.7-288.8c0-24.9,170.4-255.6,307.5-417.7c64.4-74.8,122.6-143.4,130.9-151.7c6.2-10.4,124.7,20.8,259.8,66.5c735.6,249.4,1589.7,272.2,2354.5,62.3c83.1-22.9,157.9-37.4,162.1-31.2c16.6,14.6-66.5,276.4-151.7,478c-56.1,133-87.3,180.8-120.5,189.1c-365.7,83.1-629.6,114.3-1051.5,122.6C7241.7,3071.1,7036,3071.1,6996.5,3067z"/><path d="M1963.4,2115.2c-112.2-68.6-301.3-199.5-421.8-286.8l-218.2-160v-245.2c2.1-226.5,29.1-540.3,49.9-563.1c6.2-4.2,83.1,47.8,172.5,114.3c184.9,141.3,473.8,336.6,671.2,453c74.8,43.6,137.2,81,141.3,83.1c2.1,2.1-27,116.4-66.5,251.5c-37.4,135.1-76.9,288.8-85.2,340.8c-8.3,51.9-20.8,103.9-29.1,116.4C2169.2,2235.8,2094.3,2200.4,1963.4,2115.2z"/><path d="M6994.4,1822.2c-191.2-31.2-426-87.3-473.8-112.2c-49.8-29.1,536.2-473.8,974.6-739.8c426-259.8,1194.9-631.7,1230.2-596.4c27,27,114.3,392.8,141.3,596.4c12.5,103.9,20.8,288.8,16.6,415.6l-6.2,226.5l-209.9,66.5c-394.8,128.8-577.7,157.9-1057.8,166.2C7299.9,1849.2,7121.2,1843,6994.4,1822.2z"/><path d="M2349.9,926.6c-295.1-185-839.5-588.1-839.5-623.4c0-54,234.8-548.6,328.3-689.9c14.6-20.8,74.8,18.7,247.3,155.9c126.8,99.7,369.9,274.3,540.3,388.6L2938,363.4l-99.8,162.1c-56.1,89.3-141.3,243.1-189.1,340.8c-47.8,97.7-93.5,176.6-101.8,176.6C2541.1,1043,2451.8,991,2349.9,926.6z"/><path d="M3000.4-189.3c-205.7-130.9-625.5-436.4-768.9-561.1l-76.9-66.5l97.7-112.2c149.6-170.4,428.1-405.2,681.6-575.6c687.8-457.2,1483.7-679.5,2327.4-646.3c274.3,10.4,519.5,39.5,613,68.6c16.6,6.2-89.4,72.7-245.2,153.8C4733.5-1463.2,3931.3-852.2,3401.4-237.1c-83.1,97.7-162.1,178.7-174.6,178.7C3214.4-60.5,3112.6-118.7,3000.4-189.3z"/></g></g>
</svg>