<?xml version="1.0" encoding="utf-8"?>
<!-- Generator: Adobe Illustrator 25.2.1, SVG Export Plug-In . SVG Version: 6.00 Build 0)  -->
<svg version="1.1" id="Ebene_1" xmlns="http://www.w3.org/2000/svg" xmlns:xlink="http://www.w3.org/1999/xlink" x="0px" y="0px"
	 viewBox="0 0 1000 1000" style="enable-background:new 0 0 1000 1000;" xml:space="preserve">
<style type="text/css">
	.st0{fill:none;}
</style>
<g>
	<path d="M603,47.6C271.1,53.7-48.5,324.1,19.1,674.4c36.9,190.5,135.2,79.9,172.1-24.6c43-98.3,153.6-92.2,141.3,30.7
		c-49.2,448.6,338,252,534.7,49.2C1131.5,465.5,934.8,47.6,603,47.6L603,47.6z M191.2,502.3c-43,18.4-86-6.1-98.3-49.2
		c-6.1-36.9,18.4-79.9,61.5-92.2c43-12.3,86,6.1,98.3,49.2C258.8,447,234.2,490,191.2,502.3L191.2,502.3z M338.7,354.8
		c-49.2-24.6-67.6-79.9-49.2-122.9c18.4-49.2,73.7-61.5,122.9-43c49.2,24.6,67.6,79.9,49.2,129.1C437,361,387.9,379.4,338.7,354.8
		L338.7,354.8z M590.7,797.3c-49.2,24.6-110.6,6.1-129.1-36.9c-18.4-43,12.3-104.5,61.5-129.1c49.2-24.6,110.6-6.1,129.1,36.9
		C670.6,711.3,646,772.7,590.7,797.3L590.7,797.3L590.7,797.3z M603,250.4c-36.9,0-61.5-30.7-61.5-67.6s30.7-67.6,61.5-67.6
		c36.9,0,61.5,30.7,61.5,67.6C670.6,219.6,639.8,250.4,603,250.4L603,250.4z M848.8,379.4c-36.9,12.3-79.9-12.3-92.2-55.3
		c-18.4-49.2,0-98.3,30.7-110.6c36.9-12.3,79.9,12.3,92.2,55.3C897.9,311.8,879.5,361,848.8,379.4L848.8,379.4z"/>
</g>
<path class="st0" d="M0,0h1000v1000H0V0z"/>
</svg>
