<?xml version="1.0" encoding="UTF-8"?>
<!DOCTYPE svg PUBLIC "-//W3C//DTD SVG 1.1//EN" "http://www.w3.org/Graphics/SVG/1.1/DTD/svg11.dtd">
<svg version="1.1" xmlns="http://www.w3.org/2000/svg" xmlns:xlink="http://www.w3.org/1999/xlink" x="0" y="0" width="172" height="172" viewBox="0, 0, 172, 172">
  <g id="Layer_1" transform="translate(-191.5, -135.27)">
    <path d="M363.5,135.27 L363.5,307.27 L191.5,307.27 L191.5,135.27 L363.5,135.27 z M306.828,273.991 L287.82,273.991 L287.82,293 L306.828,293 L306.828,273.991 z M227.008,273.991 L208,273.991 L208,293 L227.008,293 L227.008,273.991 z M266.918,273.991 L247.91,273.991 L247.91,293 L266.918,293 L266.918,273.991 z M346.738,273.991 L327.73,273.991 L327.73,293 L346.738,293 L346.738,273.991 z M247.91,185.209 L247.91,257.331 L310.369,221.27 L247.91,185.209 z M306.828,149.992 L287.82,149.992 L287.82,169 L306.828,169 L306.828,149.992 z M227.008,149.992 L208,149.992 L208,169 L227.008,169 L227.008,149.992 z M266.918,149.992 L247.91,149.992 L247.91,169 L266.918,169 L266.918,149.992 z M346.738,149.992 L327.73,149.992 L327.73,169 L346.738,169 L346.738,149.992 z" fill="#000000"/>
  </g>
</svg>
