<?xml version="1.0" encoding="utf-8"?>
<!-- Svg Vector Icons : http://www.onlinewebfonts.com/icon -->
<!DOCTYPE svg PUBLIC "-//W3C//DTD SVG 1.1//EN" "http://www.w3.org/Graphics/SVG/1.1/DTD/svg11.dtd">
<svg version="1.1" xmlns="http://www.w3.org/2000/svg" xmlns:xlink="http://www.w3.org/1999/xlink" x="0px" y="0px" viewBox="0 0 1000 1000" enable-background="new 0 0 1000 1000" xml:space="preserve">
<metadata> Svg Vector Icons : http://www.onlinewebfonts.com/icon </metadata>
<g><path d="M954.2,691.9h-58.4v-116c0-19.8-16-35.8-35.8-35.8H535.8V403.4H742c19.8,0,35.8-16,35.8-35.8V83.9c0-19.8-16-35.8-35.8-35.8H258c-19.8,0-35.8,16-35.8,35.8v283.7c0,19.8,16,35.8,35.8,35.8h206.3v136.7H140c-19.8,0-35.8,16-35.8,35.8v116H45.8C26,691.9,10,708,10,727.7v188.4c0,19.8,16,35.8,35.8,35.8h188.4c19.8,0,35.8-16,35.8-35.8V727.7c0-19.8-16-35.8-35.8-35.8h-58.4v-80.3h288.5v80.3h-58.4c-19.8,0-35.8,16-35.8,35.8v188.4c0,19.8,16,35.8,35.8,35.8h188.4c19.8,0,35.8-16,35.8-35.8V727.7c0-19.8-16-35.8-35.8-35.8h-58.4v-80.3h288.5v80.3h-58.4c-19.8,0-35.8,16-35.8,35.8v188.4c0,19.8,16,35.8,35.8,35.8h188.4c19.8,0,35.8-16,35.8-35.8V727.7C990,708,974,691.9,954.2,691.9z"/><g></g><g></g><g></g><g></g><g></g><g></g><g></g><g></g><g></g><g></g><g></g><g></g><g></g><g></g><g></g></g>
</svg>