<?xml version="1.0" encoding="utf-8"?>
<!-- Svg Vector Icons : http://www.onlinewebfonts.com/icon -->
<!DOCTYPE svg PUBLIC "-//W3C//DTD SVG 1.1//EN" "http://www.w3.org/Graphics/SVG/1.1/DTD/svg11.dtd">
<svg version="1.1" xmlns="http://www.w3.org/2000/svg" xmlns:xlink="http://www.w3.org/1999/xlink" x="0px" y="0px" viewBox="0 0 1000 1000" enable-background="new 0 0 1000 1000" xml:space="preserve">
<metadata> Svg Vector Icons : http://www.onlinewebfonts.com/icon </metadata>
<g><g><path d="M653.5,145.2c0,74.5-60.5,135.1-135.1,135.1c-74.6,0-135.1-60.6-135.1-135.1C383.3,70.6,443.9,10,518.4,10C593,10,653.5,70.6,653.5,145.2z M518.5,839.3c-41.5-0.1-75.3,33.5-75.4,75.1c-0.1,41.7,33.5,75.5,75.1,75.5c41.6,0.1,75.4-33.5,75.5-75.1C593.8,873.2,560.2,839.5,518.5,839.3z M952.4,529.9c0-27.1-22-49.2-49.2-49.2c-27.2,0-49.3,21.9-49.3,49.2c0,27.1,21.9,49.2,49.3,49.2C930.3,579.1,952.4,557,952.4,529.9z M219.6,529.9c0-47.5-38.5-86-86-86c-47.5,0-86,38.5-86,86c0,47.5,38.4,86,86,86C181.1,615.9,219.6,577.3,219.6,529.9z M817.8,230.3c-15.1-15.2-39.5-15.1-54.7,0c-15.1,15.2-15.1,39.8,0,54.9c15.2,15.2,39.6,15.2,54.7,0C832.9,270.1,832.9,245.5,817.8,230.3z M308.8,739.7c-34.5-34.3-90.5-34.3-124.9-0.1c-34.5,34.4-34.5,90.3,0,124.6c34.5,34.4,90.4,34.5,124.9,0C343.3,830,343.3,774.1,308.8,739.7z M826.5,837.9c19.7-19.8,19.7-52-0.1-71.8c-19.7-19.7-51.7-19.7-71.5,0.1c-19.7,19.8-19.7,51.9,0,71.7C774.8,857.7,806.7,857.7,826.5,837.9z M311,322.4c35.6-35.6,35.6-93.4,0-129.2c-35.6-35.6-93.3-35.6-129,0c-35.6,35.6-35.6,93.4,0,129.2C217.7,358.1,275.4,358.1,311,322.4z"/></g><g></g><g></g><g></g><g></g><g></g><g></g><g></g><g></g><g></g><g></g><g></g><g></g><g></g><g></g><g></g></g>
</svg>