<?xml version="1.0" encoding="UTF-8"?>
<!DOCTYPE svg PUBLIC "-//W3C//DTD SVG 1.1//EN" "http://www.w3.org/Graphics/SVG/1.1/DTD/svg11.dtd">
<svg version="1.1" xmlns="http://www.w3.org/2000/svg" xmlns:xlink="http://www.w3.org/1999/xlink" x="0px" y="0px" width="360" height="360" viewBox="0, 0, 360, 360">
  <g id="Layer 2">
    <path d="M116,115.617 L244,115.617 L244,244.383 L116,244.383 z" fill="#000000"/>
    <path d="M226.954,230.49 C223.06,230.49 219.904,227.334 219.904,223.44 C219.904,219.547 223.06,216.39 226.954,216.39 C230.848,216.39 234.004,219.547 234.004,223.44 C234.004,227.334 230.848,230.49 226.954,230.49 z" fill="#FFFFFF"/>
    <path d="M226.954,200.49 C223.06,200.49 219.904,197.334 219.904,193.44 C219.904,189.547 223.06,186.39 226.954,186.39 C230.848,186.39 234.004,189.547 234.004,193.44 C234.004,197.334 230.848,200.49 226.954,200.49 z" fill="#FFFFFF"/>
    <path d="M226.954,170.49 C223.06,170.49 219.904,167.334 219.904,163.44 C219.904,159.547 223.06,156.39 226.954,156.39 C230.848,156.39 234.004,159.547 234.004,163.44 C234.004,167.334 230.848,170.49 226.954,170.49 z" fill="#FFFFFF"/>
    <path d="M226.954,140.49 C223.06,140.49 219.904,137.334 219.904,133.44 C219.904,129.547 223.06,126.39 226.954,126.39 C230.848,126.39 234.004,129.547 234.004,133.44 C234.004,137.334 230.848,140.49 226.954,140.49 z" fill="#FFFFFF"/>
    <path d="M132.952,230.49 C129.058,230.49 125.902,227.334 125.902,223.44 C125.902,219.547 129.058,216.39 132.952,216.39 C136.846,216.39 140.002,219.547 140.002,223.44 C140.002,227.334 136.846,230.49 132.952,230.49 z" fill="#FFFFFF"/>
    <path d="M132.952,200.49 C129.058,200.49 125.902,197.334 125.902,193.44 C125.902,189.547 129.058,186.39 132.952,186.39 C136.846,186.39 140.002,189.547 140.002,193.44 C140.002,197.334 136.846,200.49 132.952,200.49 z" fill="#FFFFFF"/>
    <path d="M132.952,170.49 C129.058,170.49 125.902,167.334 125.902,163.44 C125.902,159.547 129.058,156.39 132.952,156.39 C136.846,156.39 140.002,159.547 140.002,163.44 C140.002,167.334 136.846,170.49 132.952,170.49 z" fill="#FFFFFF"/>
    <path d="M132.952,140.49 C129.058,140.49 125.902,137.334 125.902,133.44 C125.902,129.547 129.058,126.39 132.952,126.39 C136.846,126.39 140.002,129.547 140.002,133.44 C140.002,137.334 136.846,140.49 132.952,140.49 z" fill="#FFFFFF"/>
    <path d="M150.499,127.39 L209.501,127.39 L209.501,154.89 L150.499,154.89 z" fill="#FFFFFF"/>
    <path d="M150.499,165.69 L209.501,165.69 L209.501,193.19 L150.499,193.19 z" fill="#FFFFFF"/>
    <path d="M150.499,203.99 L209.501,203.99 L209.501,231.49 L150.499,231.49 z" fill="#FFFFFF"/>
  </g>
  <defs/>
</svg>
