<svg id="Ebene_1" data-name="Ebene 1" xmlns="http://www.w3.org/2000/svg" viewBox="0 0 2179.84 2185.78"><defs><style>.cls-1{fill-opacity:0;stroke:#000;stroke-width:180px;}</style></defs><g id="g3039"><path d="M1677,1856.05q0,140.15-94.63,234.78t-234.78,94.63q-161.71,0-281.5-119.78L135.36,1136.13Q0,998.37,0,811.51,0,621.05,131.77,488.09T454,355.12q189.27,0,327,135.36l724.71,725.91q12,12,12,26.35,0,19.17-36.54,55.7t-55.7,36.54q-15.57,0-27.55-12L672,595.89q-94.62-92.24-216.81-92.23-127,0-214.42,89.84T153.33,810.31q0,125.78,91,216.82l929.55,930.74q75.46,75.47,173.69,75.46,76.67,0,127-50.31t50.31-127q0-98.22-75.46-173.69l-696-696q-31.14-28.75-71.87-28.75-34.74,0-57.5,22.76t-22.76,57.5q0,38.33,29.95,70.67l491.12,491.13q12,12,12,26.35,0,19.17-37.13,56.3t-56.3,37.13q-14.39,0-26.36-12L523.47,1216.39Q448,1143.31,448,1037.91q0-98.24,68.28-166.51t166.5-68.28q105.42,0,178.49,75.47l696,696Q1677,1691.94,1677,1856.05Z" transform="translate(0 0.32)"/><path class="cls-1" d="M1677,0l-3.59,1008.6" transform="translate(0 0.32)"/><path class="cls-1" d="M2179.52,506.1l-1008.61-3.59" transform="translate(0 0.32)"/></g></svg>