<?xml version="1.0" encoding="utf-8"?>
<!-- Svg Vector Icons : http://www.onlinewebfonts.com/icon -->
<!DOCTYPE svg PUBLIC "-//W3C//DTD SVG 1.1//EN" "http://www.w3.org/Graphics/SVG/1.1/DTD/svg11.dtd">
<svg version="1.1" xmlns="http://www.w3.org/2000/svg" xmlns:xlink="http://www.w3.org/1999/xlink" x="0px" y="0px" viewBox="0 0 1000 1000" enable-background="new 0 0 1000 1000" xml:space="preserve">
<metadata> Svg Vector Icons : http://www.onlinewebfonts.com/icon </metadata>
<g><g transform="translate(0.000000,511.000000) scale(0.100000,-0.100000)"><path d="M100,110v-4909.9h4900h4900v571.8v571.8H5972.1H2042.3l2458.9,2458.9L6962,1263.5l638.9-638.9c577.7-577.8,640.8-634.9,650.7-591.6c45.4,187.3,993.8,4582.5,991.8,4586.5c-2,2-142-39.4-309.6-92.7c-167.6-51.3-993.8-309.6-1833.8-571.8c-840-262.2-1670.1-520.6-1841.7-575.8l-313.5-98.6l593.5-593.5c327.3-327.3,595.5-605.4,595.5-615.2c0-11.8-1100.3-1120-2445.1-2464.8L1243.7-2837.9V1092v3927.9H671.8H100V110z"/></g></g>
</svg>