<?xml version="1.0" encoding="utf-8"?>
<!-- Generator: Adobe Illustrator 25.2.1, SVG Export Plug-In . SVG Version: 6.00 Build 0)  -->
<svg version="1.1" id="Ebene_1" xmlns="http://www.w3.org/2000/svg" xmlns:xlink="http://www.w3.org/1999/xlink" x="0px" y="0px"
	 viewBox="0 0 111 111" style="enable-background:new 0 0 111 111;" xml:space="preserve">
<style type="text/css">
	.st0{fill-opacity:0;stroke:#000000;stroke-width:13;stroke-linecap:round;stroke-linejoin:round;}
	.st1{fill:none;}
</style>
<g id="Layer_1">
	<path class="st0" d="M85.8,55.6c0,16.8-13.6,30.4-30.4,30.4S25,72.3,25,55.6c0-16.8,13.6-30.4,30.4-30.4S85.8,38.8,85.8,55.6z"/>
	<path d="M17,86l70.7-70.7c2-2,5.1-2,7.1,0l0,0l1.1,1.1c2,2,2,5.1,0,7.1L25.1,94.2c-2,2-5.1,2-7.1,0l0,0L17,93.1
		C15,91.2,15,88,17,86z"/>
</g>
<path class="st1" d="M-2-2h114v114H-2V-2z"/>
</svg>
