<?xml version="1.0" encoding="utf-8"?>
<!-- Generator: Adobe Illustrator 25.2.1, SVG Export Plug-In . SVG Version: 6.00 Build 0)  -->
<svg version="1.1" id="Ebene_1" xmlns="http://www.w3.org/2000/svg" xmlns:xlink="http://www.w3.org/1999/xlink" x="0px" y="0px"
	 viewBox="0 0 996 996" style="enable-background:new 0 0 996 996;" xml:space="preserve">
<style type="text/css">
	.st0{fill:none;}
</style>
<g id="Image">
	<g>
		<path d="M50.2,468.1h895.5v65.3H50.2V468.1z"/>
		<path d="M183.3,499.9l54.9,31.7L163.5,661l-54.9-31.7L183.3,499.9z"/>
		<path d="M833,338.8l54.9,31.7l-74.7,129.4l-54.9-31.7L833,338.8z"/>
		<path d="M108.6,370.5l54.9-31.7l74.7,129.4l-54.9,31.7L108.6,370.5z"/>
		<path d="M758.3,531.6l54.9-31.7l74.7,129.4L833,661L758.3,531.6z"/>
	</g>
	<g>
		<path d="M246.4,871.4L694.2,95.8l56.6,32.7L303,904L246.4,871.4z"/>
		<path d="M340.5,772l54.9-31.7l74.7,129.4l-54.9,31.7L340.5,772z"/>
		<path d="M525.8,128.8l54.9-31.7l74.7,129.4l-54.9,31.7L525.8,128.8z"/>
		<path d="M191.1,772v-63.4h149.4V772H191.1z"/>
		<path d="M655.5,289.9v-63.4h149.4v63.4H655.5z"/>
	</g>
	<g>
		<path d="M299.7,92l447.8,775.6l-56.6,32.7L243.1,124.6L299.7,92z"/>
		<path d="M338.7,223.1v63.4H189.2v-63.4H338.7z"/>
		<path d="M803.1,705.2v63.4H653.6v-63.4H803.1z"/>
		<path d="M413.4,93.7l54.9,31.7l-74.7,129.4l-54.9-31.7L413.4,93.7z"/>
		<path d="M598.7,736.9l54.9,31.7l-74.7,129.4L524,866.4L598.7,736.9z"/>
	</g>
</g>
<path class="st0" d="M0,0h996v996H0V0z"/>
</svg>
