<?xml version="1.0" encoding="utf-8"?>
<!-- Generator: Adobe Illustrator 25.2.1, SVG Export Plug-In . SVG Version: 6.00 Build 0)  -->
<svg version="1.1" id="Ebene_1" xmlns="http://www.w3.org/2000/svg" xmlns:xlink="http://www.w3.org/1999/xlink" x="0px" y="0px"
	 viewBox="0 0 1000 1000" style="enable-background:new 0 0 1000 1000;" xml:space="preserve">
<style type="text/css">
	.st0{fill:none;}
</style>
<g>
	<path d="M132.5,500c0-101.5,82.3-183.8,183.8-183.8h306.3v122.5l245-245h-245H316.3C147.1,193.7,10,330.9,10,500
		c0,84.6,34.3,161.1,89.7,216.5l86.7-86.6C153.1,596.7,132.5,550.8,132.5,500z M900.3,283.4l-86.6,86.7
		c33.3,33.2,53.8,79.1,53.8,129.9c0,101.5-82.3,183.7-183.8,183.7H377.5V561.3l-245,245h245h306.2C852.9,806.3,990,669.2,990,500
		C990,415.4,955.7,338.9,900.3,283.4z"/>
</g>
<path class="st0" d="M0,0h1000v1000H0V0z"/>
</svg>
