<?xml version="1.0" encoding="utf-8"?>
<!-- Generator: Adobe Illustrator 25.2.1, SVG Export Plug-In . SVG Version: 6.00 Build 0)  -->
<svg version="1.1" id="Ebene_1" xmlns:xl="http://www.w3.org/1999/xlink"
	 xmlns="http://www.w3.org/2000/svg" xmlns:xlink="http://www.w3.org/1999/xlink" x="0px" y="0px" viewBox="0 0 146 146"
	 style="enable-background:new 0 0 146 146;" xml:space="preserve">
<style type="text/css">
	.st0{fill:none;}
	.st1{fill:#FFFFFF;}
	.st2{fill:#FFFFFF;stroke:#FFFFFF;stroke-width:14;stroke-linejoin:round;}
</style>
<path d="M73,1h52c11,0,20,9,20,20v104c0,11-9,20-20,20H21c-11,0-20-9-20-20V21C1,10,10,1,21,1H73z"/>
<line class="st0" x1="40.5" y1="73" x2="111" y2="73"/>
<line class="st0" x1="73" y1="111" x2="73" y2="40.5"/>
<g>
	<path class="st1" d="M96.5,105.5l-24.9,33l-24.9-33H96.5z"/>
	<line class="st2" x1="40.5" y1="73" x2="111" y2="73"/>
	<line class="st2" x1="73" y1="111" x2="73" y2="40.5"/>
	<path class="st1" d="M105.5,48.1l33,24.9l-33,24.9V48.1z"/>
	<path class="st1" d="M46.8,40.5l24.9-33l24.9,33H46.8z"/>
	<path class="st1" d="M40.5,97.9L7.5,73l33-24.9L40.5,97.9z"/>
</g>
</svg>
