<?xml version="1.0" encoding="utf-8"?>
<!-- Svg Vector Icons : http://www.onlinewebfonts.com/icon -->
<!DOCTYPE svg PUBLIC "-//W3C//DTD SVG 1.1//EN" "http://www.w3.org/Graphics/SVG/1.1/DTD/svg11.dtd">
<svg version="1.1" xmlns="http://www.w3.org/2000/svg" xmlns:xlink="http://www.w3.org/1999/xlink" x="0px" y="0px" viewBox="0 0 1000 1000" enable-background="new 0 0 1000 1000" xml:space="preserve">
<metadata> Svg Vector Icons : http://www.onlinewebfonts.com/icon </metadata>
<g><g transform="translate(0.000000,17.000000) scale(0.100000,-0.100000)"><path d="M3557.5-2498.1c-522.8-562.8-1527.8-1045.3-2211.2-1125.8C301-3704.2,100-3905.2,100-4749.5c0-804.1,241.3-1045.1,1206.1-1125.6c683.5-80.5,1688.6-603,2331.7-1206.1l1085.6-1045.5V-4830c0,1809.1-40.2,3296.7-120.5,3296.7C4522.3-1533.3,4039.8-1975.6,3557.5-2498.1z"/><path d="M8542.6-2337.3c603-2251.4,643.1-3176.2,201-4020.3c-522.6-1005.1-161-1688.6,442.1-804.1c1045.5,1608.1,925,3578-241.1,5025.3C8301.5-1332.3,8301.5-1372.5,8542.6-2337.3z"/><path d="M7296.4-4749.5c0-1568.1,80.1-1889.6,522.6-1527.6c281.5,241.1,522.6,924.6,522.6,1527.6S8100.5-3462.9,7819-3221.9C7376.5-2859.9,7296.4-3181.6,7296.4-4749.5z"/><path d="M5889.4-3664c-201.2-1125.8-80.5-1889.6,241.1-1970.1c563-80.5,764,1286.6,241.1,1809.1C6130.4-3583.7,5929.4-3503.2,5889.4-3664z"/></g></g>
</svg>