<?xml version="1.0" encoding="utf-8"?>
<!-- Generator: Adobe Illustrator 25.2.1, SVG Export Plug-In . SVG Version: 6.00 Build 0)  -->
<svg version="1.1" id="Ebene_1" xmlns="http://www.w3.org/2000/svg" xmlns:xlink="http://www.w3.org/1999/xlink" x="0px" y="0px"
	 viewBox="0 0 1000 1000" style="enable-background:new 0 0 1000 1000;" xml:space="preserve">
<style type="text/css">
	.st0{fill:none;}
	.st1{fill-rule:evenodd;clip-rule:evenodd;}
</style>
<path class="st0" d="M-7,0H993v1000H-7V0z"/>
<g>
	<g>
		<path class="st1" d="M642.1,543.3c-9.3-6.7-43.5,8.8-50,15h-1v-218c1.2-2.2,15.8-7.3,19-9c10.9-5.7,25.8-10.6,36-18
			c2.8-2,4.2-5.9,7-8c1.9-22.2,2-50.7,2-76c0-17.1-0.1-31.9-13-36c-9.3-6.7-43.5,8.8-50,15h-1v-137c0-34,5.8-56.9-24-63
			c-1.9,1.5-4.7,1.9-8,2c-2.9,2.8-7.7,4.6-10,8c-1.3,4-2.7,8-4,12v201c-8.7,4-17.3,8-26,12c-14.2,7.4-29.3,16.5-44,23
			c-9.8,4.3-21.5,7.3-29,14h-1v-139c0-17.7,3.5-45.7-4-57c-6.1-9.2-16.5-9-28-8c-2.9,2.8-7.7,4.6-10,8c-1.3,4-2.7,8-4,12v207
			c-5.3,2.3-10.7,4.7-16,7c-9.9,5.1-41.8,18.6-47,26c-8.5,11.9-4,45.2-4,64c0,10.7-2.8,31,2,38c0.6,6.6,5.4,11.4,11,13
			c9.8,6.9,45.1-10.5,52-17h2v219c-5.3,2.3-10.7,4.7-16,7c-9.9,5.1-41.8,18.6-47,26c-8.5,11.9-4,45.2-4,64c0,10.7-2.8,31,2,38
			c0.6,6.6,5.4,11.4,11,13c9.8,6.9,45.1-10.5,52-17h2v142c0,17.7-3.5,45.7,4,57c6.1,9.2,16.5,9,28,8c2.9-2.8,7.7-4.6,10-8
			c1.3-4,2.7-8,4-12v-210c8.7-4,17.3-8,26-12c16.5-8.6,34.5-17.4,51-26c6.7-3.5,15.4-5.2,21-10h2v145c0,18.1-3.8,47.3,4,59
			c6.1,9.2,16.5,9,28,8c4.1-3.9,9.8-6.2,12-12c5.1-13.3,2-37.2,2-54v-169c1.2-2.2,15.8-7.3,19-9c10.9-5.7,25.8-10.6,36-18
			c2.8-2,4.2-5.9,7-8c1.9-22.2,2-50.7,2-76C655.1,562.1,654.9,547.4,642.1,543.3z M545.1,581.3c-8.7,4-17.3,8-26,12
			c-14.2,7.4-29.3,16.5-44,23c-9.8,4.3-21.5,7.3-29,14h-1v-219c8.7-4,17.3-8,26-12c16.5-8.6,34.5-17.4,51-26c6.7-3.5,15.4-5.2,21-10
			h2V581.3z"/>
	</g>
</g>
</svg>
