<?xml version="1.0" encoding="utf-8"?>
<!-- Generator: Adobe Illustrator 25.2.1, SVG Export Plug-In . SVG Version: 6.00 Build 0)  -->
<svg version="1.1" id="Ebene_1" xmlns="http://www.w3.org/2000/svg" xmlns:xlink="http://www.w3.org/1999/xlink" x="0px" y="0px"
	 viewBox="0 0 1000 1000" style="enable-background:new 0 0 1000 1000;" xml:space="preserve">
<style type="text/css">
	.st0{fill:none;}
	.st1{fill-rule:evenodd;clip-rule:evenodd;}
</style>
<path class="st0" d="M-7,0H993v1000H-7V0z"/>
<g>
	<g>
		<path class="st1" d="M599.8,921.4V289.9c0-14.9,2.1-34.5-4-43.7c-7-10.6-22.1-10.8-35-6.1c-27.2,9.9-55.3,21.2-82,31.5
			c-9.5,3.7-24.9,4-31,11.2h-2V81.5c0-36.7,7.7-66.5-24-73.2c-1.9,1.5-4.7,1.9-8,2c-4.1,4-9.8,6.3-12,12.2c-4.3,11.4-2,31.1-2,45.8
			V718c0,20.6-1.2,41.7,14,46.8c7.8,5.6,21.7,0.4,30-3.1c9-3.7,18.2-4.1,28-8.1c15.5-6.3,38-15.4,53-19.3c8.1-2.1,22.1-3.5,27-9.2h2
			v196.2c0,39-8.8,73.2,32,70.2c4.1-4,9.8-6.3,12-12.2C603.2,965,599.8,939.3,599.8,921.4z M553.8,580.7
			c-25.2,5.8-52.3,17.4-76,26.4c-8.5,3.3-24.4,3.7-30,10.2h-2V426.2c17.5-4.1,33.4-11.8,49-18.3c9.9-4.1,19.5-4.1,30-8.1
			c8.9-3.4,19.1-10.6,29-12.2V580.7z"/>
	</g>
</g>
</svg>
