<?xml version="1.0" encoding="utf-8"?>
<!-- Generator: Adobe Illustrator 25.2.1, SVG Export Plug-In . SVG Version: 6.00 Build 0)  -->
<svg version="1.1" id="Ebene_1" xmlns="http://www.w3.org/2000/svg" xmlns:xlink="http://www.w3.org/1999/xlink" x="0px" y="0px"
	 viewBox="0 0 1000 1000" style="enable-background:new 0 0 1000 1000;" xml:space="preserve">
<style type="text/css">
	.st0{fill:none;}
	.st1{fill-rule:evenodd;clip-rule:evenodd;}
</style>
<path class="st0" d="M-7,0H993v1000H-7V0z"/>
<g>
	<g>
		<path class="st1" d="M637.8,577.5l-2-15c-10.4-39.9-27.8-64.9-59-84c-19.9-12.1-58.6-19.3-87-9c-28.5,10.4-58.3,28.9-75,51
			c-6.1,8.1-12.6,20.3-21,26v2h-1v-484c0-13.5,1.5-29.7-4-38c-4-6.1-11.4-7.3-19-10c-1.9,1.5-4.7,1.9-8,2c-4.1,3.9-9.8,6.2-12,12
			c-5.3,13.7-6,38.7-6,56c0,43,1,86,1,129c-0.3,184-0.7,368-1,552c0,53,1,106,1,159c0,27.2,0.2,55,25,57c6.7,0.6,14.6-5.6,18-9
			l97-92c13.1-13.1,26.7-25.1,38-40c9.6-12.7,23.4-23.1,33-36c33.5-44.9,63-87.6,79-151c3-12,2.6-20.3,4-36
			C639.9,607.4,640.1,588.3,637.8,577.5z M542.9,671.9c-23.1,81.7-47.5,123.2-92.1,182.6l-58,64v-313c1.7-4.9,7.3-10.6,10-15
			c17.2-27.7,36-46.2,64-63c8.2-4.9,22.2-4.9,30-10c7.7,0.3,15.3,0.7,23,1C567.8,532.5,559.8,612,542.9,671.9z"/>
	</g>
</g>
</svg>
